<?xml version="1.0" encoding="utf-8"?>
<!-- Generator: Adobe Illustrator 18.0.0, SVG Export Plug-In . SVG Version: 6.00 Build 0)  -->
<!DOCTYPE svg PUBLIC "-//W3C//DTD SVG 1.1//EN" "http://www.w3.org/Graphics/SVG/1.1/DTD/svg11.dtd">
<svg version="1.1" id="Layer_1" xmlns="http://www.w3.org/2000/svg" xmlns:xlink="http://www.w3.org/1999/xlink" x="0px" y="0px"
	 viewBox="0 0 2000 2000" enable-background="new 0 0 2000 2000" xml:space="preserve">
<path fill="#DFEBFD" d="M860.4,1076.7c0,0-79.7,180.4-112.4,163.5c-32.6-16.9,103.4-194.6,103.4-194.6S752,872.1,689.9,837.7
	c0,0-15.2,219.2-42.6,194.8c-27.5-24.4-22.3-253.3-22.3-253.3s-132.8-132.8-219.2-59.4c-86.4,73.4-78,145.6-59.3,166.7
	c18.7,21.1,164.6,118.7,148,134.9c-16.7,16.2-135-20.9-177.9-75.3c0,0-41.9,189.8,42.1,236.5c84.1,46.7,142.1,14.7,193.5,44.5
	s78.1,67.5,44.6,63.9c-33.5-3.6-110.1-69.3-172.6-62.9c-62.5,6.4-108.7,5.1-45.7,70.5c62.9,65.4,200.9,146.4,266,108.2
	c2.8-1.7,5.5-3.3,8.1-4.8c-4.8,3.6-8.1,4.8-8.1,4.8c8.1,17.2,2.5,68.7-3.3,107.2c-1.4,6.3-2.9,15.3-4.5,27.7v0
	c-1,5.5-1.8,9.9-2.4,13.1c-18.6,82.4-109,184.6-109,184.6l12.8,15c112-88.6,114.7-222.9,114.7-222.9c10.9-100.4,56.7-163,56.7-163
	s195.2,18,203-134.3C912.5,1234.3,905.1,1132.3,860.4,1076.7z"/>
<g>
	<path fill="#EFA26F" d="M1432.8,997.4c0,0-95.2,190.5-192,322c-38.5,52.3-77.2,95.3-110.3,113.3c-32.4,17.5-59.7,44.8-82.4,75
		c-58.7,78.2-85.8,176.1-85.8,176.1L715,1309.6c0,0,8.4-365.8,38.1-427c43.3-89.2,64.2-269.3,80.8-305.2
		c12.3-26.6,47.6-164.1,50.9-174.2c1.5-4.4,13.2-11,28.4-11c12.2,0,33,11.8,38.2,36.1c26.5,122.6-5.4,203.5-5,207.1
		c9.3,94.3-18.7,164.2,0.9,182.8c0.7,0.7,2.1,0.4,4-0.9c34.1-21.9,245.8-330.5,271.8-337.1C1250.8,473.1,1432.8,997.4,1432.8,997.4z
		"/>
	<path fill="#F99746" d="M1036.7,1609.7c0,0-3.4,166.3-13,390.3H399.8c142.6-304.1,266.6-560.1,266.6-560.1
		S1021.7,1450.7,1036.7,1609.7z"/>
	<path fill="#FFB27D" d="M1649,352.6l-76.6,112.3l-75.2,110.2c-4.6,5.5-9.9,7.5-15.6,6.9c-18-1.7-40.4-27.7-57.7-42.1l-1.8-1.4
		c-22.9-19-26.2-53.3-7.2-76.2l114.9-138.9v0l34.1-41.2c19-22.9,53.3-26.2,76.2-7.2l1.8,1.4C1664.8,295.4,1668,329.7,1649,352.6z"/>
	<path fill="#EFA26F" d="M1572.4,464.9l-75.2,110.2c-4.6,5.5-9.9,7.5-15.6,6.9l48.2-258.6C1529.9,324.8,1538.1,440.9,1572.4,464.9z"
		/>
	<path fill="#D38254" d="M1240.8,1319.4c-38.5,52.3-77.2,95.3-110.3,113.3c-32.4,17.5-59.7,44.8-82.4,75
		c-26.1-12.2-55.8-26.4-84.8-40.5c-35.4-17.2-36.7-67.4-2.1-86c0.3-0.2,0.7-0.4,1-0.6c32.5-18.6,65.7-84.2,65.7-84.2L1240.8,1319.4z
		"/>
	<path fill="#FFC197" d="M883.2,408.9l-20,80.9c0,0,17.5,7.2,28.8,1.6C903.1,485.8,912.3,413.2,883.2,408.9z"/>
	<g>
		<path fill="#2B478B" d="M1459.5,1357.6h-431c-42.4,0-77.1-34.7-77.1-77.1V333.2c0-42.4,34.7-77.1,77.1-77.1h431
			c42.4,0,77.1,34.7,77.1,77.1v947.3C1536.6,1323,1501.9,1357.6,1459.5,1357.6z"/>
		<g>
			<path fill="#C0D8FB" d="M1507.6,340.5v925.4c0,31.4-25.5,57.1-56.7,57.1h-413.8c-31.2,0-56.6-25.7-56.6-57.1V340.5
				c0-31.4,25.5-57.1,56.6-57.1H1451C1482.1,283.5,1507.6,309.1,1507.6,340.5z"/>
			<path fill="#CBE1FD" d="M1451,283.5L1042.3,1323h-5.1c-31.2,0-56.6-25.7-56.6-57.1V340.5c0-31.4,25.5-57.1,56.6-57.1H1451z"/>
			<g>
				<path fill="#ED7D2B" d="M1061,488.2c0-19.9,29.5-19.9,29.5,0C1090.5,508.2,1061,508.2,1061,488.2z M1083,488.2
					c0-10.3-14.4-10.3-14.4,0C1068.6,498.7,1083,498.7,1083,488.2z"/>
				<path fill="#ED7D2B" d="M1103.6,488.5v14.1c-2.5,0-5.1,0-7.6,0v-28.9h2.7l14.5,14.2v-14.1c2.5,0,5,0,7.5,0v28.8h-2.6
					L1103.6,488.5z"/>
				<path fill="#ED7D2B" d="M1135.4,496h10.4c0,2.5,0,4.1,0,6.6c-5.9,0-12,0-17.8,0v-28.7c2.5,0,4.9,0,7.4,0
					C1135.4,488.7,1135.4,483.7,1135.4,496z"/>
				<path fill="#ED7D2B" d="M1163.1,496.1c0,2.4,0,3.9,0,6.4c-4.9,0-9.7,0-14.6,0c0-2.5,0-4,0-6.4h3.7v-15.9h-3.4c0-2.5,0-4,0-6.4
					c4.7,0,9.3,0,14,0c0,2.4,0,3.9,0,6.4h-3.4v15.9H1163.1z"/>
				<path fill="#ED7D2B" d="M1175.5,488.5v14.1c-2.5,0-5.1,0-7.6,0v-28.9h2.7l14.5,14.2v-14.1c2.5,0,5,0,7.5,0v28.8h-2.6
					L1175.5,488.5z"/>
				<path fill="#ED7D2B" d="M1217.8,480.4c-4.3,0-6.4,0-10.6,0v4.1h9.8c0,2.2,0,4.4,0,6.5h-9.8c0,1.7,0,3.3,0,5c4.2,0,6.7,0,11,0
					c0,2.1,0,4.4,0,6.5c-6.7,0-11.7,0-18.3,0c0-9.6,0-19.2,0-28.7c6.6,0,11.2,0,17.9,0C1217.8,476,1217.8,478.2,1217.8,480.4z"/>
				<path fill="#ED7D2B" d="M1235.8,502.6c0-9.6,0-19.1,0-28.7c4.1,0,8.4,0,12.6,0c13.8,0,13.8,21.4,0,21.4h-5.3v7.3
					C1240.7,502.6,1238.2,502.6,1235.8,502.6z M1248.4,480.4c-1.7,0-3.6,0-5.3,0c0,2.3,0,5.9,0,8.2h5.3
					C1252.4,488.6,1252.6,480.4,1248.4,480.4z"/>
				<path fill="#ED7D2B" d="M1279.6,499h-11.3l-1.7,3.6h-7.2v-1.1l12.9-28h3.2l13,28v1.1h-7.2L1279.6,499z M1273.9,485.1l-3.2,7.6
					h6.5L1273.9,485.1z"/>
				<path fill="#ED7D2B" d="M1303,502.6h-7.3v-12.1l-9.6-15.6v-1.1h7.9l5.2,9.6h0.3l5.2-9.6h8v1.1l-9.7,15.6V502.6z"/>
				<path fill="#ED7D2B" d="M1342,473.8h2.6v28.8c-2.5,0-5,0-7.5,0v-12.8l-6.1,6.4h-0.8l-6.1-6.4v12.8c-2.5,0-5,0-7.5,0v-28.8h2.7
					l11.2,12.5L1342,473.8z"/>
				<path fill="#ED7D2B" d="M1369.9,480.4c-4.3,0-6.4,0-10.6,0v4.1h9.8c0,2.2,0,4.4,0,6.5h-9.8c0,1.7,0,3.3,0,5c4.2,0,6.7,0,11,0
					c0,2.1,0,4.4,0,6.5c-6.7,0-11.7,0-18.3,0c0-9.6,0-19.2,0-28.7c6.6,0,11.2,0,17.9,0C1369.9,476,1369.9,478.2,1369.9,480.4z"/>
				<path fill="#ED7D2B" d="M1384.1,488.5v14.1c-2.5,0-5.1,0-7.6,0v-28.9h2.7l14.5,14.2v-14.1c2.5,0,5,0,7.5,0v28.8h-2.6
					L1384.1,488.5z"/>
				<path fill="#ED7D2B" d="M1405.7,480.4c0-2.2,0-4.4,0-6.6h21.3c0,2.2,0,4.4,0,6.6h-7v22.2c-2.4,0-4.8,0-7.3,0v-22.2H1405.7z"/>
			</g>
			<g>
				<path fill="#2B478B" d="M1468.9,580.5v661.5c0,13.8-11.2,25-25,25h-399.6c-13.8,0-25-11.2-25-25V580.5c0-13.8,11.2-25,25-25
					h399.6C1457.7,555.5,1468.9,566.7,1468.9,580.5z"/>
				<path fill="#C47B3F" d="M1237,1100.1v86.1c0,5.5-4.5,10-10,10h-72.5c-5.5,0-10-4.5-10-10v-86.1c0-5.5,4.5-10,10-10h72.5
					C1232.5,1090,1237,1094.5,1237,1100.1z"/>
				<circle fill="#A3B0C4" cx="1090.3" cy="1194.1" r="34.3"/>
				<g>
					<g>
						<path fill="#739AF0" d="M1164.5,631.4c0,0.7-0.2,1.4-0.7,2c-1.1,1.4-3.1,1.6-4.5,0.6c-14.2-11-40.2-11-56.8,0.1
							c-1.5,1-3.5,0.6-4.4-0.9c-1-1.5-0.6-3.5,0.9-4.4c9.2-6.2,21.1-9.5,33.4-9.4c11.9,0.1,23.2,3.6,30.8,9.6
							C1164.1,629.5,1164.5,630.4,1164.5,631.4z"/>
					</g>
					<g>
						<path fill="#739AF0" d="M1158.3,644.9c0,0.7-0.2,1.4-0.7,2c-1.1,1.4-3.1,1.6-4.5,0.6c-5.1-4-12.8-6.3-21-6.4
							c-8.6-0.1-16.9,2.2-23.3,6.5c-1.5,1-3.5,0.6-4.4-0.9c-1-1.5-0.6-3.5,0.9-4.4c7.4-5,17-7.7,26.9-7.6c9.6,0.1,18.7,2.9,24.9,7.7
							C1157.8,643,1158.3,643.9,1158.3,644.9z"/>
					</g>
					<g>
						<path fill="#739AF0" d="M1152.7,656.6c0,0.7-0.2,1.4-0.7,2c-1.1,1.4-3.1,1.6-4.5,0.6c-3.8-3-9.5-4.7-15.7-4.8
							c-6.5-0.1-12.7,1.7-17.5,4.9c-1.5,1-3.5,0.6-4.4-0.9c-1-1.5-0.6-3.5,0.9-4.4c5.9-3.9,13.4-6.1,21.2-6
							c7.7,0.1,14.6,2.2,19.6,6.1C1152.3,654.7,1152.7,655.6,1152.7,656.6z"/>
					</g>
					<g>
						<path fill="#739AF0" d="M1146.9,667.1c0,0.7-0.2,1.4-0.7,2c-1.1,1.4-3.1,1.6-4.5,0.6c-4.7-3.6-14.7-4.5-21.5,0.1
							c-1.5,1-3.5,0.6-4.4-0.9s-0.6-3.5,0.9-4.4c8.5-5.7,21.6-5.7,29,0.1C1146.4,665.2,1146.9,666.1,1146.9,667.1z"/>
					</g>
				</g>
				<g>
					<path fill="#739AF0" d="M1265.8,1187c0-2,0.8-4,2.4-6c1.6-2.1,3.9-3.7,7-5c3.1-1.2,6.9-1.9,11.3-1.9c5.9,0,10.5,1.3,14.1,3.9
						c3.5,2.6,5.3,5.7,5.3,9.4c0,2.1-0.7,4.3-2.1,6.4c-1.4,2.1-3.6,3.8-6.7,5.1c-3,1.3-6.8,1.9-11.5,1.9c-5.4,0-10.1-1.3-13.9-3.8
						C1267.8,1194.5,1265.8,1191.1,1265.8,1187z M1303.3,1187.5c0-2.4-1.6-4.3-4.7-5.7c-3.2-1.4-7.7-2-13.5-2c-5.1,0-9.1,0.7-12.1,2
						c-3,1.4-4.5,3.1-4.5,5.3c0,2.3,1.8,4.2,5.4,5.6c3.6,1.4,8,2.1,13,2.1c4.5,0,8.4-0.7,11.5-2
						C1301.7,1191.6,1303.3,1189.8,1303.3,1187.5z"/>
					<path fill="#739AF0" d="M1265.8,1158.7c0-2,0.8-4,2.4-6c1.6-2.1,3.9-3.7,7-5c3.1-1.2,6.9-1.9,11.3-1.9c5.9,0,10.5,1.3,14.1,3.9
						c3.5,2.6,5.3,5.7,5.3,9.4c0,2.1-0.7,4.3-2.1,6.4c-1.4,2.1-3.6,3.8-6.7,5.1c-3,1.3-6.8,1.9-11.5,1.9c-5.4,0-10.1-1.3-13.9-3.8
						C1267.8,1166.2,1265.8,1162.9,1265.8,1158.7z M1303.3,1159.2c0-2.4-1.6-4.3-4.7-5.7c-3.2-1.4-7.7-2-13.5-2
						c-5.1,0-9.1,0.7-12.1,2c-3,1.4-4.5,3.1-4.5,5.3c0,2.3,1.8,4.2,5.4,5.6c3.6,1.4,8,2.1,13,2.1c4.5,0,8.4-0.7,11.5-2
						C1301.7,1163.4,1303.3,1161.5,1303.3,1159.2z"/>
					<path fill="#739AF0" d="M1265.8,1130.5c0-2,0.8-4,2.4-6c1.6-2.1,3.9-3.7,7-5c3.1-1.2,6.9-1.9,11.3-1.9c5.9,0,10.5,1.3,14.1,3.9
						c3.5,2.6,5.3,5.7,5.3,9.4c0,2.1-0.7,4.3-2.1,6.4c-1.4,2.1-3.6,3.8-6.7,5.1c-3,1.3-6.8,1.9-11.5,1.9c-5.4,0-10.1-1.3-13.9-3.8
						C1267.8,1137.9,1265.8,1134.6,1265.8,1130.5z M1303.3,1131c0-2.4-1.6-4.3-4.7-5.7c-3.2-1.4-7.7-2-13.5-2c-5.1,0-9.1,0.7-12.1,2
						c-3,1.4-4.5,3.1-4.5,5.3c0,2.3,1.8,4.2,5.4,5.6c3.6,1.4,8,2.1,13,2.1c4.5,0,8.4-0.7,11.5-2
						C1301.7,1135.1,1303.3,1133.3,1303.3,1131z"/>
					<path fill="#739AF0" d="M1265.8,1102.2c0-2,0.8-4,2.4-6c1.6-2.1,3.9-3.7,7-5c3.1-1.2,6.9-1.9,11.3-1.9c5.9,0,10.5,1.3,14.1,3.9
						c3.5,2.6,5.3,5.7,5.3,9.4c0,2.1-0.7,4.3-2.1,6.4c-1.4,2.1-3.6,3.8-6.7,5.1c-3,1.3-6.8,1.9-11.5,1.9c-5.4,0-10.1-1.3-13.9-3.8
						C1267.8,1109.7,1265.8,1106.4,1265.8,1102.2z M1303.3,1102.7c0-2.4-1.6-4.3-4.7-5.7c-3.2-1.4-7.7-2-13.5-2
						c-5.1,0-9.1,0.7-12.1,2c-3,1.4-4.5,3.1-4.5,5.3c0,2.3,1.8,4.2,5.4,5.6c3.6,1.4,8,2.1,13,2.1c4.5,0,8.4-0.7,11.5-2
						C1301.7,1106.8,1303.3,1105,1303.3,1102.7z"/>
					<path fill="#739AF0" d="M1265.8,1030.6c0-2,0.8-4,2.4-6c1.6-2.1,3.9-3.7,7-5c3.1-1.2,6.9-1.9,11.3-1.9c5.9,0,10.5,1.3,14.1,3.9
						c3.5,2.6,5.3,5.7,5.3,9.4c0,2.1-0.7,4.3-2.1,6.4c-1.4,2.1-3.6,3.8-6.7,5.1c-3,1.3-6.8,1.9-11.5,1.9c-5.4,0-10.1-1.3-13.9-3.8
						C1267.8,1038.1,1265.8,1034.7,1265.8,1030.6z M1303.3,1031.1c0-2.4-1.6-4.3-4.7-5.7c-3.2-1.4-7.7-2-13.5-2
						c-5.1,0-9.1,0.7-12.1,2c-3,1.4-4.5,3.1-4.5,5.3c0,2.3,1.8,4.2,5.4,5.6c3.6,1.4,8,2.1,13,2.1c4.5,0,8.4-0.7,11.5-2
						C1301.7,1035.2,1303.3,1033.4,1303.3,1031.1z"/>
					<path fill="#739AF0" d="M1265.8,1002.3c0-2,0.8-4,2.4-6c1.6-2.1,3.9-3.7,7-5c3.1-1.2,6.9-1.9,11.3-1.9c5.9,0,10.5,1.3,14.1,3.9
						c3.5,2.6,5.3,5.7,5.3,9.4c0,2.1-0.7,4.3-2.1,6.4c-1.4,2.1-3.6,3.8-6.7,5.1c-3,1.3-6.8,1.9-11.5,1.9c-5.4,0-10.1-1.3-13.9-3.8
						C1267.8,1009.8,1265.8,1006.5,1265.8,1002.3z M1303.3,1002.8c0-2.4-1.6-4.3-4.7-5.7c-3.2-1.4-7.7-2-13.5-2
						c-5.1,0-9.1,0.7-12.1,2c-3,1.4-4.5,3.1-4.5,5.3c0,2.3,1.8,4.2,5.4,5.6c3.6,1.4,8,2.1,13,2.1c4.5,0,8.4-0.7,11.5-2
						C1301.7,1006.9,1303.3,1005.1,1303.3,1002.8z"/>
					<path fill="#739AF0" d="M1265.8,974c0-2,0.8-4,2.4-6c1.6-2.1,3.9-3.7,7-5c3.1-1.2,6.9-1.9,11.3-1.9c5.9,0,10.5,1.3,14.1,3.9
						c3.5,2.6,5.3,5.7,5.3,9.4c0,2.1-0.7,4.3-2.1,6.4c-1.4,2.1-3.6,3.8-6.7,5.1c-3,1.3-6.8,1.9-11.5,1.9c-5.4,0-10.1-1.3-13.9-3.8
						C1267.8,981.5,1265.8,978.2,1265.8,974z M1303.3,974.5c0-2.4-1.6-4.3-4.7-5.7c-3.2-1.4-7.7-2-13.5-2c-5.1,0-9.1,0.7-12.1,2
						c-3,1.4-4.5,3.1-4.5,5.3c0,2.3,1.8,4.2,5.4,5.6c3.6,1.4,8,2.1,13,2.1c4.5,0,8.4-0.7,11.5-2
						C1301.7,978.7,1303.3,976.9,1303.3,974.5z"/>
					<path fill="#739AF0" d="M1265.8,945.8c0-2,0.8-4,2.4-6c1.6-2.1,3.9-3.7,7-5c3.1-1.2,6.9-1.9,11.3-1.9c5.9,0,10.5,1.3,14.1,3.9
						c3.5,2.6,5.3,5.7,5.3,9.4c0,2.1-0.7,4.3-2.1,6.4c-1.4,2.1-3.6,3.8-6.7,5.1c-3,1.3-6.8,1.9-11.5,1.9c-5.4,0-10.1-1.3-13.9-3.8
						C1267.8,953.3,1265.8,949.9,1265.8,945.8z M1303.3,946.3c0-2.4-1.6-4.3-4.7-5.7c-3.2-1.4-7.7-2-13.5-2c-5.1,0-9.1,0.7-12.1,2
						c-3,1.4-4.5,3.1-4.5,5.3c0,2.3,1.8,4.2,5.4,5.6c3.6,1.4,8,2.1,13,2.1c4.5,0,8.4-0.7,11.5-2
						C1301.7,950.4,1303.3,948.6,1303.3,946.3z"/>
					<path fill="#739AF0" d="M1265.8,874.1c0-2,0.8-4,2.4-6c1.6-2.1,3.9-3.7,7-5c3.1-1.2,6.9-1.9,11.3-1.9c5.9,0,10.5,1.3,14.1,3.9
						c3.5,2.6,5.3,5.7,5.3,9.4c0,2.1-0.7,4.3-2.1,6.4c-1.4,2.1-3.6,3.8-6.7,5.1c-3,1.3-6.8,1.9-11.5,1.9c-5.4,0-10.1-1.3-13.9-3.8
						C1267.8,881.6,1265.8,878.3,1265.8,874.1z M1303.3,874.7c0-2.4-1.6-4.3-4.7-5.7c-3.2-1.4-7.7-2-13.5-2c-5.1,0-9.1,0.7-12.1,2
						c-3,1.4-4.5,3.1-4.5,5.3c0,2.3,1.8,4.2,5.4,5.6c3.6,1.4,8,2.1,13,2.1c4.5,0,8.4-0.7,11.5-2
						C1301.7,878.8,1303.3,877,1303.3,874.7z"/>
					<path fill="#739AF0" d="M1265.8,845.9c0-2,0.8-4,2.4-6c1.6-2.1,3.9-3.7,7-5c3.1-1.2,6.9-1.9,11.3-1.9c5.9,0,10.5,1.3,14.1,3.9
						c3.5,2.6,5.3,5.7,5.3,9.4c0,2.1-0.7,4.3-2.1,6.4c-1.4,2.1-3.6,3.8-6.7,5.1c-3,1.3-6.8,1.9-11.5,1.9c-5.4,0-10.1-1.3-13.9-3.8
						C1267.8,853.4,1265.8,850,1265.8,845.9z M1303.3,846.4c0-2.4-1.6-4.3-4.7-5.7c-3.2-1.4-7.7-2-13.5-2c-5.1,0-9.1,0.7-12.1,2
						c-3,1.4-4.5,3.1-4.5,5.3c0,2.3,1.8,4.2,5.4,5.6c3.6,1.4,8,2.1,13,2.1c4.5,0,8.4-0.7,11.5-2
						C1301.7,850.5,1303.3,848.7,1303.3,846.4z"/>
					<path fill="#739AF0" d="M1265.8,817.6c0-2,0.8-4,2.4-6c1.6-2.1,3.9-3.7,7-5c3.1-1.2,6.9-1.9,11.3-1.9c5.9,0,10.5,1.3,14.1,3.9
						c3.5,2.6,5.3,5.7,5.3,9.4c0,2.1-0.7,4.3-2.1,6.4c-1.4,2.1-3.6,3.8-6.7,5.1c-3,1.3-6.8,1.9-11.5,1.9c-5.4,0-10.1-1.3-13.9-3.8
						C1267.8,825.1,1265.8,821.8,1265.8,817.6z M1303.3,818.1c0-2.4-1.6-4.3-4.7-5.7c-3.2-1.4-7.7-2-13.5-2c-5.1,0-9.1,0.7-12.1,2
						c-3,1.4-4.5,3.1-4.5,5.3c0,2.3,1.8,4.2,5.4,5.6c3.6,1.4,8,2.1,13,2.1c4.5,0,8.4-0.7,11.5-2
						C1301.7,822.3,1303.3,820.4,1303.3,818.1z"/>
					<path fill="#739AF0" d="M1265.8,789.4c0-2,0.8-4,2.4-6c1.6-2.1,3.9-3.7,7-5c3.1-1.2,6.9-1.9,11.3-1.9c5.9,0,10.5,1.3,14.1,3.9
						c3.5,2.6,5.3,5.7,5.3,9.4c0,2.1-0.7,4.3-2.1,6.4c-1.4,2.1-3.6,3.8-6.7,5.1c-3,1.3-6.8,1.9-11.5,1.9c-5.4,0-10.1-1.3-13.9-3.8
						C1267.8,796.8,1265.8,793.5,1265.8,789.4z M1303.3,789.9c0-2.4-1.6-4.3-4.7-5.7c-3.2-1.4-7.7-2-13.5-2c-5.1,0-9.1,0.7-12.1,2
						c-3,1.4-4.5,3.1-4.5,5.3c0,2.3,1.8,4.2,5.4,5.6c3.6,1.4,8,2.1,13,2.1c4.5,0,8.4-0.7,11.5-2
						C1301.7,794,1303.3,792.2,1303.3,789.9z"/>
					<path fill="#739AF0" d="M1265.8,717.7c0-2,0.8-4,2.4-6c1.6-2.1,3.9-3.7,7-5c3.1-1.2,6.9-1.9,11.3-1.9c5.9,0,10.5,1.3,14.1,3.9
						c3.5,2.6,5.3,5.7,5.3,9.4c0,2.1-0.7,4.3-2.1,6.4c-1.4,2.1-3.6,3.8-6.7,5.1c-3,1.3-6.8,1.9-11.5,1.9c-5.4,0-10.1-1.3-13.9-3.8
						C1267.8,725.2,1265.8,721.9,1265.8,717.7z M1303.3,718.2c0-2.4-1.6-4.3-4.7-5.7c-3.2-1.4-7.7-2-13.5-2c-5.1,0-9.1,0.7-12.1,2
						c-3,1.4-4.5,3.1-4.5,5.3c0,2.3,1.8,4.2,5.4,5.6c3.6,1.4,8,2.1,13,2.1c4.5,0,8.4-0.7,11.5-2
						C1301.7,722.4,1303.3,720.5,1303.3,718.2z"/>
					<path fill="#739AF0" d="M1265.8,689.5c0-2,0.8-4,2.4-6c1.6-2.1,3.9-3.7,7-5c3.1-1.2,6.9-1.9,11.3-1.9c5.9,0,10.5,1.3,14.1,3.9
						c3.5,2.6,5.3,5.7,5.3,9.4c0,2.1-0.7,4.3-2.1,6.4c-1.4,2.1-3.6,3.8-6.7,5.1c-3,1.3-6.8,1.9-11.5,1.9c-5.4,0-10.1-1.3-13.9-3.8
						C1267.8,697,1265.8,693.6,1265.8,689.5z M1303.3,690c0-2.4-1.6-4.3-4.7-5.7c-3.2-1.4-7.7-2-13.5-2c-5.1,0-9.1,0.7-12.1,2
						c-3,1.4-4.5,3.1-4.5,5.3c0,2.3,1.8,4.2,5.4,5.6c3.6,1.4,8,2.1,13,2.1c4.5,0,8.4-0.7,11.5-2
						C1301.7,694.1,1303.3,692.3,1303.3,690z"/>
					<path fill="#739AF0" d="M1265.8,661.2c0-2,0.8-4,2.4-6c1.6-2.1,3.9-3.7,7-5c3.1-1.2,6.9-1.9,11.3-1.9c5.9,0,10.5,1.3,14.1,3.9
						c3.5,2.6,5.3,5.7,5.3,9.4c0,2.1-0.7,4.3-2.1,6.4c-1.4,2.1-3.6,3.8-6.7,5.1c-3,1.3-6.8,1.9-11.5,1.9c-5.4,0-10.1-1.3-13.9-3.8
						C1267.8,668.7,1265.8,665.4,1265.8,661.2z M1303.3,661.7c0-2.4-1.6-4.3-4.7-5.7c-3.2-1.4-7.7-2-13.5-2c-5.1,0-9.1,0.7-12.1,2
						c-3,1.4-4.5,3.1-4.5,5.3c0,2.3,1.8,4.2,5.4,5.6c3.6,1.4,8,2.1,13,2.1c4.5,0,8.4-0.7,11.5-2
						C1301.7,665.8,1303.3,664,1303.3,661.7z"/>
					<path fill="#739AF0" d="M1265.8,632.9c0-2,0.8-4,2.4-6c1.6-2.1,3.9-3.7,7-5c3.1-1.2,6.9-1.9,11.3-1.9c5.9,0,10.5,1.3,14.1,3.9
						c3.5,2.6,5.3,5.7,5.3,9.4c0,2.1-0.7,4.3-2.1,6.4c-1.4,2.1-3.6,3.8-6.7,5.1c-3,1.3-6.8,1.9-11.5,1.9c-5.4,0-10.1-1.3-13.9-3.8
						C1267.8,640.4,1265.8,637.1,1265.8,632.9z M1303.3,633.4c0-2.4-1.6-4.3-4.7-5.7c-3.2-1.4-7.7-2-13.5-2c-5.1,0-9.1,0.7-12.1,2
						c-3,1.4-4.5,3.1-4.5,5.3c0,2.3,1.8,4.2,5.4,5.6c3.6,1.4,8,2.1,13,2.1c4.5,0,8.4-0.7,11.5-2
						C1301.7,637.6,1303.3,635.8,1303.3,633.4z"/>
				</g>
				<path fill="#F99746" d="M1143.3,1100.1v85.8c0,6.2,5.1,11.3,11.3,11.3h72.2c6.2,0,11.3-5.1,11.3-11.3v-0.7v-41.2v-2v-41.2v-0.7
					c0-6.2-5.1-11.3-11.3-11.3h-72.2C1148.3,1088.9,1143.3,1093.9,1143.3,1100.1z M1170.1,1091v31.8c0,2.5,2.1,4.6,4.6,4.6h37.7
					c1.4,0,2.6,1.2,2.6,2.6v26.3c0,1.4-1.2,2.6-2.6,2.6h-43.7c-1.4,0-2.5-1.1-2.5-2.5V1142h-20.8v-0.1h0.6c2.1,0,3.9-1.7,3.9-3.9
					v-45.8c1.4-0.9,3-1.3,4.8-1.3H1170.1z M1191.7,1125.2V1091h19.5v34.3H1191.7z M1189.6,1125.2h-14.8c-1.4,0-2.5-1.1-2.5-2.5V1091
					h17.4V1125.2z M1147.7,1094v44c0,1-0.8,1.8-1.8,1.8h-0.6v-39.7C1145.3,1097.8,1146.2,1095.7,1147.7,1094z M1145.3,1146.3h0.6
					c1,0,1.8,0.8,1.8,1.8v44c-1.4-1.6-2.3-3.8-2.3-6.1V1146.3z M1149.8,1193.8V1148c0-2.1-1.7-3.9-3.9-3.9h-0.6v-0.1h18.7v12.2
					c0,2.5,2.1,4.6,4.6,4.6h1.5v34.3h-15.6C1152.8,1195.2,1151.1,1194.7,1149.8,1193.8z M1211.2,1160.9v34.3h-19.5v-34.3H1211.2z
					 M1189.6,1160.9v34.3h-17.4v-34.3H1189.6z M1235.9,1183.2h-1.4c-0.4,0-0.7-0.3-0.7-0.7v-35.6c0-0.4,0.3-0.7,0.7-0.7h1.4V1183.2z
					 M1235.9,1140h-1.4c-0.4,0-0.7-0.3-0.7-0.7v-35.6c0-0.4,0.3-0.7,0.7-0.7h1.4V1140z M1235.9,1100.1v0.7h-1.4
					c-1.5,0-2.8,1.3-2.8,2.8v35.6c0,1.5,1.3,2.8,2.8,2.8h1.4v2h-1.4c-1.5,0-2.8,1.3-2.8,2.8v35.6c0,1.5,1.3,2.8,2.8,2.8h1.4v0.7
					c0,5.1-4.1,9.2-9.2,9.2h-13.4v-34.4c2.1-0.4,3.8-2.3,3.8-4.6v-26.3c0-2.3-1.6-4.2-3.8-4.6V1091h13.4
					C1231.8,1091,1235.9,1095.1,1235.9,1100.1z"/>
				<path fill="#A3B0C4" d="M1117.8,910.6v208.1c0,15.2-12.3,27.5-27.5,27.5l0,0c-15.2,0-27.5-12.3-27.5-27.5V910.6
					c0-15.2,12.3-27.5,27.5-27.5l0,0C1105.5,883.1,1117.8,895.5,1117.8,910.6z"/>
				<g>
					<path fill="#739AF0" d="M1420,1188.3c0,1.8-0.3,3.4-0.9,4.8c-0.6,1.4-1.4,2.7-2.6,3.7c-1.2,1.1-2.6,1.9-4.1,2.4
						c-1.6,0.5-3.4,0.8-5.4,0.8c-4,0-7.1-1.1-9.5-3.2c-1.2-1.1-2.1-2.3-2.6-3.7c-0.6-1.4-0.8-3-0.8-4.8c0-1.4,0.2-2.7,0.5-3.8
						c0.3-1.2,0.9-2.2,1.6-3.2c0.8-1.1,1.7-1.9,2.8-2.4c1-0.5,2.2-0.9,3.5-1v4.2c-0.7,0.1-1.4,0.3-2,0.6c-0.6,0.3-1.1,0.8-1.5,1.3
						c-0.4,0.5-0.7,1.2-1,1.9c-0.2,0.7-0.3,1.5-0.3,2.4c0,1.1,0.2,2.2,0.6,3.1c0.4,0.9,1,1.7,1.8,2.4c0.8,0.6,1.8,1.1,3,1.5
						c1.2,0.4,2.5,0.5,4,0.5c1.5,0,2.8-0.2,4-0.5c1.2-0.3,2.2-0.8,3-1.5c0.8-0.6,1.4-1.4,1.8-2.3c0.4-0.9,0.6-1.9,0.6-3.1
						c0-0.9-0.1-1.7-0.3-2.4c-0.2-0.7-0.6-1.4-1-1.9c-0.4-0.5-1-1-1.6-1.3c-0.6-0.3-1.4-0.5-2.2-0.6v-4.2c2.8,0.3,4.9,1.3,6.4,3.2
						C1419.3,1182.9,1420,1185.3,1420,1188.3z"/>
					<path fill="#739AF0" d="M1419.6,1152.7v4.4l-6.9,2.6v9.9l6.9,2.4v4.2l-25-9.2v-4.6L1419.6,1152.7z M1409.3,1168.3v-7.6
						l-10.4,3.8v0.4L1409.3,1168.3z"/>
					<path fill="#739AF0" d="M1419.6,1128.8v4.5l-6.4,2.3c-1.3,0.5-2.2,1.1-2.9,1.9c-0.6,0.8-1,1.8-1,3.2v5.3h10.2v4.2h-25v-11.1
						c0-1.3,0.1-2.6,0.4-3.7c0.2-1.1,0.6-2.1,1.2-2.9c0.5-0.8,1.3-1.4,2.2-1.9c0.9-0.4,2-0.7,3.4-0.7c1.8,0,3.2,0.5,4.3,1.4
						c1.1,1,1.8,2.3,2.2,4.1c0.4-0.9,0.9-1.7,1.7-2.3c0.8-0.6,1.8-1.2,3.1-1.7L1419.6,1128.8z M1405.8,1145.8v-6.5
						c0-0.9-0.1-1.7-0.2-2.4c-0.1-0.7-0.4-1.2-0.7-1.6c-0.3-0.4-0.7-0.7-1.2-0.9c-0.5-0.2-1.1-0.3-1.9-0.3c-1.3,0-2.3,0.4-2.9,1.2
						c-0.6,0.8-1,2-1,3.6v6.9H1405.8z"/>
					<path fill="#739AF0" d="M1394.5,1124.8v-8.1c0-4.3,1-7.5,3.1-9.7c2-2.2,5.1-3.2,9.3-3.2c8.4,0,12.7,4.3,12.7,12.9v8.1H1394.5z
						 M1416,1120.6v-3.9c0-3.4-0.8-5.7-2.3-6.9c-0.8-0.6-1.8-1.1-2.9-1.4c-1.1-0.3-2.4-0.4-3.8-0.4c-1.4,0-2.6,0.1-3.7,0.4
						c-1.1,0.3-2,0.8-2.8,1.4c-1.5,1.2-2.3,3.5-2.3,6.9v3.9H1416z"/>
					<path fill="#739AF0" d="M1419.6,1079.2v4.2h-11.4v11.8h11.4v4.2h-25v-4.2h10v-11.8h-10v-4.2H1419.6z"/>
					<path fill="#739AF0" d="M1394.1,1062.9c0-1.8,0.3-3.4,0.9-4.9c0.6-1.5,1.5-2.7,2.6-3.8c1.1-1.1,2.5-1.9,4.1-2.5
						c1.6-0.6,3.4-0.9,5.3-0.9c1.9,0,3.7,0.3,5.3,0.8c1.6,0.6,3,1.4,4.1,2.4c1.1,1,2,2.3,2.6,3.8c0.6,1.5,0.9,3.1,0.9,4.9
						c0,1.8-0.3,3.5-0.9,4.9c-0.6,1.5-1.5,2.7-2.6,3.8c-1.1,1-2.5,1.9-4.1,2.4c-1.6,0.6-3.4,0.9-5.3,0.9c-1.9,0-3.7-0.3-5.3-0.9
						c-1.6-0.6-3-1.4-4.1-2.5c-1.1-1.1-2-2.3-2.6-3.8C1394.4,1066.3,1394.1,1064.7,1394.1,1062.9z M1416.5,1063
						c0-1.2-0.2-2.2-0.7-3.2c-0.4-1-1.1-1.8-1.9-2.4c-0.8-0.7-1.8-1.2-3-1.6c-1.2-0.4-2.5-0.6-3.9-0.6c-1.4,0-2.7,0.2-3.8,0.5
						c-1.2,0.4-2.1,0.9-3,1.5c-0.8,0.7-1.5,1.5-1.9,2.4c-0.5,0.9-0.7,2-0.7,3.2c0,1.2,0.2,2.2,0.7,3.2c0.4,1,1.1,1.8,1.9,2.5
						c0.8,0.7,1.8,1.2,3,1.6c1.2,0.4,2.4,0.6,3.9,0.6c1.4,0,2.7-0.2,3.9-0.6c1.2-0.4,2.1-0.9,3-1.6c0.8-0.7,1.5-1.5,1.9-2.4
						C1416.3,1065.2,1416.5,1064.1,1416.5,1063z"/>
					<path fill="#739AF0" d="M1419.6,1030.7v15.9h-25v-4.2h21.4v-11.8H1419.6z"/>
					<path fill="#739AF0" d="M1394.5,1026.9v-8.1c0-4.3,1-7.5,3.1-9.7c2-2.2,5.1-3.2,9.3-3.2c8.4,0,12.7,4.3,12.7,12.9v8.1H1394.5z
						 M1416,1022.7v-3.9c0-3.4-0.8-5.7-2.3-6.9c-0.8-0.6-1.8-1.1-2.9-1.4c-1.1-0.3-2.4-0.4-3.8-0.4c-1.4,0-2.6,0.1-3.7,0.4
						c-1.1,0.3-2,0.8-2.8,1.4c-1.5,1.2-2.3,3.5-2.3,6.9v3.9H1416z"/>
					<path fill="#739AF0" d="M1419.6,982.5v19h-25v-18.4h3.6v14.2h6.8V984h3.6v13.3h7.4v-14.8H1419.6z"/>
					<path fill="#739AF0" d="M1419.6,956.8v4.5l-6.4,2.3c-1.3,0.5-2.2,1.1-2.9,1.9c-0.6,0.8-1,1.8-1,3.1v5.3h10.2v4.2h-25V967
						c0-1.3,0.1-2.6,0.4-3.7c0.2-1.1,0.6-2.1,1.2-2.9c0.5-0.8,1.3-1.4,2.2-1.9c0.9-0.4,2-0.7,3.4-0.7c1.8,0,3.2,0.5,4.3,1.4
						c1.1,1,1.8,2.3,2.2,4.1c0.4-0.9,0.9-1.7,1.7-2.3c0.8-0.6,1.8-1.2,3.1-1.7L1419.6,956.8z M1405.8,973.9v-6.5
						c0-0.9-0.1-1.7-0.2-2.4c-0.1-0.7-0.4-1.2-0.7-1.6c-0.3-0.4-0.7-0.7-1.2-0.9c-0.5-0.2-1.1-0.3-1.9-0.3c-1.3,0-2.3,0.4-2.9,1.2
						c-0.6,0.8-1,2-1,3.6v6.9H1405.8z"/>
				</g>
				<g>
					<path fill="#739AF0" d="M1329.4,900.1c0-1.5,0.6-3.1,1.8-4.7c1.2-1.6,3-2.9,5.4-3.8c2.4-1,5.3-1.4,8.7-1.4c4.5,0,8.1,1,10.8,3
						c2.7,2,4.1,4.4,4.1,7.3c0,1.6-0.6,3.3-1.6,4.9c-1.1,1.6-2.8,2.9-5.1,3.9c-2.3,1-5.3,1.5-8.9,1.5c-4.2,0-7.8-1-10.7-2.9
						C1330.9,905.8,1329.4,903.3,1329.4,900.1z M1358.2,900.4c0-1.9-1.2-3.3-3.6-4.4c-2.4-1-5.9-1.6-10.4-1.6c-3.9,0-7,0.5-9.3,1.6
						c-2.3,1-3.4,2.4-3.4,4.1c0,1.8,1.4,3.2,4.2,4.3c2.8,1.1,6.1,1.7,10,1.7c3.5,0,6.4-0.5,8.9-1.5
						C1357,903.6,1358.2,902.2,1358.2,900.4z"/>
					<path fill="#739AF0" d="M1329.4,878.3c0-1.5,0.6-3.1,1.8-4.7c1.2-1.6,3-2.9,5.4-3.8c2.4-1,5.3-1.4,8.7-1.4c4.5,0,8.1,1,10.8,3
						c2.7,2,4.1,4.4,4.1,7.3c0,1.6-0.6,3.3-1.6,4.9c-1.1,1.6-2.8,2.9-5.1,3.9c-2.3,1-5.3,1.5-8.9,1.5c-4.2,0-7.8-1-10.7-2.9
						C1330.9,884.1,1329.4,881.5,1329.4,878.3z M1358.2,878.7c0-1.9-1.2-3.3-3.6-4.4c-2.4-1-5.9-1.6-10.4-1.6c-3.9,0-7,0.5-9.3,1.6
						c-2.3,1-3.4,2.4-3.4,4.1c0,1.8,1.4,3.2,4.2,4.3c2.8,1.1,6.1,1.7,10,1.7c3.5,0,6.4-0.5,8.9-1.5
						C1357,881.9,1358.2,880.5,1358.2,878.7z"/>
					<path fill="#739AF0" d="M1327.3,843.3c0.1,0,0.2,0,0.3,0.1l10.5,6.6l25,15.2c0.6,0.3,0.9,0.6,1,0.8c0.1,0.2,0.1,0.5,0.1,1
						c0,0.6-0.1,0.9-0.3,0.9c-0.1,0-0.2-0.1-0.4-0.2l-9.5-5.8l-26.2-16.1c-0.3-0.2-0.5-0.4-0.6-0.6c-0.1-0.2-0.1-0.5-0.1-0.9
						C1327.1,843.6,1327.2,843.3,1327.3,843.3z"/>
					<path fill="#739AF0" d="M1329.4,832.7c0-1.5,0.6-3.1,1.8-4.7c1.2-1.6,3-2.9,5.4-3.8c2.4-1,5.3-1.4,8.7-1.4c4.5,0,8.1,1,10.8,3
						c2.7,2,4.1,4.4,4.1,7.3c0,1.6-0.6,3.3-1.6,4.9c-1.1,1.6-2.8,2.9-5.1,3.9c-2.3,1-5.3,1.5-8.9,1.5c-4.2,0-7.8-1-10.7-2.9
						C1330.9,838.5,1329.4,835.9,1329.4,832.7z M1358.2,833.1c0-1.9-1.2-3.3-3.6-4.4c-2.4-1-5.9-1.6-10.4-1.6c-3.9,0-7,0.5-9.3,1.6
						c-2.3,1-3.4,2.4-3.4,4.1c0,1.8,1.4,3.2,4.2,4.3c2.8,1.1,6.1,1.7,10,1.7c3.5,0,6.4-0.5,8.9-1.5
						C1357,836.3,1358.2,834.9,1358.2,833.1z"/>
					<path fill="#739AF0" d="M1329.4,811c0-1.5,0.6-3.1,1.8-4.7c1.2-1.6,3-2.9,5.4-3.8c2.4-1,5.3-1.4,8.7-1.4c4.5,0,8.1,1,10.8,3
						c2.7,2,4.1,4.4,4.1,7.3c0,1.6-0.6,3.3-1.6,4.9c-1.1,1.6-2.8,2.9-5.1,3.9c-2.3,1-5.3,1.5-8.9,1.5c-4.2,0-7.8-1-10.7-2.9
						C1330.9,816.7,1329.4,814.2,1329.4,811z M1358.2,811.4c0-1.9-1.2-3.3-3.6-4.4c-2.4-1-5.9-1.6-10.4-1.6c-3.9,0-7,0.5-9.3,1.6
						c-2.3,1-3.4,2.4-3.4,4.1c0,1.8,1.4,3.2,4.2,4.3c2.8,1.1,6.1,1.7,10,1.7c3.5,0,6.4-0.5,8.9-1.5
						C1357,814.5,1358.2,813.1,1358.2,811.4z"/>
				</g>
			</g>
			<g>
				<g>
					<path fill="#F99746" d="M1315,367.4c0,1.3-0.5,2.6-1.4,3.6c-2.3,2.6-6.6,3-9.5,1c-30.1-20.4-85.2-20.3-120.4,0.2
						c-3.1,1.8-7.3,1.1-9.4-1.6c-2.1-2.7-1.3-6.4,1.9-8.2c19.6-11.5,44.8-17.7,70.9-17.4c25.3,0.2,49.1,6.7,65.4,17.7
						C1314.1,363.8,1315,365.6,1315,367.4z"/>
				</g>
				<g>
					<path fill="#F99746" d="M1301.8,392.3c0,1.3-0.5,2.6-1.4,3.6c-2.3,2.6-6.6,3-9.5,1c-10.8-7.3-27.1-11.6-44.5-11.8
						c-18.3-0.2-35.9,4.1-49.4,12c-3.1,1.8-7.3,1.1-9.4-1.6c-2.1-2.7-1.3-6.4,1.9-8.2c15.8-9.2,36.1-14.2,57.1-14
						c20.4,0.2,39.6,5.4,52.7,14.3C1300.9,388.8,1301.8,390.6,1301.8,392.3z"/>
				</g>
				<g>
					<path fill="#F99746" d="M1290.1,414c0,1.3-0.5,2.6-1.4,3.6c-2.3,2.6-6.6,3-9.5,1c-8.1-5.5-20.2-8.7-33.4-8.8
						c-13.8-0.1-27,3.1-37.2,9c-3.1,1.8-7.3,1.1-9.4-1.6c-2.1-2.7-1.3-6.4,1.9-8.2c12.4-7.3,28.4-11.2,44.9-11
						c16.3,0.1,31,4.2,41.6,11.3C1289.2,410.5,1290.1,412.2,1290.1,414z"/>
				</g>
				<g>
					<path fill="#F99746" d="M1277.6,433.4c0,1.3-0.5,2.6-1.4,3.6c-2.3,2.6-6.6,3-9.5,1c-9.9-6.7-31.1-8.3-45.6,0.2
						c-3.1,1.8-7.3,1.1-9.4-1.6c-2.1-2.7-1.3-6.4,1.9-8.2c18.1-10.6,45.7-10.5,61.6,0.2C1276.7,429.9,1277.6,431.6,1277.6,433.4z"/>
				</g>
			</g>
		</g>
		<path fill="#2B478B" d="M1330.5,317.9h-173c-14.1,0-25.6-11.5-25.6-25.6v-4c0-14.1,11.5-25.6,25.6-25.6h173
			c14.1,0,25.6,11.5,25.6,25.6v4C1356.1,306.4,1344.6,317.9,1330.5,317.9z"/>
	</g>
	<g>
		<path fill="#FFB27D" d="M1610.9,776.7l-11.4,4.3l-76.8,29.2c-1.8,0.7-3.6,1.3-5.4,1.7c-25.4,6.6-52.5-6.9-62-32l-1.1-3
			c-10.2-26.9,3.4-57.3,30.3-67.5l71.6-27.2l5.2-2l11.4-4.3c26.9-10.2,57.3,3.4,67.5,30.3l1.1,2.9
			C1651.5,736.1,1637.8,766.5,1610.9,776.7z"/>
		<path fill="#FFD3B6" d="M1548.5,778.5c-12.8,4.9-36,13.5-48.4,15.3c-3.5,0.5-10-1.4-16-8c-3.6-4-7.1-9.6-9.7-17.4
			c-1.2-3.7-2.2-7.3-2.6-11.1c-0.5-4.4-0.4-8.8,0.4-13.2c0.7-3.9,3.4-7.5,7.3-9.4c0,0,0,0,0.1,0c13.2-6.3,31-14,46.6-18.3
			c10.8-3,21.7,1.8,25.1,11.2l1.6,4.4l8.2,22.6C1564.5,763.8,1559,774.5,1548.5,778.5z"/>
		<path fill="#FFC197" d="M1548.5,778.5c-12.8,4.9-36,13.5-48.4,15.3c-3.5,0.5-10-1.4-16-8c-0.6-1.5-1.2-3.1-1.8-4.8
			c-1.2-3.7-2.2-7.3-2.6-11.1c-0.5-4.4-0.4-8.8,0.4-13.2c0.7-3.9,3.4-7.5,7.3-9.4c0,0,0,0,0.1,0c13.2-6.3,31-14,46.6-18.3
			c6.9-1.9,13.9-0.6,18.9,3l8.2,22.6C1564.5,763.8,1559,774.5,1548.5,778.5z"/>
	</g>
	<g>
		<path fill="#FFB27D" d="M1576.1,884.7l-59.2,16.1c-18,4.9-36.7-5.8-41.6-23.8l-1.8-6.7c-4.9-18,5.8-36.7,23.8-41.6l59.2-16.1
			c18-4.9,36.7,5.8,41.6,23.8l1.8,6.7C1604.8,861.1,1594.1,879.8,1576.1,884.7z"/>
		<path fill="#FFD3B6" d="M1544,881.8c-10.9,2.9-30.6,8-40.9,8.6c-3.7,0.2-11.3-3-16.2-12.8c-1.2-2.4-2.2-5.2-3-8.4
			c-0.7-2.9-1.3-5.8-1.3-8.7c-0.1-3.4,0.4-6.8,1.3-10.1c0.9-3,3.3-5.6,6.7-6.8c0,0,0,0,0.1,0c11.3-4,26.5-8.7,39.6-11
			c9.1-1.6,17.6,2.8,19.8,10.2l1.5,5.3l4.6,16C1558.3,871.5,1552.9,879.4,1544,881.8z"/>
		<path fill="#FFC197" d="M1544,881.8c-10.9,2.9-30.6,8-40.9,8.6c-3.7,0.2-11.3-3-16.2-12.8c-0.7-2.7-1.1-5.4-1.2-8.2
			c-0.1-3.4,0.4-6.8,1.3-10.1c0.9-3,3.3-5.6,6.7-6.8c0,0,0,0,0.1,0c11.3-4,26.5-8.7,39.6-11c7.5-1.3,14.7,1.4,18.1,6.7l4.6,16
			C1558.3,871.5,1552.9,879.4,1544,881.8z"/>
	</g>
	<path fill="#ED7D2B" d="M605.7,1566.1c0,0,121.9,116.8,204.1,161.9l62.2-44.1v65.1c0,0,122.4,21.6,161,0v-177.6L689.2,1399
		L605.7,1566.1z"/>
	<path fill="#F3F8FF" d="M715,1296.4c0,0-77.4,115.8-154.4,239.7c0,0,162.2,111.6,250.1,144.3L926,1548.3l-16.5,159
		c0,0,102.1,37.2,149.4,27.5c0,0-3-144.2-3-238.7C1056,1496,775.4,1417.4,715,1296.4z"/>
	<circle fill="#F99746" cx="753.2" cy="1590.5" r="19.2"/>
	<g>
		<path fill="#FFB27D" d="M1609,663.2c-0.4,0.2-0.8,0.3-1.3,0.4l-77.7,19.9c-34.1,8.8-69.5-9.7-78.5-41.1l-4.6-16.1
			c-8.7-30.1,10-61.6,41.7-71.8l25.6-6.6l52-13.4c34.1-8.8,69.5,9.7,78.5,41.1l4.6,16.1C1658,621.5,1640,652.5,1609,663.2z"/>
		<path fill="#FFD3B6" d="M1573.5,641.5l-37.7,17c-0.1,0-0.1,0-0.2,0.1c-1.5,0.4-3,0.7-4.6,0.9c-0.6,0.1-1.3,0.2-1.9,0.2
			c-0.3,0-0.5,0-0.8,0c-4.2-0.1-7-4.5-5.2-8.5c3.6-7.8,4.5-16.8,2.1-25.6l-0.9-3.3c0,0,0-0.1,0-0.1l-2.9-10.7
			c-2.3-8.5-7.2-15.7-13.7-20.9c-0.8-0.6-1.6-1.2-2.4-1.8c-7.5-5.2-5.6-16.9,3.2-19.3c0.1,0,0.2,0,0.2-0.1l41.4-6.3
			c10.2-2.8,20.1,5.1,22.9,15.3l3.3,12.2l7.1,26C1586.1,627.1,1583.7,638.7,1573.5,641.5z"/>
		<path fill="#FFC197" d="M1573.5,641.5l-37.7,17c-0.1,0-0.1,0-0.2,0.1c-0.9,0.2-3.7,0.6-7.3,1.2c-4.2-0.1-7-4.5-5.2-8.5
			c3.6-7.8,4.5-16.8,2.1-25.6l-0.9-3.3c0,0,0-0.1,0-0.1l-2.9-10.7c-2.3-8.5-7.2-15.7-13.7-20.9c1.3-2,3.3-3.5,5.9-4.2
			c0.1,0,0.2,0,0.2-0.1l41.4-6.3c8.6-2.3,17,2.9,21.1,10.7l7.1,26C1586.1,627.1,1583.7,638.7,1573.5,641.5z"/>
	</g>
	<path fill="#D38254" d="M951.5,1067.1c0,0-16.9-147.9-32.6-176.7c-15.6-28.8-28.9-86.6-4.8-129.5c24-42.9,32.4-125.5,32.4-125.5
		c9.3,94.3-18.7,164.2,0.9,182.8c0.7,0.7,2.1,0.4,4-0.9L951.5,1067.1z"/>
</g>
<path fill="#E1EEFB" d="M490.7,1616.7c0,0-28.9-79-76.9-112.9c0,0-22.3,160.7-52,154.7c-29.6-6,37.8-177.3,37.8-177.3
	s-117.8-114.7-174.7-127.9c0,0,37.6,176.9,10.3,163.8c-27.3-13.1-74.9-195.3-74.9-195.3S60.9,1266.5,0,1299.8v185.4
	c46.7,18.5,118.8,45.5,111.8,57.7c-7,12.2-63.8,14-111.8,1V1673c10.9,13.9,24.3,24.3,40.9,28.1c77.1,18,115.7-20.5,163.2-8.5
	c47.4,12,77,35.8,49.7,40.4c-27.3,4.7-102.7-30-150.7-10.8c-48,19.2-84.8,28.6-20.2,66.1c64.6,37.5,192,70.4,234.8,25.4c0,0,0,0,0,0
	c1.9-2,3.7-3.8,5.4-5.6c0,0,0,0,0,0c-3,3.9-5.4,5.7-5.4,5.7c10.3,11.8,17.5,53.8,21.7,85.6c0.3,5.3,1.2,12.7,2.7,22.8
	c0.5,4.7,0.9,8.5,1.1,11.2c1.1,20.5-2.3,43.9-7.7,66.5h20.6c6.5-51-3.5-89.2-3.5-89.3l0,0c-14.1-81.9,8-141.8,8-141.8v0
	C360.8,1768.8,518.9,1738.9,490.7,1616.7z"/>
<path fill="#DFEBFD" d="M1812.4,1475.5c-27.1-100.1-196.1-68.8-196.1-68.8s-114.7,175.2-148.1,179.4s68.8-169,68.8-169
	c-64.7-6.3-229.5,73-229.5,73s10.4,204.4-22.9,200.3c-33.4-4.2,0-181.5,0-181.5c-62.6,18.8-121,91.8-121,91.8
	c-73,118.9,83.4,206.5,83.4,206.5s2.1,70.9-41.7,152.3l0,0c0,0-9.9,15-19.9,40.6h17.1c1.4-4.6,2.9-9,4.6-13.2c0,0,0-0.1,0-0.1
	c0-0.1,0.1-0.1,0.1-0.2c1.2-2.6,2.8-6.4,4.9-11l0,0c0,0,0,0,0,0c5.2-10.2,8.7-17.7,11-23.2c0,0,0,0,0-0.1
	c15.6-32,38.1-73.8,53.1-82.5c0,0-1.9-2.7-3.7-7.8c1.2,2.5,2.4,5.1,3.7,7.8c29.2,62.6,175.2,73,256.6,56.3
	c81.4-16.7,45.9-39.6,2.1-76.9c-43.8-37.2-135.6-27.4-162.7-42c-27.1-14.6,12.5-29.2,66.8-25c54.2,4.2,81.4,58.4,169,66.8
	c87.6,8.3,154.4-156.5,154.4-156.5c-60.5,18.8-169-14.6-173.1-35.5c-4.2-20.9,156.5-18.8,181.5-25
	C1795.8,1625.7,1839.6,1575.6,1812.4,1475.5z"/>
</svg>
