<?xml version="1.0" encoding="utf-8"?>
<!-- Generator: Adobe Illustrator 18.0.0, SVG Export Plug-In . SVG Version: 6.00 Build 0)  -->
<!DOCTYPE svg PUBLIC "-//W3C//DTD SVG 1.1//EN" "http://www.w3.org/Graphics/SVG/1.1/DTD/svg11.dtd">
<svg version="1.1" id="a02f2390-8fa7-48a9-96f1-2ec5f63ecbc1"
	 xmlns="http://www.w3.org/2000/svg" xmlns:xlink="http://www.w3.org/1999/xlink" x="0px" y="0px" viewBox="0 0 960 560"
	 enable-background="new 0 0 960 560" xml:space="preserve">
<g>
	<path fill-rule="evenodd" clip-rule="evenodd" fill="#8D4D39" d="M106.8,224.3c1.1,2,3.6,2.2,5.5-0.1c-4.4-45.6,6.2-88.5,20.3-85.9
		c12.7-0.4,20.6,42.5,17.5,85.3c1.9,3,4.9,3,5.9,0.3c3-49.9-8.2-94.2-24.1-92.3C114.5,130.7,101.8,175.8,106.8,224.3L106.8,224.3z"
		/>
	<path fill-rule="evenodd" clip-rule="evenodd" fill="#F9A64A" d="M52.3,323.6c-3.7-3.7-4.6-23.9-1.7-40c1.3-6.8,3.6-15.3,6.6-18.5
		c16.6-15.3,2.9-44.1,23.6-47.1c13.2,0.1,30.2,0.2,45.7,0.2c15.4,0,32.5-0.1,45.7-0.2c20.7,3,7,31.8,23.6,47.1
		c3,3.2,5.3,11.7,6.6,18.5c2.9,16.1,2.1,36.3-1.7,40C178,337.5,75,337.5,52.3,323.6z"/>
	<path fill-rule="evenodd" clip-rule="evenodd" fill="#A15641" d="M81.1,223.2c13.1,0.1,30.1,0.2,45.4,0.1c15.3,0,32.3,0,45.4-0.1
		c13.4,1.4,12.3,11,14.5,20.5c-1.8-12.2-1.5-23.8-14.2-25.7c-13.2,0.1-30.2,0.2-45.7,0.2c-15.4,0-32.5-0.1-45.7-0.2
		c-12.7,1.9-12.4,13.5-14.2,25.7C68.8,234.1,67.6,224.6,81.1,223.2z"/>
	<g>
		<path fill-rule="evenodd" clip-rule="evenodd" fill="#BBBDBF" d="M149,244.9c3.5,0,6.4-3.9,6.4-8.6c0-4.7-2.9-8.6-6.4-8.6
			c-3.5,0-6.4,3.9-6.4,8.6C142.6,241,145.4,244.9,149,244.9z"/>
		<path fill-rule="evenodd" clip-rule="evenodd" fill="#231F20" d="M149,242c2.3,0,4.2-2.5,4.2-5.7c0-3.1-1.9-5.7-4.2-5.7
			c-2.3,0-4.2,2.5-4.2,5.7C144.8,239.4,146.6,242,149,242z"/>
	</g>
	<g>
		<path fill-rule="evenodd" clip-rule="evenodd" fill="#BBBDBF" d="M97.9,244.9c3.5,0,6.4-3.9,6.4-8.6c0-4.7-2.9-8.6-6.4-8.6
			c-3.5,0-6.4,3.9-6.4,8.6C91.5,241,94.4,244.9,97.9,244.9z"/>
		<path fill-rule="evenodd" clip-rule="evenodd" fill="#231F20" d="M97.9,242c2.3,0,4.2-2.5,4.2-5.7c0-3.1-1.9-5.7-4.2-5.7
			s-4.2,2.5-4.2,5.7C93.7,239.4,95.6,242,97.9,242z"/>
	</g>
	<path fill-rule="evenodd" clip-rule="evenodd" fill="#A15641" d="M94.8,235.5c1.2,2.3,4.2,2.5,6.4-0.1c-5.1-51,7.3-99,23.7-96
		c14.8-0.5,24,47.6,20.5,95.4c2.3,3.4,5.7,3.4,6.9,0.4c3.5-55.8-9.6-105.3-28.1-103.2C103.7,130.7,88.9,181.2,94.8,235.5L94.8,235.5
		z"/>
	<g>
		<defs>
			<path id="SVGID_1_" d="M94.8,235.5c1.2,2.3,4.2,2.5,6.4-0.1c-5.1-51,7.3-99,23.7-96c14.8-0.5,24,47.6,20.5,95.4
				c2.3,3.4,5.7,3.4,6.9,0.4c3.5-55.8-9.6-105.3-28.1-103.2C103.7,130.7,88.9,181.2,94.8,235.5L94.8,235.5z"/>
		</defs>
		<clipPath id="SVGID_2_">
			<use xlink:href="#SVGID_1_"  overflow="visible"/>
		</clipPath>
		<g clip-path="url(#SVGID_2_)">
			<path fill-rule="evenodd" clip-rule="evenodd" fill="#8D4D39" d="M99,236.2c1.1,2.2,3.6,2.4,5.5-0.1
				c-4.4-49.1,6.2-95.3,20.3-92.4c12.7-0.4,20.6,45.8,17.5,91.9c1.9,3.3,4.9,3.3,5.9,0.4c3-53.8-8.2-101.4-24.1-99.4
				C106.6,135.4,93.9,184,99,236.2L99,236.2z"/>
		</g>
	</g>
	<path fill-rule="evenodd" clip-rule="evenodd" fill="#C96C38" d="M49.5,291.5c-0.3,3.3-0.5,6.7-0.6,10c0.3,0.6,0.6,1.1,1,1.5
		c23.6,13.9,130.4,13.9,154,0c0.1-0.1,0.1-0.1,0.2-0.2c0-3.6-0.2-7.4-0.6-11.2C179.8,305.4,73.1,305.4,49.5,291.5z"/>
	<path fill-rule="evenodd" clip-rule="evenodd" fill="#E6E7E8" d="M204.3,303.2c0,0,0-0.1,0-0.1c0-0.8,0-1.6-0.1-2.4
		c0-0.1,0-0.3,0-0.4c0-0.8-0.1-1.6-0.1-2.4c0-0.1,0-0.3,0-0.4c0-0.8-0.1-1.7-0.2-2.5c0-0.1,0-0.2,0-0.2c-0.1-0.8-0.1-1.7-0.2-2.5
		c0,0,0-0.1,0-0.1l0,0c-0.3-2.7-0.6-5.3-1.1-7.9c-1.3-6.8-3.6-15.3-6.6-18.5c-3-2.8-5.1-6.1-6.5-9.6
		c-32.3,23.3-75.2,37.5-122.4,37.5c-5.9,0-11.7-0.2-17.4-0.7c0,0.5-0.1,0.9-0.1,1.4c0,0.2,0,0.3,0,0.5c-0.1,0.7-0.1,1.5-0.2,2.2
		c0,0.1,0,0.3,0,0.4c0,0.7-0.1,1.3-0.1,2c0,0.1,0,0.2,0,0.3c0,0.7-0.1,1.4-0.1,2.2c0,0.1,0,0.1,0,0.2c0,0,0,0,0,0
		c-0.2,10.5,1,19.8,3.4,22.1c22.7,13.9,125.7,13.9,148.4,0C203.3,321.8,204.5,313.2,204.3,303.2
		C204.3,303.2,204.3,303.2,204.3,303.2z"/>
</g>
<g>
	<g>
		<g>
			<rect x="224.5" y="109.5" fill-rule="evenodd" clip-rule="evenodd" fill="#929497" width="4.8" height="55.7"/>
			<rect x="223.7" y="156.3" fill-rule="evenodd" clip-rule="evenodd" fill="#808184" width="6.4" height="39.8"/>
		</g>
		<g>
			<rect x="264.9" y="109.5" fill-rule="evenodd" clip-rule="evenodd" fill="#929497" width="4.8" height="55.7"/>
			<rect x="264.1" y="156.3" fill-rule="evenodd" clip-rule="evenodd" fill="#808184" width="6.4" height="39.8"/>
		</g>
		
			<path fill-rule="evenodd" clip-rule="evenodd" fill="#231F20" stroke="#231F20" stroke-width="0.5" stroke-miterlimit="2.6131" d="
			M227.7,96.2h38.7c2,0,3.7,1.8,3.7,3.9v3v1v10.3h-5.8v-7.9c-3.4,1.5-9.9,2.5-17.3,2.5c-7.4,0-13.9-1-17.3-2.5v7.9H224v-10.3v-1v-3
			C224,98,225.6,96.2,227.7,96.2z"/>
	</g>
	<g>
		<g>
			<path fill-rule="evenodd" clip-rule="evenodd" fill="#231F20" d="M286.6,346.2c3,0,5.5-2.6,5.5-5.8c0-3.2-2.5-5.8-5.5-5.8
				c-3,0-5.5,2.6-5.5,5.8C281.1,343.6,283.6,346.2,286.6,346.2z"/>
			<rect x="283.3" y="330" fill-rule="evenodd" clip-rule="evenodd" fill="#404041" width="6.5" height="12.3"/>
		</g>
		<g>
			<path fill-rule="evenodd" clip-rule="evenodd" fill="#231F20" d="M207.6,346.2c3,0,5.5-2.6,5.5-5.8c0-3.2-2.5-5.8-5.5-5.8
				c-3,0-5.5,2.6-5.5,5.8C202.1,343.6,204.6,346.2,207.6,346.2z"/>
			<rect x="204.4" y="330" fill-rule="evenodd" clip-rule="evenodd" fill="#404041" width="6.5" height="12.3"/>
		</g>
	</g>
	<g>
		<path fill-rule="evenodd" clip-rule="evenodd" fill="#58595B" d="M247.1,184.5c-0.4,0-0.8,0-1.3,0c-1.9,0-3.7-0.2-5.6-0.2
			c-1.6,0-3.3,0.1-4.8,0.7c-1.9,0.7-3.4,1.8-4.9,3.2c-1.2,1.1-2.2,2.4-3.3,3.5c-1.3,1.4-2.7,2.7-4.2,3.8c-1.4,1-3,1.9-4.6,2.2
			c-0.6,0.1-1.4,0.2-2,0l-1-0.2l0.6-3.6h0.9c0.9,0,1.8-0.2,2.6-0.6c1.4-0.7,2.6-2,3.7-3.2c1.5-1.7,3-3.3,4.7-4.7
			c5.6-4.7,12.3-6.1,19.2-6.1c7,0,13.6,1.3,19.2,6.1c1.7,1.4,3.2,3.1,4.7,4.7c1.1,1.2,2.3,2.5,3.7,3.2c0.8,0.4,1.7,0.6,2.6,0.6h0.9
			l0.6,3.6l-1,0.2c-0.6,0.1-1.4,0.1-2,0c-1.7-0.3-3.3-1.2-4.6-2.2c-1.5-1.1-2.9-2.4-4.2-3.8c-1.1-1.2-2.2-2.4-3.3-3.5
			c-1.5-1.4-3-2.5-4.9-3.2c-1.5-0.6-3.2-0.7-4.8-0.7c-1.9,0-3.7,0.2-5.6,0.2C248,184.5,247.5,184.5,247.1,184.5z"/>
		<path fill-rule="evenodd" clip-rule="evenodd" fill="#404041" d="M216.1,193.8c8.7,0,8.4-14.5,31.1-14.6
			c22.7,0.1,22.4,14.6,31.1,14.6l0.3,1.6c0,0-2.3,0.5-6-2.1c-5.4-3.8-7.2-8.6-13-10.6c-3.7-1.3-8.1-0.4-12.4-0.5
			c-4.3,0.1-8.7-0.8-12.4,0.5c-5.8,2.1-7.6,6.9-13,10.6c-3.7,2.6-6,2.1-6,2.1L216.1,193.8z"/>
	</g>
	<path fill-rule="evenodd" clip-rule="evenodd" fill="#C96C38" d="M198.5,191.5h97.2c8.2,0,15,7.1,15,15.9v111.8
		c0,8.7-6.7,15.9-15,15.9h-97.2c-8.2,0-15-7.1-15-15.9V207.4C183.5,198.7,190.3,191.5,198.5,191.5z"/>
	<path fill-rule="evenodd" clip-rule="evenodd" fill="#D87942" d="M201.6,220.6H293c2.6,0,4.8,2.3,4.8,5.1v90.9
		c0,2.8-2.2,5.1-4.8,5.1h-91.4c-2.6,0-4.8-2.3-4.8-5.1v-90.9C196.8,222.9,199,220.6,201.6,220.6z"/>
	<path fill-rule="evenodd" clip-rule="evenodd" fill="#FFFFFF" d="M198.8,245.9c0,0.1,0.1,0.3,0.1,0.5c0,1.1-0.8,1.9-1.8,1.9
		c-1,0-1.8-0.9-1.8-1.9c0-0.2,0-0.3,0.1-0.5l0.5-4.7c0-0.7,0.6-1.3,1.2-1.3c0.7,0,1.2,0.6,1.2,1.3L198.8,245.9L198.8,245.9z
		 M197,245.4c-0.6,0-1.1,0.5-1.1,1.1c0,0.6,0.5,1.1,1.1,1.1c0.6,0,1.1-0.5,1.1-1.1C198.1,245.9,197.6,245.4,197,245.4z"/>
	<path fill-rule="evenodd" clip-rule="evenodd" fill="#E7864F" d="M199.6,219.7h95.5c2.8,0,5,2.4,5,5.3v13.5
		c-6.8,12.3-27.9,21.3-52.7,21.3c-24.9,0-45.9-9-52.7-21.3v-13.5C194.6,222.1,196.8,219.7,199.6,219.7z"/>
	<path fill-rule="evenodd" clip-rule="evenodd" fill="#58595B" d="M247.5,257.7c2.1,0,3.8-1.3,3.8-3c0-1.6-1.7-3-3.8-3
		c-2.1,0-3.8,1.3-3.8,3C243.7,256.4,245.4,257.7,247.5,257.7z"/>
	<path fill-rule="evenodd" clip-rule="evenodd" fill="#E6E7E8" d="M210.7,314.3c-9.4,0-18.5-1.5-27.2-4.4v9.4
		c0,8.7,6.7,15.9,15,15.9h5.9v0.6c-1.3,1.1-2.2,2.8-2.2,4.7c0,3.2,2.5,5.8,5.5,5.8c3,0,5.5-2.6,5.5-5.8c0-1.9-0.9-3.6-2.2-4.7v-0.6
		h72.5v0.6c-1.3,1.1-2.2,2.8-2.2,4.7c0,3.2,2.5,5.8,5.5,5.8c3,0,5.5-2.6,5.5-5.8c0-1.9-0.9-3.6-2.2-4.7v-0.6h5.9
		c8.2,0,15-7.1,15-15.9v-92C295,278.2,256.2,314.3,210.7,314.3z"/>
</g>
<g>
	<path fill-rule="evenodd" clip-rule="evenodd" fill="#E76234" d="M342.3,218.2L342.3,218.2c-36.1,0.1-70,0.2-71.9,0.4
		c-4.1,0.3-3,7.4-3,7.4s12.5,96.4,13.3,101.9c0.8,5.5,2.2,6.4,3.4,6.9c1.1,0.5,27.1,1.2,58.2,1.8h0c31.2-0.6,57.1-1.3,58.2-1.8
		c1.2-0.6,2.7-1.4,3.4-6.9c0.8-5.5,13.3-101.9,13.3-101.9s1-7.2-3-7.4C412.3,218.5,378.4,218.3,342.3,218.2z"/>
	<g>
		<defs>
			<path id="SVGID_3_" d="M342.3,218.2L342.3,218.2c-36.1,0.1-70,0.2-71.9,0.4c-4.1,0.3-3,7.4-3,7.4s12.5,96.4,13.3,101.9
				c0.8,5.5,2.2,6.4,3.4,6.9c1.1,0.5,27.1,1.2,58.2,1.8h0c31.2-0.6,57.1-1.3,58.2-1.8c1.2-0.6,2.7-1.4,3.4-6.9
				c0.8-5.5,13.3-101.9,13.3-101.9s1-7.2-3-7.4C412.3,218.5,378.4,218.3,342.3,218.2z"/>
		</defs>
		<clipPath id="SVGID_4_">
			<use xlink:href="#SVGID_3_"  overflow="visible"/>
		</clipPath>
		<g clip-path="url(#SVGID_4_)">
			<g>
				<polygon fill-rule="evenodd" clip-rule="evenodd" fill="none" points="301.7,344.9 309.8,345.9 292,209 284.9,209.3 				"/>
				<polygon fill-rule="evenodd" clip-rule="evenodd" fill="#F8A98E" points="382.9,344.9 374.8,345.9 392.6,209 399.7,209.3 				
					"/>
			</g>
		</g>
	</g>
	<path fill-rule="evenodd" clip-rule="evenodd" fill="#CA5028" d="M304,215.1c-0.2,2.1-1.5,27.8,0.2,28.4c1.7,0.6,9.6,0.9,10.2-1.1
		c0.6-2,0.9-25.9,0.1-28c-0.8-2.1-2.4-5.6-2.4-6.6c0-65.5,60.3-65.5,60.3,0c0,1-1.6,4.5-2.4,6.6c-0.8,2.1-0.5,26.1,0.1,28
		c0.6,2,8.5,1.7,10.2,1.1c1.7-0.6,0.4-26.3,0.2-28.4c0,0-2-4.8-2.5-6.9c-0.5-2.2-0.6-18.9-3.2-27.7c-11.3-38.8-53.9-38.8-65.3,0
		c-2.6,8.8-2.7,25.5-3.2,27.7C306,210.3,304,215.1,304,215.1z"/>
	<path fill-rule="evenodd" clip-rule="evenodd" fill="#CA5028" d="M365.1,215.1c-1.5,19.2-10.9,34-22.3,34
		c-11.4,0-20.8-14.8-22.3-34H365.1z"/>
	<path fill-rule="evenodd" clip-rule="evenodd" fill="#F8A98E" d="M342.8,242c2.2,0,4.1-2.3,4.1-5c0-2.8-1.8-5-4.1-5
		c-2.2,0-4.1,2.3-4.1,5C338.7,239.8,340.6,242,342.8,242z"/>
	<path fill-rule="evenodd" clip-rule="evenodd" fill="#E6E7E8" d="M304.9,316.9c-8.9,0-17.6-0.9-26.1-2.7c1,7.4,1.7,12.6,1.8,13.8
		c0.8,5.5,2.2,6.4,3.4,6.9c1.1,0.5,27.1,1.2,58.2,1.8h0c31.2-0.6,57.1-1.3,58.2-1.8c1.2-0.6,2.7-1.4,3.4-6.9
		c0.5-3.4,5.5-42.3,9.3-71C389.8,293.1,350.1,316.9,304.9,316.9z"/>
</g>
<g>
	<path fill-rule="evenodd" clip-rule="evenodd" fill="#EE933B" d="M425.2,229.3c0,0-0.8,5.7-0.9,14.3c-0.2,14.4,0.5,36,2.8,45.1
		c3.7,14.4,16.7,22.5,16.7,22.5l1.4-6.7c-20.6-7.9-14.2-53.9-13.3-75.4L425.2,229.3z"/>
	<g>
		<path fill-rule="evenodd" clip-rule="evenodd" fill="#20293F" d="M452.7,164c0,0-3-1-8,11.2c-5,12.3-8.5,54.2-9.2,56.3
			c-0.7,2.1-4.4,12.2-4.4,12.2s-6.7,0.4-6.8-0.1c-0.1-0.6-3.9-10.6-4.1-14c-0.2-3.4,8.8-47.7,8.9-48.5c0.1-0.8,2.6-11.3,5.7-14.9
			C437.9,162.6,452.4,164,452.7,164z"/>
		<path fill="none" stroke="#373334" stroke-width="0.5" stroke-miterlimit="2.6131" d="M452.7,164c0,0-3-1-8,11.2
			c-5,12.3-8.5,54.2-9.2,56.3c-0.7,2.1-4.4,12.2-4.4,12.2s-6.7,0.4-6.8-0.1c-0.1-0.6-3.9-10.6-4.1-14c-0.2-3.4,8.8-47.7,8.9-48.5
			c0.1-0.8,2.6-11.3,5.7-14.9C437.9,162.6,452.4,164,452.7,164z"/>
	</g>
	<path fill-rule="evenodd" clip-rule="evenodd" fill="#33436A" d="M454.3,174.6c-8.6-6.7-19.4-18-25.2,6.4
		c0.8-6.7,3.3-11.9,5.7-16.1c2.4-4.2,6.3-4.5,13.5-4.4c7.2,0.1,8.7-0.3,11.6,2.5c2.8,2.8,10.4,10.6,9.1,11.4
		C467.5,175.3,454.3,174.6,454.3,174.6z"/>
	<path fill-rule="evenodd" clip-rule="evenodd" fill="#EE933B" d="M389,240.6c0,0-0.6,5.9-0.5,14.7c0.2,14.8,1.6,36.9,4.3,46.1
		c4.2,14.6,17.9,22.2,17.9,22.2l1.3-6.9c-21.4-7-16.2-54.5-16.1-76.6L389,240.6z"/>
	<g>
		<path fill-rule="evenodd" clip-rule="evenodd" fill="#20293F" d="M415.1,172.2c0,0-3.2-0.9-7.9,11.9c-4.7,12.8-7,56-7.6,58.2
			c-0.6,2.1-4.1,12.7-4.1,12.7s-6.8,0.8-6.9,0.2c-0.1-0.6-4.3-10.7-4.6-14.2c-0.4-3.5,7.5-49.3,7.5-50.2c0.1-0.9,2.3-11.7,5.4-15.5
			C399.8,171.5,414.7,172.2,415.1,172.2z"/>
		<path fill="none" stroke="#373334" stroke-width="0.5" stroke-miterlimit="2.6131" d="M415.1,172.2c0,0-3.2-0.9-7.9,11.9
			c-4.7,12.8-7,56-7.6,58.2c-0.6,2.1-4.1,12.7-4.1,12.7s-6.8,0.8-6.9,0.2c-0.1-0.6-4.3-10.7-4.6-14.2c-0.4-3.5,7.5-49.3,7.5-50.2
			c0.1-0.9,2.3-11.7,5.4-15.5C399.8,171.5,414.7,172.2,415.1,172.2z"/>
	</g>
	<path fill-rule="evenodd" clip-rule="evenodd" fill="#33436A" d="M417,183c-9.1-6.4-20.5-17.5-25.6,7.9c0.6-6.9,3-12.4,5.4-16.8
		c2.4-4.4,6.3-5,13.7-5.2c7.4-0.2,8.9-0.8,11.9,1.9c3,2.7,11.1,10.4,9.7,11.3C430.6,183,417,183,417,183z"/>
	<path fill-rule="evenodd" clip-rule="evenodd" fill="#20293F" d="M424.9,173.4c-3.2,1.4-7.4,2.7-13,23c-5.6,20.3,1.6,79.9,1.4,91.8
		c-0.2,11.9-4,19.1-4.2,28.6c-0.2,9.5,5.6,14.6,9.8,16.2c4.2,1.6,47.2,2.2,53.9-5.4c6.7-7.7,7.7-18.7,7.7-25
		c0-6.3,3.2-80.6,0.4-100.4C475.2,162.3,450.1,172.1,424.9,173.4z"/>
	<path fill-rule="evenodd" clip-rule="evenodd" fill="#EE933B" d="M434.8,208.1c-3.4,0.7-6.3,12.6-7.9,20.7
		c-1.6,8.1-1.6,65.5-0.2,71.1c1.4,5.6,4.7,7.4,12.3,9.9c7.5,2.5,39.4-4.8,41.5-7.3c2.1-2.4,5-74.3,2.5-81
		c-2.5-6.7-19-14.1-26.2-13.9C449.6,207.9,434.8,208.1,434.8,208.1z"/>
	<path fill-rule="evenodd" clip-rule="evenodd" fill="#1B5779" d="M468.7,311.9c0.7-6.5,4.2-27.3,4-60.8c0.5,0,8.3-0.5,8.3-0.5
		c-0.9,17.7-0.7,43.5-4,60.1L468.7,311.9z"/>
	<path fill-rule="evenodd" clip-rule="evenodd" fill="#303B60" d="M470.5,224.9c2.2,12.5,1.2,21.3,2.7,31.3c0.6,3.9,4.2,8.2,4.6,8.1
		c0.4-0.2,2.9-8.6,2.9-9.3c0.4-5.1,0-16.4-1.8-31L470.5,224.9z"/>
	<path fill-rule="evenodd" clip-rule="evenodd" fill="#AEB0B2" d="M472.4,238.7h8c0.4,0,0.8,0.5,0.8,1l0.2,9.9c0,0.6-0.3,1-0.8,1h-8
		c-0.4,0-0.8-0.5-0.8-1l-0.2-9.9C471.7,239.2,472,238.7,472.4,238.7L472.4,238.7z M473.1,239.8c-0.4,0-0.7,0.4-0.6,0.8l0.2,8.2
		c0,0.5,0.3,0.8,0.7,0.8h6.6c0.4,0,0.6-0.4,0.6-0.8l-0.2-8.2c0-0.5-0.3-0.8-0.7-0.8H473.1z"/>
	<path fill-rule="evenodd" clip-rule="evenodd" fill="#1B5779" d="M439.1,313.1c0.8-6.5,4.3-26.1,4.9-59.7c0.5,0,8.3-0.5,8.3-0.5
		c-1.3,17.7-1.6,43.5-5.3,60.1L439.1,313.1z"/>
	<path fill-rule="evenodd" clip-rule="evenodd" fill="#303B60" d="M442.4,227.1c1.9,12.5,0.8,21.3,2,31.3c0.5,3.9,4,8.2,4.4,8.1
		c0.4-0.2,3.1-8.6,3.1-9.3c0.5-5.1,0.3-16.4-1.1-31L442.4,227.1z"/>
	<path fill-rule="evenodd" clip-rule="evenodd" fill="#273255" d="M414.5,187.9c0.2,2.1,1.9-6.3,9.6-1.5c7.7,4.7,3.9,28.2,9.3,40.2
		c5.6,12.2,43.5,16.9,49.5-5c2.3-8.3-1.4-31.3-5.6-38.5c-4.2-7.2-6.4-9.3-17.5-11.1C448.2,170.1,412.4,164,414.5,187.9z"/>
	<path fill-rule="evenodd" clip-rule="evenodd" fill="#303B60" d="M414.7,187.4c1.6-0.6,2.1-9.3,9.8-4.6c7.7,4.7,4.9,29.7,10.4,41.6
		c5.6,12.2,41.9,16.7,47.9-5.2c2.3-8.3-1.4-31.3-5.6-38.5c-4.2-7.2-6.4-9.3-17.5-11.1C448,167.8,414.2,163.4,414.7,187.4z"/>
	<path fill-rule="evenodd" clip-rule="evenodd" fill="#AEB0B2" d="M444,241h8c0.4,0,0.8,0.5,0.8,1v9.9c0,0.6-0.4,1-0.8,1h-8
		c-0.4,0-0.8-0.5-0.8-1V242C443.2,241.4,443.6,241,444,241L444,241z M444.7,242c-0.4,0-0.7,0.4-0.7,0.8v8.2c0,0.5,0.3,0.8,0.7,0.8
		h6.6c0.4,0,0.7-0.4,0.7-0.8v-8.2c0-0.5-0.3-0.8-0.7-0.8H444.7z"/>
	<path fill-rule="evenodd" clip-rule="evenodd" fill="#1C70A3" d="M410.1,323.5c1.8,5.3,5.7,8.3,8.8,9.5c4.2,1.6,47.2,2.2,53.9-5.4
		c4.5-5.2,6.4-11.9,7.2-17.6c-2.2-4.2-1.3-1-5,0.4c-3.7,1.4-37.2,2.9-41.2,2.9s-9.8,7.2-15.3,9.7C415.8,324.1,412.7,324,410.1,323.5
		z"/>
	<g>
		<path fill-rule="evenodd" clip-rule="evenodd" fill="#E8E9EA" d="M482.9,221.6c0.8-3,0.9-8,0.4-13.4c-0.6-10-3.3-22.3-6.2-27.3
			c-2.9-5-4.9-7.6-9.5-9.3c-2.1-2.8-6-6.7-7.8-8.5c-2.8-2.8-4.4-2.3-11.6-2.5c-1,0-2,0-2.9,0c14.6,15.6,24.4,43.4,24.4,75.1
			c0,48.9-23.2,88.5-51.8,88.5c-2.9,0-5.7-0.4-8.4-1.2c0.1,0.1,0.3,0.2,0.4,0.2c0,0.1,0.1,0.2,0.1,0.3c0,0,0,0,0,0c0,0,0,0.1,0,0.1
			c0.1,0.3,0.2,0.6,0.3,0.9c0,0,0,0,0,0c0.1,0.3,0.2,0.5,0.4,0.8c0,0.1,0.1,0.1,0.1,0.2c0.3,0.5,0.5,1,0.9,1.5
			c0,0.1,0.1,0.1,0.1,0.2c0.1,0.2,0.3,0.4,0.4,0.7c0,0,0,0,0,0c0.2,0.2,0.3,0.4,0.5,0.6c0,0,0.1,0.1,0.1,0.1
			c0.2,0.2,0.3,0.4,0.5,0.5c0,0,0,0,0.1,0.1c0.2,0.2,0.4,0.4,0.5,0.6c0,0,0.1,0.1,0.1,0.1c0.2,0.2,0.3,0.3,0.5,0.4
			c0,0,0.1,0.1,0.1,0.1c0.2,0.2,0.4,0.3,0.5,0.5c0,0,0.1,0.1,0.1,0.1c0.2,0.1,0.3,0.2,0.5,0.4c0,0,0.1,0.1,0.1,0.1
			c0.2,0.1,0.4,0.3,0.6,0.4c0,0,0.1,0,0.1,0.1c0.2,0.1,0.3,0.2,0.5,0.3c0,0,0.1,0.1,0.1,0.1c0.2,0.1,0.4,0.2,0.5,0.3c0,0,0,0,0.1,0
			c0.2,0.1,0.3,0.2,0.5,0.2c0,0,0.1,0,0.1,0.1c0.2,0.1,0.4,0.1,0.5,0.2c4.2,1.6,47.2,2.2,53.9-5.4c0.4-0.4,0.7-0.9,1.1-1.3
			c0.1-0.1,0.2-0.2,0.3-0.3c0.3-0.4,0.6-0.8,0.9-1.3c0,0,0-0.1,0.1-0.1c0.3-0.5,0.6-0.9,0.8-1.4c0.1-0.1,0.1-0.2,0.2-0.4
			c0.2-0.4,0.5-0.9,0.7-1.3c0-0.1,0.1-0.1,0.1-0.2c0.2-0.5,0.4-1,0.6-1.5c0.1-0.1,0.1-0.3,0.2-0.4c0.2-0.4,0.3-0.9,0.5-1.3
			c0-0.1,0.1-0.2,0.1-0.2c0.2-0.5,0.3-1,0.5-1.5c0-0.1,0.1-0.3,0.1-0.4c0.1-0.4,0.2-0.8,0.3-1.3c0-0.1,0-0.2,0.1-0.3
			c0.1-0.5,0.2-1,0.3-1.5c0-0.1,0-0.3,0.1-0.4c0.1-0.4,0.2-0.8,0.2-1.2c0-0.1,0-0.2,0.1-0.3c0.1-0.4,0.1-0.8,0.2-1.2c0,0,0,0,0,0
			c0.4-2.8,0.5-5.3,0.5-7.3C482.5,300.2,485.4,228.3,482.9,221.6z"/>
	</g>
</g>
<path fill="#232323" d="M649.1,143.7c0,0-2.2,54.6-1.1,63.5c1,9,5.3,27.6,2.2,34.8c-3.1,7.2-36.2,10.9-36.2,10.9l-30.6,5.9
	l-25.1-1.7l-18.8-7.7l-2.4-6.4c0,0,1-10.1,6.8-12.3c5.9-2.1,25.6-3.4,40.2-21.7c14.5-18.3,13.2-21.3,14.9-27.3
	c1.7-6,2.1-27.3,2.1-30.7c0-3.4,1-7.7,4.8-7.7"/>
<path fill="#444444" d="M643.6,143.6c-1.3,14.8-4.6,56.3-2.7,65c2,9.2,5,25.6,1.5,38.5c3.9-1.4,6.8-3.1,7.7-5
	c3.1-7.2-1.2-25.9-2.2-34.8c-1-9,1.1-63.5,1.1-63.5"/>
<path fill="#444444" d="M612.9,241.5c-5.9-17.3-36.7-10-36.7-10l-3.2-12c-12.1,8.5-24.6,9.6-29,11.2c-5.9,2.1-6.8,12.3-6.8,12.3
	l2.4,6.4l18.8,7.7l25.1,1.7l30.6-5.9c0,0,0.6-0.1,1.7-0.2C615,248.9,614.1,245.1,612.9,241.5z"/>
<path d="M586.2,217.9c0.9,1.1,0.9,2.8,0.1,3.9c-0.9,1.1-2.3,1.1-3.2,0.1c-0.9-1.1-0.9-2.8-0.1-3.9
	C583.9,216.8,585.4,216.8,586.2,217.9z"/>
<path d="M591.1,211.7c0.9,1.1,0.9,2.8,0.1,3.9c-0.9,1.1-2.3,1.1-3.2,0.1c-0.9-1.1-0.9-2.8-0.1-3.9
	C588.8,210.6,590.2,210.6,591.1,211.7z"/>
<path d="M596,205.5c0.9,1.1,0.9,2.8,0.1,3.9c-0.9,1.1-2.3,1.1-3.2,0.1c-0.9-1.1-0.9-2.8-0.1-3.9C593.6,204.4,595.1,204.4,596,205.5z
	"/>
<path d="M600.8,199.3c0.9,1.1,0.9,2.8,0.1,3.9c-0.9,1.1-2.3,1.1-3.2,0.1c-0.9-1.1-0.9-2.8-0.1-3.9
	C598.5,198.2,599.9,198.2,600.8,199.3z"/>
<path d="M605.7,193.1c0.9,1.1,0.9,2.8,0.1,3.9c-0.9,1.1-2.3,1.1-3.2,0.1c-0.9-1.1-0.9-2.8-0.1-3.9C603.3,192,604.8,192,605.7,193.1z
	"/>
<ellipse cx="608.3" cy="170.1" rx="2.2" ry="2.8"/>
<ellipse cx="608.3" cy="161.5" rx="2.2" ry="2.8"/>
<ellipse cx="608.3" cy="152.9" rx="2.2" ry="2.8"/>
<path d="M614.8,141.7c-0.3,7.9,0.4,25.1,13,25.1c5.6,0,13.6,0,21.8,0c0.4-12.4,0.8-22.8,0.8-23"/>
<path d="M607.9,151.4l-8.2,0c0,0.8,0,1.8,0,3l8.2,0c0.7,0,1.2-0.7,1.2-1.5C609.1,152,608.6,151.4,607.9,151.4z"/>
<path d="M607.9,160l-8.4,0c0,1-0.1,2-0.1,3l8.5,0c0.7,0,1.2-0.7,1.2-1.5C609.1,160.7,608.6,160,607.9,160z"/>
<path d="M607.9,168.6l-8.8,0c-0.1,1-0.1,2-0.2,3l9,0c0.7,0,1.2-0.7,1.2-1.5C609.1,169.3,608.6,168.6,607.9,168.6z"/>
<path d="M596.1,187.6l6.9,8.2c0.5,0.6,1.2,0.6,1.7,0c0.5-0.6,0.4-1.5,0-2.1l-7.8-9.2C596.7,185.4,596.4,186.4,596.1,187.6z"/>
<path d="M592.3,195.1l5.8,6.9c0.5,0.6,1.2,0.6,1.7,0c0.5-0.6,0.4-1.5,0-2.1l-6.1-7.2C593.3,193.4,592.9,194.2,592.3,195.1z"/>
<path d="M593.3,208.2c0.5,0.6,1.2,0.6,1.7,0c0.5-0.6,0.4-1.5,0-2.1l-5.6-6.6c-0.5,0.7-1,1.4-1.6,2.2L593.3,208.2z"/>
<path d="M588.4,214.4c0.5,0.6,1.2,0.6,1.7,0c0.5-0.6,0.4-1.5,0-2.1l-5.4-6.5c-0.5,0.6-1,1.3-1.5,2c-0.1,0.1-0.1,0.1-0.1,0.2
	L588.4,214.4z"/>
<path d="M577.7,213.6l5.9,7c0.5,0.6,1.2,0.6,1.7,0s0.4-1.5,0-2.1l-5.6-6.7C579,212.4,578.3,213,577.7,213.6z"/>
<path fill="#C9C9C9" d="M650.2,242c1.1-2.5,1.3-6.3,1-10.6c-4.3,2.8-10.3,5.2-17.7,5.4c-13.2,0.4-12.2,2.9-49.1,8.6
	c-27.7,4.2-40.4-5.4-45-10.4c-1.9,3.6-2.3,7.9-2.3,7.9l2.4,6.4l18.8,7.7l25.1,1.7l30.6-5.9C614,252.9,647,249.3,650.2,242z"/>
<path fill="#232323" d="M652.5,242.4c0,0,0-1.4-2.3-1.7c-1.1,1.1-6.7,5-16.2,6.1c-9.5,1.1-22.2,2.2-33,4.7
	c-10.9,2.5-24,5.2-40.3,2.6c-16.3-2.5-23.8-11.5-23.8-11.5l-2.6,7.7c0,0,1.4,3,6.7,7.2l1.1-1.5l2.1,1.7l-0.7,1.6
	c0.8,0.5,1.6,1.1,2.6,1.7l1-1.9l2.3,1.3l-0.6,2.1c0.2,0.1,0.4,0.2,0.5,0.3c0.7,0.4,1.4,0.7,2.1,1l1-2.7l2.4,0.9l-0.4,2.9
	c0.8,0.3,1.7,0.5,2.6,0.7l0.8-2.8l2.5,0.6l-0.2,2.9c0.9,0.2,1.8,0.3,2.7,0.5l0.6-3l2.5,0.4l0,3c1,0.1,1.9,0.2,2.8,0.3l0.4-2.9
	l2.5,0.2l0.2,2.9c0.9,0,1.8,0.1,2.7,0.1l0.4-3.2l2.5,0.1l0.2,3.1c0.9,0,1.8,0,2.7,0l0.3-3l2.5,0l0.3,2.9c2-0.1,3.2-0.2,3.2-0.2
	l1.1-3.9l24.7-3.6c0,0,0,5.6,1.1,8.4c0.8,0,1.7,0,2.5,0l0.3-3.1h2.5l0.3,3.1c0.9,0,1.7,0,2.5,0l0.3-3.1l2.5,0l0.3,3
	c0.9,0,1.7-0.1,2.5-0.1l0.1-3l2.5-0.2l0.5,2.9c0.8-0.1,1.6-0.2,2.4-0.3l0-2.9l2.5-0.4l0.6,2.9c0.9-0.1,1.8-0.3,2.6-0.5l-0.3-3
	l2.4-0.7l0.9,3.1c0.8-0.2,1.6-0.4,2.3-0.7l-0.6-3.3l2.4-1l1.2,3.2c0.9-0.4,1.7-0.8,2.4-1.2l-1-2.9l2.2-1.5l1.5,2.5
	c0.9-0.8,1.1-1.3,1.1-1.3L652.5,242.4z"/>
<path fill="#5E5E5E" d="M629.4,250.7c7.1-0.6,17.8-3.4,23-8.7c-0.2-0.4-0.7-1.1-2.2-1.3c-1.1,1.1-6.7,5-16.2,6.1
	c-9.5,1.1-22.2,2.2-33,4.7c-10.9,2.5-24,5.2-40.3,2.6c-16.3-2.5-23.8-11.5-23.8-11.5l-0.8,2.5c2,2.5,6.4,6.7,15.4,9.5
	c12.7,3.9,24,5.6,35.8,2.8C599.1,254.6,620.1,251.5,629.4,250.7z"/>
<ellipse cx="622.7" cy="211.5" rx="11" ry="13.5"/>
<path fill="#232323" d="M631.4,211.5c0,5.9-3.9,10.7-8.7,10.7c-4.8,0-8.7-4.8-8.7-10.7c0-5.9,3.9-10.7,8.7-10.7
	C627.5,200.8,631.4,205.6,631.4,211.5z"/>
<g>
	<path fill="#AF1C4D" d="M534.5,313c-1.1-1.3-1.9-12.4,4.9-12.2c6.8,0.3,18.3,2.1,27.3-1.1c8.9-3.2,30.2-25.2,36.2-27.3
		c6-2.1,11.5,6.6,14.7,9.5c3.2,2.9,10.9,7.7,14.7,5.6c3.8-2.1,6.6-11.7,9.8-13.5c3.2-1.9,7.5,1.9,9.6,13.2c2.1,11.4,4,21.2-1.1,27.3
		c-5.1,6.1-30,6.6-30,6.6l-34.1,4.8l-35.6-1.1L534.5,313z"/>
	<path fill="#D83068" d="M651.6,287.3c-0.2-0.9-0.3-1.7-0.5-2.5c-10,3.5-26.6,12.7-27.7,35c2.1,0.3,4.1,0.5,6.1,0.8
		c7.7-0.7,18-2.4,21.1-6.1C655.7,308.5,653.7,298.7,651.6,287.3z"/>
	<g>
		<path fill="#D83068" d="M568.6,317.7C568.6,317.7,568.6,317.7,568.6,317.7c2.5,0,4.9-0.1,7.1-0.3l-7.5-13.3
			c-0.2,0.1-0.3,0.1-0.5,0.2c-2.2,0.8-4.6,1.3-7.4,1.7l6.6,11.7C567.5,317.7,568.1,317.7,568.6,317.7z"/>
	</g>
	<g>
		<path fill="#D83068" d="M587.7,315.4l-9.8-17.4c-2.3,1.8-4.4,3.3-6.4,4.4l8.2,14.5C582.5,316.5,585.2,316,587.7,315.4z"/>
	</g>
	<g>
		<path fill="#D83068" d="M598.9,312.1l-12.1-21.4c-2,1.7-4.1,3.5-6,5l10.6,18.7C594,313.7,596.5,312.9,598.9,312.1z"/>
	</g>
	<g>
		<path fill="#D83068" d="M610.1,308.7l-14.5-25.6c-1.8,1.5-3.7,3.1-5.4,4.6c-0.2,0.2-0.4,0.3-0.6,0.5l12.8,22.7
			C605,310,607.6,309.2,610.1,308.7z"/>
	</g>
	<path fill="#D8A7BA" d="M633.5,302.1c-18.6-2.1-28.7,8.3-55.3,14c-20,4.3-37.1-4-44.3-8.4c-0.2,2.5,0.2,4.7,0.7,5.3l16.4,11.9
		l35.6,1.1l34.1-4.8c0,0,24.9-0.5,30-6.6c2-2.4,2.9-5.3,3.2-8.7C648.1,304.3,641.3,303,633.5,302.1z"/>
	<path fill="#5FC8D3" d="M534.1,312.4c0,0,11.1,8.6,28.5,9.7c26.6,1.8,40-8.6,53.2-9.7c13.1-1.2,23.7,2.3,29,2.1
		c5.2-0.2,6.8-1.9,7.4-2.5c1.4,2.7,1.6,16.2,0.2,17.5c-1.4,1.4-8.2,4.7-20.9,4.1c-12.7-0.6-11.7-4.3-24.2-4.1
		c-12.5,0.2-27.9,5.3-36.9,4.3c-9-1-21.8-3.1-29.3-10.7C536,318.3,534.1,312.4,534.1,312.4z"/>
	<path fill="#91E0ED" d="M652.3,329.6c0.6-0.6,0.9-3.4,1-6.6c-2.8,2-7,3.4-13.5,2.5c-15.7-2.1-19-1-29.3,0.2
		c-4.2,0.5-9.7,2.6-14.7,5c3.9-0.6,7.7-1.1,11.3-1.1c12.5-0.2,11.6,3.5,24.2,4.1C644.1,334.2,650.9,330.9,652.3,329.6z"/>
	<path fill="#D83068" d="M553.7,332.9c-0.2,0-0.3,0-0.5-0.1c-5.6-1.9-10.1-4.5-13.4-7.9c-0.8-0.8-0.9-2.3-0.2-3.3
		c0.7-1,1.9-1.1,2.7-0.3c2.8,2.9,6.8,5.2,12,6.9c1,0.3,1.6,1.6,1.3,2.9C555.3,332.2,554.6,332.9,553.7,332.9z"/>
	<path fill="#D83068" d="M572.8,336.3c-1,0-1.8,0-2.7-0.1c-2.8-0.3-7-0.8-11.4-1.8c-1-0.2-1.7-1.5-1.5-2.7c0.2-1.3,1.2-2.1,2.2-1.9
		c4.2,1,8.4,1.5,11.1,1.8c1,0.1,2.1,0.1,3.4,0.1c0,0,0,0,0.1,0c1,0,1.9,1,1.9,2.3c0,1.3-0.8,2.4-1.8,2.4
		C573.6,336.3,573.2,336.3,572.8,336.3z"/>
	<path fill="#D83068" d="M580,335.7c-1,0-1.8-0.9-1.9-2.1c-0.1-1.3,0.6-2.4,1.7-2.6c2.7-0.4,5.6-0.9,8.6-1.4
		c2.3-0.4,4.7-0.8,7.1-1.2c1-0.2,2,0.7,2.1,2c0.1,1.3-0.6,2.5-1.6,2.6c-2.3,0.4-4.7,0.8-7,1.2c-3.1,0.5-5.9,1.1-8.7,1.5
		C580.1,335.7,580.1,335.7,580,335.7z"/>
	<path fill="#D83068" d="M630.3,335.9C630.2,335.9,630.2,335.9,630.3,335.9c-7-0.4-9.7-1.4-13.2-2.7c-0.7-0.2-1.4-0.5-2.1-0.8
		c-1-0.4-1.6-1.6-1.3-2.9c0.3-1.2,1.3-2,2.3-1.6c0.8,0.3,1.5,0.5,2.2,0.8c3.4,1.2,5.8,2.1,12.2,2.5c1,0.1,1.9,1.2,1.8,2.4
		C632.1,335,631.3,335.9,630.3,335.9z"/>
	<path fill="#D83068" d="M636.6,336c-1,0-1.9-1-1.9-2.3c0-1.3,0.8-2.4,1.8-2.4c6.9-0.3,11-1.8,12.9-2.6c1-0.5,2.1,0.1,2.5,1.4
		c0.4,1.2-0.1,2.6-1.1,3C648.7,334.1,644.2,335.7,636.6,336C636.7,336,636.7,336,636.6,336z"/>
	<path fill="#91E0ED" d="M632.7,317.9c11.1,1.4,16.8,2.3,20.3-2.4c-0.2-1.5-0.5-2.8-0.8-3.4c-0.6,0.6-2.2,2.3-7.4,2.5
		c-5.2,0.2-15.8-3.3-29-2.1c-13.1,1.2-26.6,11.5-53.2,9.7c-17.4-1.2-28.5-9.7-28.5-9.7s0.4,1.3,1.3,3.1c4.3,3.1,12.1,7.3,24.3,9.2
		c20.4,3.1,32.8-1,41.3-4.3C609.6,317.1,620.3,316.3,632.7,317.9z"/>
	<path fill="#91E0ED" d="M535.7,302.4c-2.7,3-2,9.7-1.2,10.6l2.6,1.9C538.2,308.3,536.9,304.5,535.7,302.4z"/>
	<path fill="#5FC8D3" d="M602.9,272.5c-5.8,2.1-26.1,22.9-35.5,27c2.1,1.7,5.6,1.1,9.1,0c4.9-1.6,26.4-17.4,35.2-23.7
		C609.1,273.3,606,271.4,602.9,272.5z"/>
	<path fill="#66042C" d="M581.1,293.8c0.5,1,0.2,2.3-0.6,2.8c-0.8,0.6-1.8,0.2-2.3-0.8c-0.5-1-0.2-2.3,0.6-2.8
		C579.6,292.4,580.6,292.8,581.1,293.8z"/>
	<path fill="#66042C" d="M585.8,290.4c0.5,1,0.2,2.3-0.6,2.8c-0.8,0.6-1.8,0.2-2.3-0.8c-0.5-1-0.2-2.3,0.6-2.8
		C584.3,289.1,585.4,289.4,585.8,290.4z"/>
	<path fill="#66042C" d="M590.6,287c0.5,1,0.2,2.3-0.6,2.8c-0.8,0.6-1.8,0.2-2.3-0.8c-0.5-1-0.2-2.3,0.6-2.8
		C589.1,285.7,590.1,286,590.6,287z"/>
	<path fill="#66042C" d="M595.3,283.6c0.5,1,0.2,2.3-0.6,2.8c-0.8,0.6-1.8,0.2-2.3-0.8c-0.5-1-0.2-2.3,0.6-2.8
		C593.8,282.3,594.9,282.6,595.3,283.6z"/>
	<path fill="#66042C" d="M600.1,280.2c0.5,1,0.2,2.3-0.6,2.8c-0.8,0.6-1.8,0.2-2.3-0.8c-0.5-1-0.2-2.3,0.6-2.8
		C598.6,278.9,599.6,279.2,600.1,280.2z"/>
	<path fill="#66042C" d="M604.8,276.8c0.5,1,0.2,2.3-0.6,2.8c-0.8,0.6-1.8,0.2-2.3-0.8c-0.5-1-0.2-2.3,0.6-2.8
		C603.3,275.5,604.3,275.8,604.8,276.8z"/>
	<path fill="#91E0ED" d="M599.7,272.5l2.7,5.6c0.2,0.4,0.5,0.6,0.8,0.6c0.2,0,0.3-0.1,0.5-0.2c0.5-0.3,0.6-1,0.3-1.6l-2.6-5.5
		C600.9,271.8,600.4,272.1,599.7,272.5z"/>
	<path fill="#91E0ED" d="M597.6,281.5c0.2,0.4,0.5,0.6,0.8,0.6c0.2,0,0.3-0.1,0.5-0.2c0.5-0.3,0.6-1,0.3-1.6l-2.6-5.6
		c-0.5,0.4-1,0.8-1.6,1.3L597.6,281.5z"/>
	<path fill="#91E0ED" d="M592.9,284.9c0.2,0.4,0.5,0.6,0.8,0.6c0.2,0,0.3-0.1,0.5-0.2c0.5-0.3,0.6-1,0.3-1.6l-2.5-5.2
		c-0.5,0.4-1,0.9-1.6,1.3L592.9,284.9z"/>
	<path fill="#91E0ED" d="M588.2,288.3c0.2,0.4,0.5,0.6,0.8,0.6c0.2,0,0.3-0.1,0.5-0.2c0.5-0.3,0.6-1,0.3-1.6l-2.2-4.8
		c-0.1,0.1-0.2,0.1-0.2,0.2c-0.4,0.4-0.9,0.8-1.3,1.1L588.2,288.3z"/>
	<path fill="#91E0ED" d="M583.4,291.7c0.2,0.4,0.5,0.6,0.8,0.6c0.2,0,0.3-0.1,0.5-0.2c0.5-0.3,0.6-1,0.3-1.6l-2-4.3
		c-0.5,0.4-1,0.9-1.6,1.3L583.4,291.7z"/>
	<path fill="#91E0ED" d="M578.7,295.1c0.2,0.4,0.5,0.6,0.8,0.6c0.2,0,0.3-0.1,0.5-0.2c0.5-0.3,0.6-1,0.3-1.6l-1.8-3.9
		c-0.5,0.4-1.1,0.9-1.6,1.3L578.7,295.1z"/>
</g>
<g>
	<path fill="#E8390A" d="M687.4,313c0,0,28.9-21,49-58.8c6.2,6.8,5.1,19.4,3.1,23.5c-2.1,4-47.6,39.9-47.6,39.9L687.4,313z"/>
	<path fill="#FC643A" d="M680.9,309.9c0,0,9.5,1.6,23.3-6.6c16.5-9.8,32.4-36.9,39.4-36.6c7,0.3,23.3,3.5,34.6-1.8
		c1.6,18.5-2.6,28-1.6,37.1c1,9.1,2.9,24.5-1,30.3c-3.9,5.8-72.4,1.8-72.4,1.8l-28.5-7.8L680.9,309.9z"/>
	<path fill="#F4502A" d="M743.6,266.7c-7-0.3-22.8,26.9-39.4,36.6c-13.8,8.1-23.3,6.6-23.3,6.6l-3,7.9l5.7,3.7
		c0,0,18.7,0.3,41.6-20.2c9.3-8.4,20.1-20.1,27.9-33.8C749.2,267.2,745.9,266.8,743.6,266.7z"/>
	<path fill="#F4502A" d="M776.8,303.2c-7.3,1.2-23.9,6.9-31.1,32.3c14.9,0,28.3-0.7,30-3.1C779.4,326.8,777.8,312.4,776.8,303.2z"/>
	<path fill="#E2E2E2" d="M665,315.6c0,0,4.2-7.5,21.3-6.3c2.5,7-1.7,18.1-3.8,18.4C677.3,325.6,665,315.6,665,315.6z"/>
	<path fill="#E2E2E2" d="M751.3,341.9c-8.7,0-17.9-0.2-26.7-0.3c-8.1-0.2-15.8-0.3-22.4-0.3c-19.5,0-41.1-12.3-42-12.8
		c0,0-0.7-8.8,4.9-12.8c1.6,0.7,20.2,11.5,37.2,11.5c6.7,0,14.4,0.1,22.6,0.3c19.3,0.4,50,0.4,52.9-0.8c4.5,4.9,1.2,14.1,1.2,14.1
		C772,341.6,762.1,341.9,751.3,341.9z"/>
	<path fill="#232323" d="M780.1,334.4c0-0.7,0-1.3-0.1-2c-12.8,1.6-36.6,1.3-57.6,1c-7.4-0.1-14.3-0.2-20.2-0.2
		c-18.1,0-39-11.9-39.3-12l-0.7,1.8c0.2,0.1,21.5,12.2,39.9,12.2c5.9,0,12.8,0.1,20.2,0.2c8.4,0.1,17.3,0.2,25.8,0.2
		C760.7,335.6,772.3,335.3,780.1,334.4z"/>
	<path fill="#C1C1C1" d="M665,315.6c-0.2-0.1-0.3-0.2-0.4-0.3c-5.4,4.2-4.8,12.8-4.8,13.1l0,0.3l0.2,0.1
		c0.8,0.5,19.1,10.8,37.2,12.6c0.3-2.5,1.2-11.7,1.5-14.5C682.8,325.7,666.5,316.3,665,315.6z"/>
	<path fill="#232323" d="M749.3,328.4c-9,0-18.2-0.1-24.5-0.2c-8.2-0.2-15.9-0.3-22.6-0.3c-7,0-19.1-1.9-36.5-11.1
		c-0.4-0.2-0.7-0.4-0.9-0.5c-0.3-0.1-0.5-0.6-0.4-1c0.1-0.4,0.5-0.6,0.8-0.4c0.2,0.1,0.5,0.2,0.9,0.5c17.2,9,29.1,10.9,36,10.9
		c6.7,0,14.4,0.1,22.6,0.3c20.4,0.4,50,0.4,52.7-0.7c0.3-0.1,0.7,0.1,0.8,0.5c0.1,0.4-0.1,0.8-0.4,1
		C775.9,328.1,762.8,328.4,749.3,328.4z"/>
	<path d="M706.4,309.1c0.7,1.2,0.5,2.8-0.4,3.7c-0.9,0.9-2.3,0.7-3-0.5c-0.7-1.2-0.5-2.8,0.4-3.7
		C704.3,307.7,705.7,307.9,706.4,309.1z"/>
	<path d="M712.4,303.4c0.7,1.2,0.5,2.8-0.4,3.7c-0.9,0.9-2.3,0.7-3-0.5c-0.7-1.2-0.5-2.8,0.4-3.7C710.3,302,711.7,302.3,712.4,303.4
		z"/>
	<path d="M718.5,297.8c0.7,1.2,0.5,2.8-0.4,3.7c-0.9,0.9-2.3,0.7-3-0.5c-0.7-1.2-0.5-2.8,0.4-3.7
		C716.4,296.4,717.7,296.6,718.5,297.8z"/>
	<path d="M724.5,292.2c0.7,1.2,0.5,2.8-0.4,3.7c-0.9,0.9-2.3,0.7-3-0.5c-0.7-1.2-0.5-2.8,0.4-3.7C722.4,290.8,723.8,291,724.5,292.2
		z"/>
	<path d="M730.5,286.5c0.7,1.2,0.5,2.8-0.4,3.7c-0.9,0.9-2.3,0.7-3-0.5c-0.7-1.2-0.5-2.8,0.4-3.7
		C728.5,285.1,729.8,285.4,730.5,286.5z"/>
	<path d="M736.6,280.9c0.7,1.2,0.5,2.8-0.4,3.7c-0.9,0.9-2.3,0.7-3-0.5c-0.7-1.2-0.5-2.8,0.4-3.7
		C734.5,279.5,735.8,279.7,736.6,280.9z"/>
	<path fill="#E2E2E2" d="M727.3,267.8c-0.5,0.8-1,1.5-1.5,2.3l7.9,12.9c0.4,0.6,1.1,0.8,1.6,0.3c0.5-0.5,0.6-1.4,0.2-2L727.3,267.8z
		"/>
	<path fill="#E2E2E2" d="M722.3,275.1c-0.5,0.7-1.1,1.5-1.6,2.2l7,11.4c0.4,0.6,1.1,0.8,1.6,0.3c0.5-0.5,0.6-1.4,0.2-2L722.3,275.1z
		"/>
	<path fill="#E2E2E2" d="M717,282c-0.6,0.7-1.1,1.4-1.7,2.1l6.3,10.2c0.4,0.6,1.1,0.8,1.6,0.3c0.5-0.5,0.6-1.4,0.2-2L717,282z"/>
	<path fill="#E2E2E2" d="M711.5,288.6c-0.6,0.7-1.2,1.3-1.7,2l5.8,9.4c0.4,0.6,1.1,0.8,1.6,0.3c0.5-0.5,0.6-1.4,0.2-2L711.5,288.6z"
		/>
	<path fill="#E2E2E2" d="M705.9,294.8c-0.6,0.6-1.2,1.3-1.8,1.9l5.5,8.9c0.4,0.6,1.1,0.8,1.6,0.3c0.5-0.5,0.6-1.4,0.2-2L705.9,294.8
		z"/>
	<path fill="#E2E2E2" d="M700,300.7c-0.6,0.6-1.3,1.2-1.8,1.8l5.4,8.7c0.4,0.6,1.1,0.8,1.6,0.3c0.5-0.5,0.6-1.4,0.2-2L700,300.7z"/>
	<ellipse fill="#C1C1C1" cx="757.9" cy="292.1" rx="10.7" ry="13.1"/>
	<ellipse fill="#E2E2E2" cx="757.9" cy="292.1" rx="8.5" ry="10.4"/>
	<ellipse fill="#FC643A" cx="757.9" cy="292.1" rx="5.4" ry="6.7"/>
</g>
<g>
	<path fill="#66042C" d="M743.9,201.8l0.2,57c0,0,9.9,1.1,10.6-2.8c0.7-3.9,6.8-60.4,8-65.7C763.9,185,743.9,201.8,743.9,201.8z"/>
	<path fill="#490323" d="M747.7,198.7c-2.2,1.8-3.8,3.1-3.8,3.1l0.2,57c0,0,0.8,0.1,2,0.1L747.7,198.7z"/>
	<path fill="#66042C" d="M761.3,186.6l-28.8,22.1l-27.8,36.8c0,0-42.4,0.3-44.6-1.2c-0.7-0.5-1-0.5-1.1-0.3
		c-0.2,0.4,0.1,2.2,0.9,3.5c1.8,2.7,5.8,5.5,11.1,7.7c6.2,2.6,21.3,8.2,35.3,3.8c5.6-1.7,10-11.4,13.5-18.3c0.8-1.6,1.7-3.3,2.6-5
		c0.5-0.9,1.1-1.9,1.7-3c4.8-8.7,12.4-19.8,29.6-27.4c4.1-2.1,6.8-5.6,8.4-9.6C764,188.6,761.3,186.6,761.3,186.6z"/>
	<path fill="#AF1C4D" d="M755,253.8c-3,2-7.7,2.3-10.9,2.1l0,2.9c0,0,9.9,1.1,10.6-2.8C754.8,255.7,754.9,254.9,755,253.8z"/>
	<path fill="#AF1C4D" d="M763,185.5c-0.4-5.2-4.5-18.5-7.5-27.8c-0.8-2.4-3.6-14.1-4.6-19.5c-2-0.4-8.4,2.5-13.3,11.7l-8.5-0.1
		c-8.3-7.1-17.2-10.7-29.1-7.2c1.9,6.6,1.5,21.9,1.5,21.9s0.5-14.8,0,0c-0.5,14.8-3.6,39.8-11.2,49.6c-9.2,12-16.2,15.3-25.3,18.3
		c-10.8,3.6-5.4,12.8-5.4,12.8s19,14,44,10.1c10.8-2.8,13.1-11.9,17.9-20.3c4.8-8.4,11.1-23.1,30.7-31.8
		C759.1,199.8,763.6,193.8,763,185.5z"/>
	<rect x="730" y="149.5" fill="#66042C" width="7" height="57.3"/>
	<path fill="#D83068" d="M763,185.5c-0.4-5.2-4.5-18.5-7.5-27.8c-0.2-0.6-0.5-1.7-0.8-3.1c-6.4,6.2-18.8,22.6-13.6,55.2
		c3.2-2.4,6.9-4.6,11.2-6.6C759.1,199.8,763.6,193.8,763,185.5z"/>
	<path fill="#D83068" d="M672.3,229.7c-2.3,1.1-4.7,1.9-7.2,2.8c-10.8,3.6-5.4,12.8-5.4,12.8s7.7,5.6,19.7,8.8
		C679.6,244.1,675.6,235.3,672.3,229.7z"/>
	<rect x="729.3" y="203.5" fill="#D83068" width="8.3" height="4"/>
	<g>
		<g>
			<rect x="731.5" y="149.7" fill="#ED892E" width="1.8" height="1.4"/>
			<rect x="731.5" y="151.8" fill="#ED892E" width="1.8" height="1.4"/>
			<rect x="731.5" y="153.8" fill="#ED892E" width="1.8" height="1.4"/>
			<rect x="731.5" y="155.9" fill="#ED892E" width="1.8" height="1.4"/>
			<rect x="731.5" y="157.9" fill="#ED892E" width="1.8" height="1.4"/>
			<rect x="731.5" y="160" fill="#ED892E" width="1.8" height="1.4"/>
			<rect x="731.5" y="162" fill="#ED892E" width="1.8" height="1.4"/>
			<rect x="731.5" y="164" fill="#ED892E" width="1.8" height="1.4"/>
			<rect x="731.5" y="166.1" fill="#ED892E" width="1.8" height="1.4"/>
			<rect x="731.5" y="168.1" fill="#ED892E" width="1.8" height="1.4"/>
			<rect x="731.5" y="170.2" fill="#ED892E" width="1.8" height="1.4"/>
			<rect x="731.5" y="172.2" fill="#ED892E" width="1.8" height="1.4"/>
			<rect x="731.5" y="174.2" fill="#ED892E" width="1.8" height="1.4"/>
			<rect x="731.5" y="176.3" fill="#ED892E" width="1.8" height="1.4"/>
			<rect x="731.5" y="178.3" fill="#ED892E" width="1.8" height="1.4"/>
			<rect x="731.5" y="180.4" fill="#ED892E" width="1.8" height="1.4"/>
			<rect x="731.5" y="182.4" fill="#ED892E" width="1.8" height="1.4"/>
			<rect x="731.5" y="184.4" fill="#ED892E" width="1.8" height="1.4"/>
			<rect x="731.5" y="186.5" fill="#ED892E" width="1.8" height="1.4"/>
			<rect x="731.5" y="188.5" fill="#ED892E" width="1.8" height="1.4"/>
			<rect x="731.5" y="190.6" fill="#ED892E" width="1.8" height="1.4"/>
			<rect x="731.5" y="192.6" fill="#ED892E" width="1.8" height="1.4"/>
			<rect x="731.5" y="194.6" fill="#ED892E" width="1.8" height="1.4"/>
			<rect x="731.5" y="196.7" fill="#ED892E" width="1.8" height="1.4"/>
			<rect x="731.5" y="198.7" fill="#ED892E" width="1.8" height="1.4"/>
			<rect x="731.5" y="200.8" fill="#ED892E" width="1.8" height="1.4"/>
			<rect x="733.6" y="150.4" fill="#ED892E" width="1.8" height="1.4"/>
			<rect x="733.6" y="152.5" fill="#ED892E" width="1.8" height="1.4"/>
			<rect x="733.6" y="154.5" fill="#ED892E" width="1.8" height="1.4"/>
			<rect x="733.6" y="156.6" fill="#ED892E" width="1.8" height="1.4"/>
			<rect x="733.6" y="158.6" fill="#ED892E" width="1.8" height="1.4"/>
			<rect x="733.6" y="160.7" fill="#ED892E" width="1.8" height="1.4"/>
			<rect x="733.6" y="162.7" fill="#ED892E" width="1.8" height="1.4"/>
			<rect x="733.6" y="164.7" fill="#ED892E" width="1.8" height="1.4"/>
			<rect x="733.6" y="166.8" fill="#ED892E" width="1.8" height="1.4"/>
			<rect x="733.6" y="168.8" fill="#ED892E" width="1.8" height="1.4"/>
			<rect x="733.6" y="170.9" fill="#ED892E" width="1.8" height="1.4"/>
			<rect x="733.6" y="172.9" fill="#ED892E" width="1.8" height="1.4"/>
			<rect x="733.6" y="174.9" fill="#ED892E" width="1.8" height="1.4"/>
			<rect x="733.6" y="177" fill="#ED892E" width="1.8" height="1.4"/>
			<rect x="733.6" y="179" fill="#ED892E" width="1.8" height="1.4"/>
			<rect x="733.6" y="181.1" fill="#ED892E" width="1.8" height="1.4"/>
			<rect x="733.6" y="183.1" fill="#ED892E" width="1.8" height="1.4"/>
			<rect x="733.6" y="185.1" fill="#ED892E" width="1.8" height="1.4"/>
			<rect x="733.6" y="187.2" fill="#ED892E" width="1.8" height="1.4"/>
			<rect x="733.6" y="189.2" fill="#ED892E" width="1.8" height="1.4"/>
			<rect x="733.6" y="191.3" fill="#ED892E" width="1.8" height="1.4"/>
			<rect x="733.6" y="193.3" fill="#ED892E" width="1.8" height="1.4"/>
			<rect x="733.6" y="195.3" fill="#ED892E" width="1.8" height="1.4"/>
			<rect x="733.6" y="197.4" fill="#ED892E" width="1.8" height="1.4"/>
			<rect x="733.6" y="199.4" fill="#ED892E" width="1.8" height="1.4"/>
			<rect x="733.6" y="201.5" fill="#ED892E" width="1.8" height="1.4"/>
		</g>
		<rect x="733.2" y="149.7" fill="#ED892E" width="0.5" height="53.1"/>
	</g>
	<rect x="731.5" y="149.7" fill="#ED892E" width="4" height="5"/>
	<rect x="732.8" y="150.3" fill="#FFB048" width="1.4" height="3.9"/>
	<path fill="#D83068" d="M737.1,164.8c0,5-1.6,7-3.6,7c-2,0-3.6-2-3.6-7s3.6-11.2,3.6-11.2S737.1,159.8,737.1,164.8z"/>
	<path fill="#FF5A99" d="M733.5,168.7c-1.6,0-1.9-2.7-1.9-4.2c0-2.3,1.1-4.9,1.9-6.5c0.8,1.6,1.9,4.3,1.9,6.5
		C735.3,166,735.1,168.7,733.5,168.7z"/>
	<path fill="#D8A7BA" d="M721.6,235.1c4.8-8.4,11.1-23.1,30.7-31.8c6.8-3.5,11.4-9.4,10.8-17.8c-0.1-1.3-0.4-3.2-0.9-5.3
		c-3.6,11.2-15.9,18.3-29.8,29.7c-17.3,14.3-19,35.4-32.9,39.6c-10.9,3.3-32.4-4.6-41.1-8.2c0.3,2.3,1.3,4,1.3,4s19,14,44,10.1
		C714.5,252.6,716.8,243.5,721.6,235.1z"/>
</g>
<g>
	<path fill="#5B5BC1" d="M553.9,95.5c0,0,20.8-3.8,33.7-7.1c12.9-3.3,30.9-19.2,32.4-20.7c1.5-1.4,9.1,17.1,5.4,25.7
		c-3.7,8.6-31.6,9-31.6,9l-36.5-0.2L553.9,95.5z"/>
	<path fill="#18145B" d="M554.4,114.7c0,0-3.1-15.7-0.5-19.2c12.9,6,41.2,1.3,47.1-1.6c5.9-2.9,70.7-7.3,70.7-7.3s6.7,24.7-1.8,30.7
		c-8.7,4.1-18,3.2-18,3.2h-17.2l-13.1,1.3l-21.6,0.3l-23.7-3.8l-15.3-2.1L554.4,114.7z"/>
	<path fill="#381803" d="M671.9,115.6c0,0-25.8,0.7-35.6,2c-9.2,1.2-29.3,3.3-43.7,2c-19.1-1.6-39.1-7.9-39.1-7.9l-0.5,7.2
		c0,0,2.1,0.9,5.7,2.2l1.2-2.6l1.7,3.6c0.6,0.2,1.3,0.4,2,0.7l1.4-3l1.9,4c0.6,0.2,1.1,0.3,1.7,0.5l1.5-3.3l2,4.2
		c0.5,0.1,1.1,0.3,1.7,0.4l1.6-3.3l1.9,4c0.6,0.1,1.2,0.2,1.8,0.3l1.5-3.1l1.7,3.6c0.7,0.1,1.5,0.2,2.2,0.3l1.3-2.7l1.4,3
		c0.9,0.1,1.9,0.2,2.8,0.2l1-2l1,2.2c1.2,0.1,2.4,0.1,3.6,0.1c20.8,0.4,31.5-1.7,44.1-1.8l1.8-3.9l1.8,3.9c0.3,0,0.6,0,0.9,0
		c0.1,0,0.3,0,0.4,0l1.8-3.9l1.9,4c0.4,0,0.8,0,1.2,0l1.9-4.1l2,4.3c0.3,0,0.7,0,1,0l2-4.3l2.1,4.5c0.3,0,0.5,0,0.8,0l2.1-4.5
		l2.2,4.6c0.6,0,1.1,0,1.7,0l2.2-4.6l2,4.3c0.8-0.1,1.4-0.4,1.7-0.6C672.1,122.6,671.9,115.6,671.9,115.6z"/>
	<path fill="#5E290B" d="M636.3,117.6c-9.2,1.2-29.3,3.3-43.7,2c-19.1-1.6-39.1-7.9-39.1-7.9l-0.2,2.7c5.5,1.8,25.7,8.4,40.6,8.5
		c17.4,0.2,33.7-1.8,45.2-2.9c9.5-0.8,24.4-1.5,32.8-1c0.1-2,0-3.6,0-3.6S646.1,116.3,636.3,117.6z"/>
	<g>
		<path fill="#CC7723" d="M573.1,103.3c-1.2,0-2.3,0-3.4-0.1l0.1-1.8c1.1,0,2.2,0.1,3.3,0.1l0.6,0l0,1.8L573.1,103.3z M575.1,103.3
			l0-1.8c1.3,0,2.6-0.1,3.9-0.2l0.1,1.8C577.7,103.2,576.4,103.2,575.1,103.3z M568.2,103.1c-1.3-0.1-2.6-0.2-3.9-0.4l0.2-1.8
			c1.3,0.2,2.6,0.3,3.8,0.4L568.2,103.1z M580.5,102.9l-0.1-1.8c1.3-0.1,2.6-0.2,3.9-0.4l0.1,1.8
			C583.2,102.7,581.9,102.8,580.5,102.9z M562.9,102.5c-1.3-0.2-2.6-0.5-3.9-0.8l0.3-1.8c1.2,0.3,2.5,0.5,3.8,0.8L562.9,102.5z
			 M585.9,102.4l-0.1-1.8c1.4-0.2,2.6-0.3,3.9-0.5l0.2,1.8C588.5,102,587.2,102.2,585.9,102.4z M591.2,101.6l-0.2-1.8
			c1.3-0.2,2.6-0.5,3.8-0.7l0.3,1.8C593.8,101.1,592.5,101.4,591.2,101.6z M557.5,101.4c-1.3-0.4-2.6-0.8-3.8-1.2l0.4-1.8
			c1.2,0.4,2.4,0.8,3.7,1.2L557.5,101.4z M596.5,100.5l-0.3-1.8c1.3-0.3,2.5-0.6,3.8-1l0.3,1.8C599.1,99.9,597.8,100.2,596.5,100.5z
			 M601.8,99.1l-0.4-1.8c1.2-0.4,2.4-0.8,3.7-1.3l0.4,1.8C604.3,98.3,603,98.7,601.8,99.1z"/>
		<polygon fill="#CC7723" points="607,97.3 606.6,95.5 608.5,94.8 608.9,96.6 		"/>
	</g>
	<path fill="#322A7F" d="M602.2,105.9c0,0-6.2-17.6,4.2-24.9c10.4-7.4,19.7,2.8,20.8,7.8c6.4-0.5,35.9-5.5,42.8-9.7
		c3,2.8,3.2,11,3,12.9C660.4,97.5,602.2,105.9,602.2,105.9z"/>
	<path fill="#381803" d="M607,87.4c0.4,1.2,0,2.7-1,3.2c-1,0.5-2.2,0-2.6-1.2c-0.4-1.2,0-2.7,1-3.2C605.4,85.6,606.5,86.2,607,87.4z
		"/>
	<path fill="#381803" d="M612.6,84.4c0.4,1.2,0,2.7-1,3.2c-1,0.5-2.2,0-2.6-1.2c-0.4-1.2,0-2.7,1-3.2
		C611,82.6,612.2,83.2,612.6,84.4z"/>
	<path fill="#381803" d="M618.3,81.3c0.4,1.2,0,2.7-1,3.2c-1,0.5-2.2,0-2.6-1.3c-0.4-1.2,0-2.7,1-3.2
		C616.7,79.5,617.8,80.1,618.3,81.3z"/>
	<path fill="#CC7723" d="M615.3,82.5c0.2,0.7,0.9,1,1.4,0.7c0.5-0.3,0.8-1.1,0.5-1.7l-4-11.1c-0.6,0.5-1.2,0.9-1.8,1.4L615.3,82.5z"
		/>
	<path fill="#CC7723" d="M609.7,85.5c0.2,0.7,0.9,1,1.4,0.7c0.5-0.3,0.8-1.1,0.5-1.7l-3.6-10c-0.6,0.4-1.2,0.9-1.8,1.3L609.7,85.5z"
		/>
	<path fill="#CC7723" d="M604.1,88.6c0.2,0.7,0.9,1,1.4,0.7c0.5-0.3,0.8-1.1,0.5-1.7l-3.3-9.3c-0.6,0.4-1.3,0.8-1.9,1.2L604.1,88.6z
		"/>
</g>
<g>
	<path fill="#322A7F" d="M753.1,68.1c0,0-21,23.1-35.5,30c-13.8,6.6-26.4,5.6-29.6,7.3c-6.2,3.3-4.8,12.7-4.8,12.7
		s-4.1,16.4,86.2,11c6.5,0.5,24,3.1,34.3-5.5c6.7-25.4-4.5-45.4-7.1-49.9c-2.6-4.5-6.2-5.4-8.3-3.1c-2,2.3-2.2,13-11.6,13.6
		c-9.4,0.6-19.8-16.1-19.8-16.1H753.1z"/>
	<path fill="#18145B" d="M731.9,130.3c10.2,0.1,22.6-0.2,37.6-1.1c2.5,0.2,6.7,0.7,11.5,0.7c-3-2.4-6.1-3.9-8.7-3.4
		c-8.3,1.8-39.6,1.8-39.6,1.8S732.5,129.1,731.9,130.3z"/>
	<path fill="#18145B" d="M756.9,68.1h-3.8c0,0-13.2,14.5-25.8,23.9c4.6,3.9,14.3,9,26.5-1.4c4.9-4.1,9.1-7.8,12.7-11
		C761.1,74.9,756.9,68.1,756.9,68.1z"/>
	<path fill="#5B5BC1" d="M796.7,73.9C796.7,73.9,796.7,73.8,796.7,73.9c-2.7-4.6-6.3-5.5-8.4-3.2c-2,2.3-2.2,13-11.6,13.6
		c-9.4,0.6-19.8-16.1-19.8-16.1h-3.2c2.4,6.6,10.6,24.3,27.5,23.1C791.6,90.5,795.7,82.5,796.7,73.9z"/>
	<path fill="#18145B" d="M803.8,123.7c0.6-2.1,1-4.1,1.3-6.2c-12.6-7.3-30.6-13.5-52.1-12c-23.2,1.6-45.1,13.4-57.3,21.2
		c2.1,0.5,4.5,1.1,7.4,1.5c11.4-5.8,26.9-10.9,45.6-11.9c17.8-0.9,30.9,6.7,38.9,13.4C793.3,129.1,799.3,127.5,803.8,123.7z"/>
	<path fill="#2DA1AD" d="M740.7,131.2c-3.3-6.4-5.4-6.8-12.1-6.6c-7.4,0.2-31.1-3.6-35.2-5.8c-4.2-2.2-3.3-6.1-4.3-9.6
		c-0.4-1.4-1.3-2.8-2.6-3.7c-4.7,3.8-4.1,11.4-3.9,12.7c0,0.5,0,1.4,0.7,2.7c2.3,3.9,12.4,10.3,53.5,10.3
		C738,131.2,739.4,131.2,740.7,131.2z"/>
	<path fill="#2DA1AD" d="M804.2,124.4l0.2-0.2l0.1-0.3c0.6-2.2,1-4.4,1.4-6.5c-3.8,1.5-17,4-27.1,4.2c-8.9,0.2-10,6-10.1,8.5
		c0.3,0,0.6,0,0.9-0.1c0.6,0,1.3,0.1,2.1,0.2c2.6,0.2,6.1,0.5,10,0.5C791.6,130.8,799,128.8,804.2,124.4z"/>
	<path fill="#5FC8D3" d="M749.5,106.9l-17.6-20c-3.6,3-7.3,5.8-10.8,7.9l12.4,14C740.7,111.1,746.5,108.7,749.5,106.9z"/>
	<path fill="#5FC8D3" d="M702.7,101.6l10.5,12c7.3,2.3,13.1-0.2,16.1-1.9l-12.7-14.4C711.6,99.5,706.9,100.8,702.7,101.6z"/>
	<path fill="#5FC8D3" d="M745.8,74c-2.7,2.7-6.1,6-9.7,9.2l17.6,19.9c7.3,2.3,13.1-0.1,16.1-1.9L745.8,74z"/>
	<path fill="#91E0ED" d="M745.8,74c-2.7,2.7-6.1,6-9.7,9.2l7.9,9c3.5-2.2,7.3-4.6,11.2-7.5L745.8,74z"/>
	<path fill="#91E0ED" d="M731.8,86.9c-3.6,3-7.3,5.8-10.8,7.9l5.6,6.4c3.8-1.6,7.9-3.6,12.4-6.1L731.8,86.9z"/>
	<path fill="#91E0ED" d="M716.6,97.2c-4.9,2.3-9.7,3.6-13.9,4.4l4.4,5c4-0.5,8.9-1.5,14.6-3.6L716.6,97.2z"/>
</g>
<text transform="matrix(0.8124 0 0 1 152.8076 422.8322)" fill="#154B82" font-family="'Rockwell-ExtraBold'" font-size="76.2046">BAGS</text>
<text transform="matrix(0.8124 0 0 1 547.3848 416.7168)" fill="#154B82" font-family="'Rockwell-ExtraBold'" font-size="76.2046">SHOES</text>
<g>
	<g>
		<g>
			<g>
				<path fill="#054954" d="M255.3,484.3h-3.1v27.5h-5.6v-27.5h-3.1v-4.1h11.9V484.3z"/>
				<path fill="#054954" d="M271,511.8h-5.6v-15.2h-1.6v15.2h-5.6v-31.6h5.6v12.6h1.6v-12.6h5.6V511.8z"/>
				<path fill="#054954" d="M285.2,511.8h-11v-31.6h11v4.1h-5.3v8.5h4.8v3.8h-4.8v11.1h5.4V511.8z"/>
			</g>
			<g>
				<path fill="#054954" d="M306.9,512.5c-2,0-3.9-0.4-5.6-1.2c-2.3-1.1-3.5-2.6-3.5-4.5c0-1.1,0.3-2,0.9-2.8
					c0.6-0.8,1.3-1.2,2.3-1.2c0.7,0,1.6,0.3,2.8,0.8c1.2,0.5,2.2,0.8,2.9,0.8c1.7,0,2.6-0.9,2.6-2.6c0-0.8-1-1.6-3-2.3
					c-2.7-0.9-4.5-1.8-5.4-2.6c-2-1.6-3-3.8-3-6.8c0-3.2,0.9-5.8,2.8-7.8c1.8-1.9,3.9-2.8,6.5-2.8c1.5,0,3.1,0.4,4.6,1.2
					c2,1,2.9,2.4,2.9,4.1c0,1.1-0.3,2.1-0.9,2.9c-0.6,0.8-1.3,1.3-2.3,1.3c-0.5,0-1.3-0.2-2.2-0.6c-1-0.4-1.7-0.6-2.3-0.6
					c-1.3,0-1.9,0.6-1.9,1.7c0,0.6,1,1.2,3,1.9c2.5,0.9,4.3,1.8,5.4,2.8c2,1.8,3,4.3,3,7.6c0,3.2-1,5.9-2.9,7.9
					C311.7,511.5,309.5,512.5,306.9,512.5z"/>
				<path fill="#054954" d="M337.8,510.9c-1,0.1-1.8-0.1-2.5-0.8c-0.7-0.7-1.1-1.7-1.2-3l-0.8-8l-8.9,1.3l0.8,8c0,0.2,0,0.4,0,0.7
					c0,1.1-0.3,2.1-0.8,2.8s-1.3,1.2-2.2,1.3c-1,0.2-1.8-0.1-2.5-0.8c-0.7-0.7-1.1-1.7-1.3-3l-2.3-23.6c0-0.3,0-0.5,0-0.7
					c0-1.1,0.3-2,0.8-2.8c0.5-0.7,1.3-1.2,2.2-1.3c1-0.1,1.8,0.1,2.5,0.8c0.7,0.7,1.1,1.7,1.2,3l0.8,7.8l8.9-1.3l-0.8-7.8
					c0-0.2,0-0.4,0-0.7c0-1.1,0.3-2.1,0.8-2.8c0.6-0.7,1.3-1.2,2.2-1.3c1-0.2,1.8,0.1,2.5,0.8c0.7,0.7,1.1,1.7,1.3,3l2.3,23.6
					c0,0.3,0,0.5,0,0.7c0,1.1-0.3,2-0.8,2.8C339.4,510.4,338.7,510.8,337.8,510.9z"/>
				<path fill="#054954" d="M351.4,512.3c-3.2-0.6-5.8-2.4-7.7-5.4c-1.9-2.9-2.8-6.3-2.8-10.3c0-1,0.1-2,0.2-3
					c0.5-4.1,1.9-7.5,4.2-10.1c2.3-2.6,5-3.9,8.2-3.9c0.7,0,1.4,0.1,2.1,0.2c3.2,0.6,5.8,2.4,7.7,5.4c1.9,3,2.9,6.4,2.9,10.4
					c0,1-0.1,2-0.2,2.9c-0.5,4.1-1.9,7.5-4.2,10.1c-2.3,2.6-5,3.9-8.2,3.9C352.8,512.5,352.1,512.4,351.4,512.3z M354.5,487.6
					c-0.3-0.1-0.6-0.1-0.9-0.1c-1.5,0-2.7,0.7-3.7,2.1c-1,1.4-1.6,3.2-1.9,5.4c-0.1,0.7-0.1,1.4-0.1,2.1c0,2,0.4,3.6,1.2,5
					c0.8,1.3,1.9,2.2,3.4,2.4c0.3,0.1,0.6,0.1,0.9,0.1c1.5,0,2.8-0.7,3.8-2.1c1-1.3,1.6-3.1,1.9-5.4c0.1-0.7,0.1-1.3,0.1-2
					c0-2-0.4-3.6-1.1-5C357.1,488.7,356,487.8,354.5,487.6z"/>
				<path fill="#054954" d="M377.6,512.7l-8.6-2.1c-0.8-0.2-1.5-0.7-2.1-1.4c-0.5-0.7-0.8-1.6-0.8-2.7c0-0.3,0-0.6,0.1-0.9l3.6-22.6
					c0.4-2.6,1.5-3.9,3.3-3.9c0.3,0,0.5,0,0.8,0.1l8.3,2c0.9,0.2,1.6,0.7,2,1.4c0.5,0.7,0.7,1.5,0.7,2.5c0,1.1-0.3,2-0.9,2.8
					c-0.6,0.8-1.4,1.2-2.2,1.2c-0.2,0-0.5,0-0.7-0.1l-5.1-1.2l-0.6,3.9l4.6,1.1c0.9,0.2,1.6,0.7,2,1.4c0.5,0.7,0.7,1.5,0.7,2.5
					c0,1.1-0.3,2.1-0.9,2.8c-0.6,0.8-1.4,1.2-2.3,1.2c-0.2,0-0.5,0-0.7-0.1l-4.7-1.1l-0.6,4.2l5.3,1.3c0.9,0.2,1.5,0.6,2,1.4
					c0.5,0.7,0.7,1.5,0.7,2.5c0,1.1-0.3,2-0.9,2.8c-0.6,0.8-1.4,1.2-2.3,1.2C378.1,512.8,377.8,512.8,377.6,512.7z"/>
				<path fill="#054954" d="M417.8,499.7c0.8-2.8,2.2-7.4,4.3-13.7c0.6-2,1.7-3.1,3.2-3.1c0.3,0,0.6,0,0.9,0.1
					c0.8,0.2,1.5,0.7,1.9,1.4c0.5,0.7,0.7,1.5,0.7,2.4c0,0.2,0,0.4,0,0.7c-0.1,0.6-0.2,1.1-0.4,1.6l-7.8,21.4
					c-0.8,2.1-2,3.1-3.8,3.1c-0.3,0-0.6,0-1-0.1c-1-0.2-1.8-0.8-2.4-1.7c-0.6-0.9-1-1.9-1.1-3l-1.2-14c-0.9,2.4-2.6,6.6-5.1,12.5
					c-0.8,1.9-2,2.8-3.8,2.8c-0.3,0-0.6,0-0.9-0.1c-1.1-0.3-2-0.9-2.6-1.9c-0.6-0.9-0.9-1.9-0.9-3.1l-0.7-23.5c0-0.6,0-1.1,0.1-1.6
					c0.1-0.9,0.5-1.6,1.1-2.2c0.6-0.6,1.3-0.9,2.1-0.9c0.2,0,0.5,0,0.7,0.1c1.9,0.4,2.9,2,2.9,4.6l0.1,14.7c1-2.8,2.9-7.5,5.6-14
					c0.7-1.6,1.7-2.4,3.2-2.4c1,0,1.8,0.4,2.5,1.2c0.7,0.8,1.1,1.7,1.2,2.9L417.8,499.7z"/>
				<path fill="#054954" d="M442.8,513.1c-1.3-0.1-2.3-0.9-2.8-2.3c-0.1-0.4-0.4-1.8-0.9-4.2l-8.2-0.9c-0.8,2.3-1.3,3.6-1.5,3.9
					c-0.7,1.3-1.7,1.9-3,1.7c-0.9-0.1-1.7-0.6-2.3-1.4c-0.6-0.8-0.9-1.8-0.8-3c0-0.5,0.2-1.1,0.4-1.7l8.4-22
					c0.5-1.1,1.1-2.1,1.9-2.8c0.8-0.7,1.8-1,2.8-0.9c2.1,0.2,3.5,1.8,4.1,4.6l5,23.4c0.2,0.8,0.2,1.4,0.2,1.9
					c-0.1,1.1-0.5,2-1.2,2.6C444.4,512.9,443.6,513.2,442.8,513.1z M436,490.1c-0.5,1.8-1.3,4.4-2.6,8l4.1,0.4L436,490.1z"/>
				<path fill="#054954" d="M455.3,512.5c-2,0-3.9-0.4-5.6-1.2c-2.3-1.1-3.5-2.6-3.5-4.5c0-1.1,0.3-2,0.9-2.8
					c0.6-0.8,1.3-1.2,2.3-1.2c0.7,0,1.6,0.3,2.8,0.8c1.2,0.5,2.2,0.8,2.9,0.8c1.7,0,2.6-0.9,2.6-2.6c0-0.8-1-1.6-3-2.3
					c-2.7-0.9-4.5-1.8-5.4-2.6c-2-1.6-3-3.8-3-6.8c0-3.2,0.9-5.8,2.8-7.8c1.8-1.9,3.9-2.8,6.5-2.8c1.5,0,3.1,0.4,4.6,1.2
					c2,1,2.9,2.4,2.9,4.1c0,1.1-0.3,2.1-0.9,2.9c-0.6,0.8-1.3,1.3-2.3,1.3c-0.5,0-1.3-0.2-2.2-0.6c-1-0.4-1.7-0.6-2.3-0.6
					c-1.3,0-1.9,0.6-1.9,1.7c0,0.6,1,1.2,3,1.9c2.5,0.9,4.3,1.8,5.4,2.8c2,1.8,3,4.3,3,7.6c0,3.2-1,5.9-2.9,7.9
					C460.2,511.5,458,512.5,455.3,512.5z"/>
				<path fill="#054954" d="M486.2,510.9c-1,0.1-1.8-0.1-2.5-0.8c-0.7-0.7-1.1-1.7-1.2-3l-0.8-8l-8.9,1.3l0.8,8c0,0.2,0,0.4,0,0.7
					c0,1.1-0.3,2.1-0.8,2.8c-0.6,0.7-1.3,1.2-2.2,1.3c-1,0.2-1.8-0.1-2.5-0.8c-0.7-0.7-1.1-1.7-1.3-3l-2.3-23.6c0-0.3,0-0.5,0-0.7
					c0-1.1,0.3-2,0.8-2.8c0.5-0.7,1.3-1.2,2.2-1.3c1-0.1,1.8,0.1,2.5,0.8c0.7,0.7,1.1,1.7,1.2,3l0.8,7.8l8.9-1.3l-0.8-7.8
					c0-0.2,0-0.4,0-0.7c0-1.1,0.3-2.1,0.8-2.8c0.6-0.7,1.3-1.2,2.2-1.3c1-0.2,1.8,0.1,2.5,0.8c0.7,0.7,1.1,1.7,1.3,3l2.3,23.6
					c0,0.3,0,0.5,0,0.7c0,1.1-0.3,2-0.8,2.8C487.9,510.4,487.1,510.8,486.2,510.9z"/>
			</g>
			<g>
				<path fill="#054954" d="M512.3,491.2h-5.1V485c0-0.5-0.3-0.8-0.8-0.8c-0.5,0-0.8,0.3-0.8,0.8v21.9c0,0.5,0.3,0.8,0.8,0.8
					c0.5,0,0.8-0.3,0.8-0.8v-7.8h5.1v8c0,1.5-0.6,2.7-1.8,3.6c-1.2,0.9-2.5,1.4-4,1.4c-4.3,0-6.5-1.9-6.5-5.7V486
					c0-4.1,2.2-6.1,6.5-6.1c3.9,0,5.8,1.9,5.8,5.6V491.2z"/>
				<path fill="#054954" d="M515.4,506.4V486c0-4.1,2.2-6.1,6.5-6.1c4.3,0,6.4,2,6.4,6.1v20.3c0,1.8-0.6,3.2-1.8,4.2
					c-1.2,1-2.7,1.5-4.6,1.5C517.6,512.1,515.4,510.2,515.4,506.4z M522.8,506.7v-21.5c0-0.6-0.3-0.9-0.9-0.9
					c-0.6,0-0.9,0.3-0.9,0.9v21.5c0,0.6,0.3,0.9,0.9,0.9C522.5,507.6,522.8,507.3,522.8,506.7z"/>
				<path fill="#054954" d="M551,511.8h-5V494l-2.9,17.7h-3.9l-3.4-17.7v17.7h-4.4v-31.6h7.2l2.6,16.4l2.2-16.4h7.6V511.8z"/>
				<path fill="#054954" d="M559.7,500.1v11.6h-5.5v-31.6h5.9c2.4,0,4.1,0.4,5.2,1.1c1.1,0.7,1.7,2.2,1.7,4.5v8.8
					c0,2.1-0.5,3.5-1.4,4.4C564.8,499.8,562.8,500.2,559.7,500.1z M561.6,493.9v-7.6c0-1.1-0.6-1.7-1.9-1.7v10.9
					C561,495.6,561.6,495.1,561.6,493.9z"/>
				<path fill="#054954" d="M585.3,511.8h-5.6l-1-8.5h-2.5l-1,8.5h-5.6l4.2-31.6h7.1L585.3,511.8z M578.3,498.9l-0.8-9.4l-0.8,9.4
					H578.3z"/>
				<path fill="#054954" d="M602.5,511.8h-5.8l-3.8-16.8v16.8h-4.7v-31.6h6.4l3.2,14.4v-14.4h4.7V511.8z"/>
				<path fill="#054954" d="M621,480.2l-3.7,12.7l-1.8,6.4v12.5h-5.6v-12.2c-0.1-1.1-0.6-3.3-1.4-6.5c-0.7-2.7-1.8-7-3.3-12.8h5.4
					l2.5,11.2l2.9-11.2H621z"/>
			</g>
		</g>
	</g>
</g>
</svg>
