<?xml version="1.0" encoding="utf-8"?>
<!-- Generator: Adobe Illustrator 18.0.0, SVG Export Plug-In . SVG Version: 6.00 Build 0)  -->
<!DOCTYPE svg PUBLIC "-//W3C//DTD SVG 1.1//EN" "http://www.w3.org/Graphics/SVG/1.1/DTD/svg11.dtd">
<svg version="1.1" id="a02f2390-8fa7-48a9-96f1-2ec5f63ecbc1"
	 xmlns="http://www.w3.org/2000/svg" xmlns:xlink="http://www.w3.org/1999/xlink" x="0px" y="0px" viewBox="0 0 960 560"
	 enable-background="new 0 0 960 560" xml:space="preserve">
<title>teacher</title>
<path fill="#232323" d="M440.6,172.8c0,0-2.2,54.6-1.1,63.5c1,9,5.3,27.6,2.2,34.8c-3.1,7.2-36.2,10.9-36.2,10.9l-30.6,5.9
	l-25.1-1.7l-18.8-7.7l-2.4-6.4c0,0,1-10.1,6.8-12.3c5.9-2.1,25.6-3.4,40.2-21.7c14.5-18.3,13.2-21.3,14.9-27.3s2.1-27.3,2.1-30.7
	s1-7.7,4.8-7.7"/>
<path fill="#444444" d="M435.2,172.7c-1.3,14.8-4.6,56.3-2.7,65c2,9.2,5,25.6,1.5,38.5c3.9-1.4,6.8-3.1,7.7-5
	c3.1-7.2-1.2-25.9-2.2-34.8c-1-9,1.1-63.5,1.1-63.5"/>
<path fill="#444444" d="M404.4,270.6c-5.9-17.3-36.7-10-36.7-10l-3.2-12c-12.1,8.5-24.6,9.6-29,11.2c-5.9,2.1-6.8,12.3-6.8,12.3
	l2.4,6.4l18.8,7.7l25.1,1.7l30.6-5.9c0,0,0.6-0.1,1.7-0.2C406.6,278,405.7,274.2,404.4,270.6z"/>
<path d="M377.8,247c0.9,1.1,0.9,2.8,0.1,3.9c-0.9,1.1-2.3,1.1-3.2,0.1c-0.9-1.1-0.9-2.8-0.1-3.9C375.5,246,376.9,245.9,377.8,247z"
	/>
<path d="M382.7,240.8c0.9,1.1,0.9,2.8,0.1,3.9c-0.9,1.1-2.3,1.1-3.2,0.1c-0.9-1.1-0.9-2.8-0.1-3.9
	C380.3,239.8,381.8,239.7,382.7,240.8z"/>
<path d="M387.5,234.6c0.9,1.1,0.9,2.8,0.1,3.9c-0.9,1.1-2.3,1.1-3.2,0.1c-0.9-1.1-0.9-2.8-0.1-3.9
	C385.2,233.6,386.6,233.5,387.5,234.6z"/>
<path d="M392.4,228.4c0.9,1.1,0.9,2.8,0.1,3.9c-0.9,1.1-2.3,1.1-3.2,0.1c-0.9-1.1-0.9-2.8-0.1-3.9
	C390,227.4,391.5,227.3,392.4,228.4z"/>
<path d="M397.2,222.2c0.9,1.1,0.9,2.8,0.1,3.9c-0.9,1.1-2.3,1.1-3.2,0.1c-0.9-1.1-0.9-2.8-0.1-3.9
	C394.9,221.1,396.3,221.1,397.2,222.2z"/>
<ellipse cx="399.8" cy="199.2" rx="2.2" ry="2.8"/>
<ellipse cx="399.8" cy="190.6" rx="2.2" ry="2.8"/>
<ellipse cx="399.8" cy="182" rx="2.2" ry="2.8"/>
<path d="M406.4,170.8c-0.3,7.9,0.4,25.1,13,25.1c5.6,0,13.6,0,21.8,0c0.4-12.4,0.8-22.8,0.8-23"/>
<path d="M399.5,180.5h-8.2c0,0.8,0,1.8,0,3h8.2c0.7,0,1.2-0.7,1.2-1.5S400.1,180.5,399.5,180.5z"/>
<path d="M399.5,189.1h-8.4c0,1-0.1,2-0.1,3h8.5c0.7,0,1.2-0.7,1.2-1.5S400.1,189.1,399.5,189.1z"/>
<path d="M399.5,197.7h-8.8c-0.1,1-0.1,2-0.2,3h9c0.7,0,1.2-0.7,1.2-1.5S400.1,197.7,399.5,197.7z"/>
<path d="M387.6,216.7l6.9,8.2c0.5,0.6,1.2,0.6,1.7,0s0.4-1.5,0-2.1l-7.8-9.2C388.2,214.5,388,215.5,387.6,216.7z"/>
<path d="M383.9,224.2l5.8,6.9c0.5,0.6,1.2,0.6,1.7,0s0.4-1.5,0-2.1l-6.1-7.2C384.9,222.5,384.4,223.3,383.9,224.2z"/>
<path d="M384.8,237.3c0.5,0.6,1.2,0.6,1.7,0s0.4-1.5,0-2.1l-5.6-6.6c-0.5,0.7-1,1.4-1.6,2.2L384.8,237.3z"/>
<path d="M380,243.5c0.5,0.6,1.2,0.6,1.7,0s0.4-1.5,0-2.1l-5.4-6.5c-0.5,0.6-1,1.3-1.5,2c-0.1,0.1-0.1,0.1-0.1,0.2L380,243.5z"/>
<path d="M369.3,242.8l5.9,7c0.5,0.6,1.2,0.6,1.7,0s0.4-1.5,0-2.1l-5.6-6.7C370.5,241.5,369.9,242.2,369.3,242.8z"/>
<path fill="#C9C9C9" d="M441.7,271.1c1.1-2.5,1.3-6.3,1-10.6c-4.3,2.8-10.3,5.2-17.7,5.4c-13.2,0.4-12.2,2.9-49.1,8.6
	c-27.7,4.2-40.4-5.4-45-10.4c-1.9,3.6-2.3,7.9-2.3,7.9l2.4,6.4l18.8,7.7l25.1,1.7l30.6-5.9C405.6,282,438.6,278.4,441.7,271.1z"/>
<path fill="#5E5E5E" d="M420.9,279.8c7.1-0.6,17.8-3.4,23-8.7c-0.2-0.4-0.7-1.1-2.2-1.3c-1.1,1.1-6.7,5-16.2,6.1s-22.2,2.2-33,4.7
	c-10.9,2.5-24,5.2-40.3,2.6c-16.3-2.5-23.8-11.5-23.8-11.5l-0.8,2.5c2,2.5,6.4,6.7,15.4,9.5c12.7,3.9,24,5.6,35.8,2.8
	C390.6,283.7,411.7,280.6,420.9,279.8z"/>
<ellipse cx="414.3" cy="240.6" rx="11" ry="13.5"/>
<path fill="#232323" d="M423,240.6c0,5.9-3.9,10.7-8.7,10.7s-8.7-4.8-8.7-10.7s3.9-10.7,8.7-10.7C419.1,229.9,423,234.7,423,240.6z"
	/>
<g>
	<path fill="#AF1C4D" d="M326.1,342.1c-1.1-1.3-1.9-12.4,4.9-12.2c6.8,0.3,18.3,2.1,27.3-1.1c8.9-3.2,30.2-25.2,36.2-27.3
		c6-2.1,11.5,6.6,14.7,9.5s10.9,7.7,14.7,5.6s6.6-11.7,9.8-13.5c3.2-1.9,7.5,1.9,9.6,13.2c2.1,11.4,4,21.2-1.1,27.3
		c-5.1,6.1-30,6.6-30,6.6l-34.1,4.8l-35.6-1.1L326.1,342.1z"/>
	<path fill="#D83068" d="M443.2,316.5c-0.2-0.9-0.3-1.7-0.5-2.5c-10,3.5-26.6,12.7-27.7,35c2.1,0.3,4.1,0.5,6.1,0.8
		c7.7-0.7,18-2.4,21.1-6.1C447.2,337.7,445.3,327.9,443.2,316.5z"/>
	<g>
		<path fill="#D83068" d="M360.2,346.8L360.2,346.8c2.5,0,4.9-0.1,7.1-0.3l-7.5-13.3c-0.2,0.1-0.3,0.1-0.5,0.2
			c-2.2,0.8-4.6,1.3-7.4,1.7l6.6,11.7C359.1,346.8,359.6,346.8,360.2,346.8z"/>
	</g>
	<g>
		<path fill="#D83068" d="M379.2,344.5l-9.8-17.4c-2.3,1.8-4.4,3.3-6.4,4.4l8.2,14.5C374.1,345.7,376.7,345.1,379.2,344.5z"/>
	</g>
	<g>
		<path fill="#D83068" d="M390.5,341.2l-12.1-21.4c-2,1.7-4.1,3.5-6,5l10.6,18.7C385.6,342.8,388.1,342,390.5,341.2z"/>
	</g>
	<g>
		<path fill="#D83068" d="M401.6,337.8l-14.4-25.6c-1.8,1.5-3.7,3.1-5.4,4.6c-0.2,0.2-0.4,0.3-0.6,0.5L394,340
			C396.6,339.2,399.1,338.4,401.6,337.8z"/>
	</g>
	<path fill="#D8A7BA" d="M425,331.2c-18.6-2.1-28.7,8.3-55.3,14c-20,4.3-37.1-4-44.3-8.4c-0.2,2.5,0.2,4.7,0.7,5.3l16.4,11.9
		l35.6,1.1l34.1-4.8c0,0,24.9-0.5,30-6.6c2-2.4,2.9-5.3,3.2-8.7C439.6,333.4,432.9,332.1,425,331.2z"/>
	<path fill="#5FC8D3" d="M325.6,341.5c0,0,11.1,8.6,28.5,9.7c26.6,1.8,40-8.6,53.2-9.7c13.1-1.2,23.7,2.3,29,2.1
		c5.2-0.2,6.8-1.9,7.4-2.5c1.4,2.7,1.6,16.2,0.2,17.5c-1.4,1.4-8.2,4.7-20.9,4.1s-11.7-4.3-24.2-4.1c-12.5,0.2-27.9,5.3-36.9,4.3
		s-21.8-3.1-29.3-10.7C327.5,347.4,325.6,341.5,325.6,341.5z"/>
	<path fill="#91E0ED" d="M443.9,358.7c0.6-0.6,0.9-3.4,1-6.6c-2.8,2-7,3.4-13.5,2.5c-15.7-2.1-19-1-29.3,0.2
		c-4.2,0.5-9.7,2.6-14.7,5c3.9-0.6,7.7-1.1,11.3-1.1c12.5-0.2,11.6,3.5,24.2,4.1C435.6,363.4,442.4,360.1,443.9,358.7z"/>
	<path fill="#D83068" d="M345.3,362c-0.2,0-0.3,0-0.5-0.1c-5.6-1.9-10.1-4.5-13.4-7.9c-0.8-0.8-0.9-2.3-0.2-3.3s1.9-1.1,2.7-0.3
		c2.8,2.9,6.8,5.2,12,6.9c1,0.3,1.6,1.6,1.3,2.9C346.9,361.3,346.1,362,345.3,362z"/>
	<path fill="#D83068" d="M364.4,365.4c-1,0-1.8,0-2.7-0.1c-2.8-0.3-7-0.8-11.4-1.8c-1-0.2-1.7-1.5-1.5-2.7c0.2-1.3,1.2-2.1,2.2-1.9
		c4.2,1,8.4,1.5,11.1,1.8c1,0.1,2.1,0.1,3.4,0.1c0,0,0,0,0.1,0c1,0,1.9,1,1.9,2.3s-0.8,2.4-1.8,2.4
		C365.1,365.4,364.8,365.4,364.4,365.4z"/>
	<path fill="#D83068" d="M371.5,364.8c-1,0-1.8-0.9-1.9-2.1c-0.1-1.3,0.6-2.4,1.7-2.6c2.7-0.4,5.6-0.9,8.6-1.4
		c2.3-0.4,4.7-0.8,7.1-1.2c1-0.2,2,0.7,2.1,2s-0.6,2.5-1.6,2.6c-2.3,0.4-4.7,0.8-7,1.2c-3.1,0.5-5.9,1.1-8.7,1.5
		C371.7,364.8,371.6,364.8,371.5,364.8z"/>
	<path fill="#D83068" d="M421.8,365.1L421.8,365.1c-7-0.4-9.7-1.4-13.2-2.7c-0.7-0.2-1.4-0.5-2.1-0.8c-1-0.4-1.6-1.6-1.3-2.9
		c0.3-1.2,1.3-2,2.3-1.6c0.8,0.3,1.5,0.5,2.2,0.8c3.4,1.2,5.8,2.1,12.2,2.5c1,0.1,1.9,1.2,1.8,2.4
		C423.7,364.1,422.8,365.1,421.8,365.1z"/>
	<path fill="#D83068" d="M428.2,365.1c-1,0-1.9-1-1.9-2.3s0.8-2.4,1.8-2.4c6.9-0.3,11-1.8,12.9-2.6c1-0.5,2.1,0.1,2.5,1.4
		c0.4,1.2-0.1,2.6-1.1,3C440.3,363.2,435.7,364.8,428.2,365.1L428.2,365.1z"/>
	<path fill="#91E0ED" d="M424.2,347c11.1,1.4,16.8,2.3,20.3-2.4c-0.2-1.5-0.5-2.8-0.8-3.4c-0.6,0.6-2.2,2.3-7.4,2.5
		s-15.8-3.3-29-2.1c-13.1,1.2-26.6,11.5-53.2,9.7c-17.4-1.2-28.5-9.7-28.5-9.7s0.4,1.3,1.3,3.1c4.3,3.1,12.1,7.3,24.3,9.2
		c20.4,3.1,32.8-1,41.3-4.3C401.1,346.2,411.9,345.4,424.2,347z"/>
	<path fill="#91E0ED" d="M327.3,331.5c-2.7,3-2,9.7-1.2,10.6l2.6,1.9C329.7,337.4,328.5,333.6,327.3,331.5z"/>
	<path fill="#5FC8D3" d="M394.4,301.6c-5.8,2.1-26.1,22.9-35.5,27c2.1,1.7,5.6,1.1,9.1,0c4.9-1.6,26.4-17.4,35.2-23.7
		C400.6,302.4,397.6,300.5,394.4,301.6z"/>
	<path fill="#66042C" d="M372.6,322.9c0.5,1,0.2,2.3-0.6,2.8c-0.8,0.6-1.8,0.2-2.3-0.8s-0.2-2.3,0.6-2.8S372.2,321.9,372.6,322.9z"
		/>
	<path fill="#66042C" d="M377.4,319.5c0.5,1,0.2,2.3-0.6,2.8c-0.8,0.6-1.8,0.2-2.3-0.8s-0.2-2.3,0.6-2.8
		C375.9,318.2,376.9,318.5,377.4,319.5z"/>
	<path fill="#66042C" d="M382.1,316.1c0.5,1,0.2,2.3-0.6,2.8c-0.8,0.6-1.8,0.2-2.3-0.8s-0.2-2.3,0.6-2.8
		C380.6,314.8,381.7,315.1,382.1,316.1z"/>
	<path fill="#66042C" d="M386.9,312.7c0.5,1,0.2,2.3-0.6,2.8c-0.8,0.6-1.8,0.2-2.3-0.8s-0.2-2.3,0.6-2.8S386.4,311.7,386.9,312.7z"
		/>
	<path fill="#66042C" d="M391.6,309.3c0.5,1,0.2,2.3-0.6,2.8c-0.8,0.6-1.8,0.2-2.3-0.8s-0.2-2.3,0.6-2.8S391.1,308.3,391.6,309.3z"
		/>
	<path fill="#66042C" d="M396.4,305.9c0.5,1,0.2,2.3-0.6,2.8c-0.8,0.6-1.8,0.2-2.3-0.8s-0.2-2.3,0.6-2.8S395.9,304.9,396.4,305.9z"
		/>
	<path fill="#91E0ED" d="M391.3,301.7l2.7,5.6c0.2,0.4,0.5,0.6,0.8,0.6c0.2,0,0.3-0.1,0.5-0.2c0.5-0.3,0.6-1,0.3-1.6l-2.6-5.5
		C392.5,300.9,391.9,301.2,391.3,301.7z"/>
	<path fill="#91E0ED" d="M389.2,310.7c0.2,0.4,0.5,0.6,0.8,0.6c0.2,0,0.3-0.1,0.5-0.2c0.5-0.3,0.6-1,0.3-1.6l-2.6-5.6
		c-0.5,0.4-1,0.8-1.6,1.3L389.2,310.7z"/>
	<path fill="#91E0ED" d="M384.4,314.1c0.2,0.4,0.5,0.6,0.8,0.6c0.2,0,0.3-0.1,0.5-0.2c0.5-0.3,0.6-1,0.3-1.6l-2.5-5.2
		c-0.5,0.4-1,0.9-1.6,1.3L384.4,314.1z"/>
	<path fill="#91E0ED" d="M379.7,317.5c0.2,0.4,0.5,0.6,0.8,0.6c0.2,0,0.3-0.1,0.5-0.2c0.5-0.3,0.6-1,0.3-1.6l-2.2-4.8
		c-0.1,0.1-0.2,0.1-0.2,0.2c-0.4,0.4-0.9,0.8-1.3,1.1L379.7,317.5z"/>
	<path fill="#91E0ED" d="M375,320.8c0.2,0.4,0.5,0.6,0.8,0.6c0.2,0,0.3-0.1,0.5-0.2c0.5-0.3,0.6-1,0.3-1.6l-2-4.3
		c-0.5,0.4-1,0.9-1.6,1.3L375,320.8z"/>
	<path fill="#91E0ED" d="M370.2,324.2c0.2,0.4,0.5,0.6,0.8,0.6c0.2,0,0.3-0.1,0.5-0.2c0.5-0.3,0.6-1,0.3-1.6l-1.8-3.9
		c-0.5,0.4-1.1,0.9-1.6,1.3L370.2,324.2z"/>
</g>
<g>
	<path fill="#E8390A" d="M479,342.1c0,0,28.9-21,49-58.8c6.2,6.8,5.1,19.4,3.1,23.5c-2.1,4-47.6,39.9-47.6,39.9L479,342.1z"/>
	<path fill="#FC643A" d="M472.5,339c0,0,9.5,1.6,23.3-6.6c16.5-9.8,32.4-36.9,39.4-36.6s23.3,3.5,34.6-1.8c1.6,18.5-2.6,28-1.6,37.1
		s2.9,24.5-1,30.3s-72.4,1.8-72.4,1.8l-28.5-7.8L472.5,339z"/>
	<path fill="#F4502A" d="M535.2,295.9c-7-0.3-22.8,26.9-39.4,36.6c-13.8,8.1-23.3,6.6-23.3,6.6l-3,7.9l5.7,3.7
		c0,0,18.7,0.3,41.6-20.2c9.3-8.4,20.1-20.1,27.9-33.8C540.8,296.4,537.5,295.9,535.2,295.9z"/>
	<path fill="#F4502A" d="M568.3,332.3c-7.3,1.2-23.9,6.9-31.1,32.3c14.9,0,28.3-0.7,30-3.1C570.9,355.9,569.4,341.5,568.3,332.3z"/>
	<path fill="#E2E2E2" d="M456.6,344.8c0,0,4.2-7.5,21.3-6.3c2.5,7-1.7,18.1-3.8,18.4C468.8,354.7,456.6,344.8,456.6,344.8z"/>
	<path fill="#E2E2E2" d="M542.8,371c-8.7,0-17.9-0.2-26.7-0.3c-8.1-0.2-15.8-0.3-22.4-0.3c-19.5,0-41.1-12.3-42-12.8
		c0,0-0.7-8.8,4.9-12.8c1.6,0.7,20.2,11.5,37.2,11.5c6.7,0,14.4,0.1,22.6,0.3c19.3,0.4,50,0.4,52.9-0.8c4.5,4.9,1.2,14.1,1.2,14.1
		C563.6,370.7,553.6,371,542.8,371z"/>
	<path fill="#232323" d="M571.6,363.5c0-0.7,0-1.3-0.1-2c-12.8,1.6-36.6,1.3-57.6,1c-7.4-0.1-14.3-0.2-20.2-0.2
		c-18.1,0-39-11.9-39.3-12l-0.7,1.8c0.2,0.1,21.5,12.2,39.9,12.2c5.9,0,12.8,0.1,20.2,0.2c8.4,0.1,17.3,0.2,25.8,0.2
		C552.3,364.7,563.9,364.5,571.6,363.5z"/>
	<path fill="#C1C1C1" d="M456.6,344.8c-0.2-0.1-0.3-0.2-0.4-0.3c-5.4,4.2-4.8,12.8-4.8,13.1v0.3l0.2,0.1
		c0.8,0.5,19.1,10.8,37.2,12.6c0.3-2.5,1.2-11.7,1.5-14.5C474.3,354.8,458,345.4,456.6,344.8z"/>
	<path fill="#232323" d="M540.8,357.5c-9,0-18.2-0.1-24.5-0.2c-8.2-0.2-15.9-0.3-22.6-0.3c-7,0-19.1-1.9-36.5-11.1
		c-0.4-0.2-0.7-0.4-0.9-0.5c-0.3-0.1-0.5-0.6-0.4-1s0.5-0.6,0.8-0.4c0.2,0.1,0.5,0.2,0.9,0.5c17.2,9,29.1,10.9,36,10.9
		c6.7,0,14.4,0.1,22.6,0.3c20.4,0.4,50,0.4,52.7-0.7c0.3-0.1,0.7,0.1,0.8,0.5s-0.1,0.8-0.4,1C567.5,357.3,554.4,357.5,540.8,357.5z"
		/>
	<path d="M497.9,338.2c0.7,1.2,0.5,2.8-0.4,3.7c-0.9,0.9-2.3,0.7-3-0.5s-0.5-2.8,0.4-3.7C495.9,336.8,497.2,337,497.9,338.2z"/>
	<path d="M504,332.6c0.7,1.2,0.5,2.8-0.4,3.7c-0.9,0.9-2.3,0.7-3-0.5s-0.5-2.8,0.4-3.7S503.2,331.4,504,332.6z"/>
	<path d="M510,326.9c0.7,1.2,0.5,2.8-0.4,3.7c-0.9,0.9-2.3,0.7-3-0.5s-0.5-2.8,0.4-3.7C507.9,325.5,509.3,325.8,510,326.9z"/>
	<path d="M516,321.3c0.7,1.2,0.5,2.8-0.4,3.7c-0.9,0.9-2.3,0.7-3-0.5s-0.5-2.8,0.4-3.7C514,319.9,515.3,320.1,516,321.3z"/>
	<path d="M522.1,315.7c0.7,1.2,0.5,2.8-0.4,3.7c-0.9,0.9-2.3,0.7-3-0.5s-0.5-2.8,0.4-3.7C520,314.3,521.4,314.5,522.1,315.7z"/>
	<path d="M528.1,310c0.7,1.2,0.5,2.8-0.4,3.7c-0.9,0.9-2.3,0.7-3-0.5s-0.5-2.8,0.4-3.7C526.1,308.6,527.4,308.8,528.1,310z"/>
	<path fill="#E2E2E2" d="M518.8,296.9c-0.5,0.8-1,1.5-1.5,2.3l7.9,12.9c0.4,0.6,1.1,0.8,1.6,0.3s0.6-1.4,0.2-2L518.8,296.9z"/>
	<path fill="#E2E2E2" d="M513.8,304.2c-0.5,0.7-1.1,1.5-1.6,2.2l7,11.4c0.4,0.6,1.1,0.8,1.6,0.3s0.6-1.4,0.2-2L513.8,304.2z"/>
	<path fill="#E2E2E2" d="M508.6,311.1c-0.6,0.7-1.1,1.4-1.7,2.1l6.3,10.2c0.4,0.6,1.1,0.8,1.6,0.3s0.6-1.4,0.2-2L508.6,311.1z"/>
	<path fill="#E2E2E2" d="M503.1,317.7c-0.6,0.7-1.2,1.3-1.7,2l5.8,9.4c0.4,0.6,1.1,0.8,1.6,0.3s0.6-1.4,0.2-2L503.1,317.7z"/>
	<path fill="#E2E2E2" d="M497.4,323.9c-0.6,0.6-1.2,1.3-1.8,1.9l5.5,8.9c0.4,0.6,1.1,0.8,1.6,0.3s0.6-1.4,0.2-2L497.4,323.9z"/>
	<path fill="#E2E2E2" d="M491.6,329.9c-0.6,0.6-1.3,1.2-1.8,1.8l5.4,8.7c0.4,0.6,1.1,0.8,1.6,0.3s0.6-1.4,0.2-2L491.6,329.9z"/>
	<ellipse fill="#C1C1C1" cx="549.5" cy="321.2" rx="10.7" ry="13.1"/>
	<ellipse fill="#E2E2E2" cx="549.5" cy="321.2" rx="8.5" ry="10.4"/>
	<ellipse fill="#FC643A" cx="549.5" cy="321.2" rx="5.4" ry="6.7"/>
</g>
<g>
	<path fill="#66042C" d="M535.5,230.9l0.2,57c0,0,9.9,1.1,10.6-2.8c0.7-3.9,6.8-60.4,8-65.7C555.4,214.1,535.5,230.9,535.5,230.9z"
		/>
	<path fill="#490323" d="M539.3,227.8c-2.2,1.8-3.8,3.1-3.8,3.1l0.2,57c0,0,0.8,0.1,2,0.1L539.3,227.8z"/>
	<path fill="#66042C" d="M552.9,215.7l-28.8,22.1l-27.8,36.8c0,0-42.4,0.3-44.6-1.2c-0.7-0.5-1-0.5-1.1-0.3
		c-0.2,0.4,0.1,2.2,0.9,3.5c1.8,2.7,5.8,5.5,11.1,7.7c6.2,2.6,21.3,8.2,35.3,3.8c5.6-1.7,10-11.4,13.5-18.3c0.8-1.6,1.7-3.3,2.6-5
		c0.5-0.9,1.1-1.9,1.7-3c4.8-8.7,12.4-19.8,29.6-27.4c4.1-2.1,6.8-5.6,8.4-9.6C555.6,217.7,552.9,215.7,552.9,215.7z"/>
	<path fill="#AF1C4D" d="M546.6,282.9c-3,2-7.7,2.3-10.9,2.1v2.9c0,0,9.9,1.1,10.6-2.8C546.3,284.8,546.4,284,546.6,282.9z"/>
	<path fill="#AF1C4D" d="M554.6,214.6c-0.4-5.2-4.5-18.5-7.5-27.8c-0.8-2.4-3.6-14.1-4.6-19.5c-2-0.4-8.4,2.5-13.3,11.7l-8.5-0.1
		c-8.3-7.1-17.2-10.7-29.1-7.2c1.9,6.6,1.5,21.9,1.5,21.9s0.5-14.8,0,0s-3.6,39.8-11.2,49.6c-9.2,12-16.2,15.3-25.3,18.3
		c-10.8,3.6-5.4,12.8-5.4,12.8s19,14,44,10.1c10.8-2.8,13.1-11.9,17.9-20.3c4.8-8.4,11.1-23.1,30.7-31.8
		C550.6,228.9,555.2,223,554.6,214.6z"/>
	<rect x="521.5" y="178.6" fill="#66042C" width="7" height="57.3"/>
	<path fill="#D83068" d="M554.6,214.6c-0.4-5.2-4.5-18.5-7.5-27.8c-0.2-0.6-0.5-1.7-0.8-3.1c-6.4,6.2-18.8,22.6-13.6,55.2
		c3.2-2.4,6.9-4.6,11.2-6.6C550.6,228.9,555.2,223,554.6,214.6z"/>
	<path fill="#D83068" d="M463.8,258.8c-2.3,1.1-4.7,1.9-7.2,2.8c-10.8,3.6-5.4,12.8-5.4,12.8s7.7,5.6,19.7,8.8
		C471.1,273.3,467.2,264.4,463.8,258.8z"/>
	<rect x="520.9" y="232.6" fill="#D83068" width="8.3" height="4"/>
	<g>
		<g>
			<rect x="523" y="178.9" fill="#ED892E" width="1.8" height="1.4"/>
			<rect x="523" y="180.9" fill="#ED892E" width="1.8" height="1.4"/>
			<rect x="523" y="183" fill="#ED892E" width="1.8" height="1.4"/>
			<rect x="523" y="185" fill="#ED892E" width="1.8" height="1.4"/>
			<rect x="523" y="187" fill="#ED892E" width="1.8" height="1.4"/>
			<rect x="523" y="189.1" fill="#ED892E" width="1.8" height="1.4"/>
			<rect x="523" y="191.1" fill="#ED892E" width="1.8" height="1.4"/>
			<rect x="523" y="193.2" fill="#ED892E" width="1.8" height="1.4"/>
			<rect x="523" y="195.2" fill="#ED892E" width="1.8" height="1.4"/>
			<rect x="523" y="197.2" fill="#ED892E" width="1.8" height="1.4"/>
			<rect x="523" y="199.3" fill="#ED892E" width="1.8" height="1.4"/>
			<rect x="523" y="201.3" fill="#ED892E" width="1.8" height="1.4"/>
			<rect x="523" y="203.4" fill="#ED892E" width="1.8" height="1.4"/>
			<rect x="523" y="205.4" fill="#ED892E" width="1.8" height="1.4"/>
			<rect x="523" y="207.4" fill="#ED892E" width="1.8" height="1.4"/>
			<rect x="523" y="209.5" fill="#ED892E" width="1.8" height="1.4"/>
			<rect x="523" y="211.5" fill="#ED892E" width="1.8" height="1.4"/>
			<rect x="523" y="213.6" fill="#ED892E" width="1.8" height="1.4"/>
			<rect x="523" y="215.6" fill="#ED892E" width="1.8" height="1.4"/>
			<rect x="523" y="217.6" fill="#ED892E" width="1.8" height="1.4"/>
			<rect x="523" y="219.7" fill="#ED892E" width="1.8" height="1.4"/>
			<rect x="523" y="221.7" fill="#ED892E" width="1.8" height="1.4"/>
			<rect x="523" y="223.8" fill="#ED892E" width="1.8" height="1.4"/>
			<rect x="523" y="225.8" fill="#ED892E" width="1.8" height="1.4"/>
			<rect x="523" y="227.9" fill="#ED892E" width="1.8" height="1.4"/>
			<rect x="523" y="229.9" fill="#ED892E" width="1.8" height="1.4"/>
			<rect x="525.2" y="179.6" fill="#ED892E" width="1.8" height="1.4"/>
			<rect x="525.2" y="181.6" fill="#ED892E" width="1.8" height="1.4"/>
			<rect x="525.2" y="183.7" fill="#ED892E" width="1.8" height="1.4"/>
			<rect x="525.2" y="185.7" fill="#ED892E" width="1.8" height="1.4"/>
			<rect x="525.2" y="187.7" fill="#ED892E" width="1.8" height="1.4"/>
			<rect x="525.2" y="189.8" fill="#ED892E" width="1.8" height="1.4"/>
			<rect x="525.2" y="191.8" fill="#ED892E" width="1.8" height="1.4"/>
			<rect x="525.2" y="193.9" fill="#ED892E" width="1.8" height="1.4"/>
			<rect x="525.2" y="195.9" fill="#ED892E" width="1.8" height="1.4"/>
			<rect x="525.2" y="197.9" fill="#ED892E" width="1.8" height="1.4"/>
			<rect x="525.2" y="200" fill="#ED892E" width="1.8" height="1.4"/>
			<rect x="525.2" y="202" fill="#ED892E" width="1.8" height="1.4"/>
			<rect x="525.2" y="204.1" fill="#ED892E" width="1.8" height="1.4"/>
			<rect x="525.2" y="206.1" fill="#ED892E" width="1.8" height="1.4"/>
			<rect x="525.2" y="208.1" fill="#ED892E" width="1.8" height="1.4"/>
			<rect x="525.2" y="210.2" fill="#ED892E" width="1.8" height="1.4"/>
			<rect x="525.2" y="212.2" fill="#ED892E" width="1.8" height="1.4"/>
			<rect x="525.2" y="214.3" fill="#ED892E" width="1.8" height="1.4"/>
			<rect x="525.2" y="216.3" fill="#ED892E" width="1.8" height="1.4"/>
			<rect x="525.2" y="218.3" fill="#ED892E" width="1.8" height="1.4"/>
			<rect x="525.2" y="220.4" fill="#ED892E" width="1.8" height="1.4"/>
			<rect x="525.2" y="222.4" fill="#ED892E" width="1.8" height="1.4"/>
			<rect x="525.2" y="224.5" fill="#ED892E" width="1.8" height="1.4"/>
			<rect x="525.2" y="226.5" fill="#ED892E" width="1.8" height="1.4"/>
			<rect x="525.2" y="228.6" fill="#ED892E" width="1.8" height="1.4"/>
			<rect x="525.2" y="230.6" fill="#ED892E" width="1.8" height="1.4"/>
		</g>
		<rect x="524.8" y="178.9" fill="#ED892E" width="0.5" height="53.1"/>
	</g>
	<rect x="523" y="178.8" fill="#ED892E" width="4" height="5"/>
	<rect x="524.3" y="179.5" fill="#FFB048" width="1.4" height="3.9"/>
	<path fill="#D83068" d="M528.6,193.9c0,5-1.6,7-3.6,7s-3.6-2-3.6-7s3.6-11.2,3.6-11.2S528.6,188.9,528.6,193.9z"/>
	<path fill="#FF5A99" d="M525,197.8c-1.6,0-1.9-2.7-1.9-4.2c0-2.3,1.1-4.9,1.9-6.5c0.8,1.6,1.9,4.3,1.9,6.5
		C526.9,195.1,526.6,197.8,525,197.8z"/>
	<path fill="#D8A7BA" d="M513.1,264.2c4.8-8.4,11.1-23.1,30.7-31.8c6.8-3.5,11.4-9.4,10.8-17.8c-0.1-1.3-0.4-3.2-0.9-5.3
		c-3.6,11.2-15.9,18.3-29.8,29.7c-17.3,14.3-19,35.4-32.9,39.6c-10.9,3.3-32.4-4.6-41.1-8.2c0.3,2.3,1.3,4,1.3,4s19,14,44,10.1
		C506,281.7,508.3,272.6,513.1,264.2z"/>
</g>
<g>
	<path fill="#5B5BC1" d="M345.4,124.6c0,0,20.8-3.8,33.7-7.1s30.9-19.2,32.4-20.7c1.5-1.4,9.1,17.1,5.4,25.7c-3.7,8.6-31.6,9-31.6,9
		l-36.5-0.2L345.4,124.6z"/>
	<path fill="#18145B" d="M346,143.8c0,0-3.1-15.7-0.5-19.2c12.9,6,41.2,1.3,47.1-1.6c5.9-2.9,70.7-7.3,70.7-7.3s6.7,24.7-1.8,30.7
		c-8.7,4.1-18,3.2-18,3.2h-17.3l-13.1,1.3l-21.6,0.3l-23.7-3.8l-15.3-2.1L346,143.8z"/>
	<path fill="#381803" d="M463.5,144.7c0,0-25.8,0.7-35.6,2c-9.2,1.2-29.3,3.3-43.7,2c-19.1-1.6-39.1-7.9-39.1-7.9l-0.5,7.2
		c0,0,2.1,0.9,5.7,2.2l1.2-2.6l1.7,3.6c0.6,0.2,1.3,0.4,2,0.7l1.4-3l1.9,4c0.6,0.2,1.1,0.3,1.7,0.5l1.5-3.3l2,4.2
		c0.5,0.1,1.1,0.3,1.7,0.4l1.6-3.3l1.9,4c0.6,0.1,1.2,0.2,1.8,0.3l1.5-3.1l1.7,3.6c0.7,0.1,1.5,0.2,2.2,0.3l1.3-2.7l1.4,3
		c0.9,0.1,1.9,0.2,2.8,0.2l1-2l1,2.2c1.2,0.1,2.4,0.1,3.6,0.1c20.8,0.4,31.5-1.7,44.1-1.8l1.8-3.9l1.8,3.9c0.3,0,0.6,0,0.9,0
		c0.1,0,0.3,0,0.4,0l1.8-3.9l1.9,4c0.4,0,0.8,0,1.2,0l1.9-4.1l2,4.3c0.3,0,0.7,0,1,0l2-4.3l2.1,4.5c0.3,0,0.5,0,0.8,0l2.1-4.5
		l2.2,4.6c0.6,0,1.1,0,1.7,0l2.2-4.6l2,4.3c0.8-0.1,1.4-0.4,1.7-0.6C463.6,151.7,463.5,144.7,463.5,144.7z"/>
	<path fill="#5E290B" d="M427.9,146.8c-9.2,1.2-29.3,3.3-43.7,2c-19.1-1.6-39.1-7.9-39.1-7.9l-0.2,2.7c5.5,1.8,25.7,8.4,40.6,8.5
		c17.4,0.2,33.7-1.8,45.2-2.9c9.5-0.8,24.4-1.5,32.8-1c0.1-2,0-3.6,0-3.6S437.7,145.5,427.9,146.8z"/>
	<g>
		<path fill="#CC7723" d="M364.6,132.4c-1.2,0-2.3,0-3.4-0.1l0.1-1.8c1.1,0,2.2,0.1,3.3,0.1h0.6v1.8H364.6z M366.7,132.4v-1.8
			c1.3,0,2.6-0.1,3.9-0.2l0.1,1.8C369.3,132.3,367.9,132.3,366.7,132.4z M359.8,132.2c-1.3-0.1-2.6-0.2-3.9-0.4l0.2-1.8
			c1.3,0.2,2.6,0.3,3.8,0.4L359.8,132.2z M372.1,132.1l-0.1-1.8c1.3-0.1,2.6-0.2,3.9-0.4l0.1,1.8C374.7,131.8,373.4,132,372.1,132.1
			z M354.4,131.6c-1.3-0.2-2.6-0.5-3.9-0.8l0.3-1.8c1.2,0.3,2.5,0.5,3.8,0.8L354.4,131.6z M377.4,131.5l-0.1-1.8
			c1.4-0.2,2.6-0.3,3.9-0.5l0.2,1.8C380.1,131.2,378.8,131.3,377.4,131.5z M382.8,130.7l-0.2-1.8c1.3-0.2,2.6-0.5,3.8-0.7l0.3,1.8
			C385.4,130.2,384.1,130.5,382.8,130.7z M349.1,130.5c-1.3-0.4-2.6-0.8-3.8-1.2l0.4-1.8c1.2,0.4,2.4,0.8,3.7,1.2L349.1,130.5z
			 M388.1,129.7l-0.3-1.8c1.3-0.3,2.5-0.6,3.8-1l0.3,1.8C390.7,129,389.4,129.3,388.1,129.7z M393.4,128.2l-0.4-1.8
			c1.2-0.4,2.4-0.8,3.7-1.3l0.4,1.8C395.8,127.4,394.6,127.8,393.4,128.2z"/>
		<polygon fill="#CC7723" points="398.6,126.4 398.1,124.7 400.1,123.9 400.5,125.7 		"/>
	</g>
	<path fill="#322A7F" d="M393.8,135.1c0,0-6.2-17.6,4.2-24.9c10.4-7.4,19.7,2.8,20.8,7.8c6.4-0.5,35.9-5.5,42.8-9.7
		c3,2.8,3.2,11,3,12.9C451.9,126.6,393.8,135.1,393.8,135.1z"/>
	<path fill="#381803" d="M398.5,116.6c0.4,1.2,0,2.7-1,3.2s-2.2,0-2.6-1.2c-0.4-1.2,0-2.7,1-3.2
		C396.9,114.8,398.1,115.3,398.5,116.6z"/>
	<path fill="#381803" d="M404.2,113.5c0.4,1.2,0,2.7-1,3.2s-2.2,0-2.6-1.2c-0.4-1.2,0-2.7,1-3.2
		C402.6,111.7,403.7,112.3,404.2,113.5z"/>
	<path fill="#381803" d="M409.8,110.5c0.4,1.2,0,2.7-1,3.2s-2.2,0-2.6-1.3c-0.4-1.2,0-2.7,1-3.2
		C408.2,108.7,409.4,109.2,409.8,110.5z"/>
	<path fill="#CC7723" d="M406.9,111.6c0.2,0.7,0.9,1,1.4,0.7s0.8-1.1,0.5-1.7l-4-11.1c-0.6,0.5-1.2,0.9-1.8,1.4L406.9,111.6z"/>
	<path fill="#CC7723" d="M401.3,114.7c0.2,0.7,0.9,1,1.4,0.7s0.8-1.1,0.5-1.7l-3.6-10c-0.6,0.4-1.2,0.9-1.8,1.3L401.3,114.7z"/>
	<path fill="#CC7723" d="M395.6,117.7c0.2,0.7,0.9,1,1.4,0.7s0.8-1.1,0.5-1.7l-3.3-9.3c-0.6,0.4-1.3,0.8-1.9,1.2L395.6,117.7z"/>
</g>
<g>
	<path fill="#322A7F" d="M544.7,97.3c0,0-21,23.1-35.5,30c-13.8,6.6-26.4,5.6-29.6,7.3c-6.2,3.3-4.8,12.7-4.8,12.7
		s-4.1,16.4,86.2,11c6.5,0.5,24,3.1,34.3-5.5c6.7-25.4-4.5-45.4-7.1-49.9s-6.2-5.4-8.3-3.1c-2,2.3-2.2,13-11.6,13.6
		c-9.4,0.6-19.8-16.1-19.8-16.1H544.7z"/>
	<path fill="#18145B" d="M523.5,159.4c10.2,0.1,22.6-0.2,37.6-1.1c2.5,0.2,6.7,0.7,11.5,0.7c-3-2.4-6.1-3.9-8.7-3.4
		c-8.3,1.8-39.6,1.8-39.6,1.8S524,158.3,523.5,159.4z"/>
	<path fill="#18145B" d="M548.5,97.3h-3.8c0,0-13.2,14.5-25.8,23.9c4.6,3.9,14.3,9,26.5-1.4c4.9-4.1,9.1-7.8,12.7-11
		C552.6,104,548.5,97.3,548.5,97.3z"/>
	<path fill="#5B5BC1" d="M588.2,103L588.2,103c-2.7-4.6-6.3-5.5-8.4-3.2c-2,2.3-2.2,13-11.6,13.6c-9.4,0.6-19.8-16.1-19.8-16.1h-3.2
		c2.4,6.6,10.6,24.3,27.5,23.1C583.1,119.6,587.3,111.7,588.2,103z"/>
	<path fill="#18145B" d="M595.3,152.8c0.6-2.1,1-4.1,1.3-6.2c-12.6-7.3-30.6-13.5-52.1-12c-23.2,1.6-45.1,13.4-57.3,21.2
		c2.1,0.5,4.5,1.1,7.4,1.5c11.4-5.8,26.9-10.9,45.6-11.9c17.8-0.9,30.9,6.7,38.9,13.4C584.9,158.2,590.8,156.6,595.3,152.8z"/>
	<path fill="#2DA1AD" d="M532.3,160.3c-3.3-6.4-5.4-6.8-12.1-6.6c-7.4,0.2-31.1-3.6-35.2-5.8c-4.2-2.2-3.3-6.1-4.3-9.6
		c-0.4-1.4-1.3-2.8-2.6-3.7c-4.7,3.8-4.1,11.4-3.9,12.7c0,0.5,0,1.4,0.7,2.7c2.3,3.9,12.4,10.3,53.5,10.3
		C529.6,160.3,530.9,160.3,532.3,160.3z"/>
	<path fill="#2DA1AD" d="M595.7,153.6l0.2-0.2l0.1-0.3c0.6-2.2,1-4.4,1.4-6.5c-3.8,1.5-17,4-27.1,4.2c-8.9,0.2-10,6-10.1,8.5
		c0.3,0,0.6,0,0.9-0.1c0.6,0,1.3,0.1,2.1,0.2c2.6,0.2,6.1,0.5,10,0.5C583.2,160,590.6,157.9,595.7,153.6z"/>
	<path fill="#5FC8D3" d="M541,136l-17.6-20c-3.6,3-7.3,5.8-10.8,7.9l12.4,14C532.3,140.2,538.1,137.8,541,136z"/>
	<path fill="#5FC8D3" d="M494.2,130.7l10.5,12c7.3,2.3,13.1-0.2,16.1-1.9l-12.7-14.4C503.2,128.6,498.4,129.9,494.2,130.7z"/>
	<path fill="#5FC8D3" d="M537.4,103.1c-2.7,2.7-6.1,6-9.7,9.2l17.6,19.9c7.3,2.3,13.1-0.1,16.1-1.9L537.4,103.1z"/>
	<path fill="#91E0ED" d="M537.4,103.1c-2.7,2.7-6.1,6-9.7,9.2l7.9,9c3.5-2.2,7.3-4.6,11.2-7.5L537.4,103.1z"/>
	<path fill="#91E0ED" d="M523.4,116c-3.6,3-7.3,5.8-10.8,7.9l5.6,6.4c3.8-1.6,7.9-3.6,12.4-6.1L523.4,116z"/>
	<path fill="#91E0ED" d="M508.1,126.3c-4.9,2.3-9.7,3.6-13.9,4.4l4.4,5c4-0.5,8.9-1.5,14.6-3.6L508.1,126.3z"/>
</g>
<g>
	<g>
		<g>
			<g>
				<path fill="#054954" d="M303.6,479h-3.1v27.5h-5.6V479h-3.1v-4.1h11.9L303.6,479L303.6,479z"/>
				<path fill="#054954" d="M319.4,506.5h-5.6v-15.2h-1.6v15.2h-5.6v-31.6h5.6v12.6h1.6v-12.6h5.6V506.5z"/>
				<path fill="#054954" d="M333.5,506.5h-11v-31.6h11v4.1h-5.3v8.5h4.8v3.8h-4.8v11.1h5.4v4.1H333.5z"/>
			</g>
			<g>
				<path fill="#054954" d="M355.2,507.2c-2,0-3.9-0.4-5.6-1.2c-2.3-1.1-3.5-2.6-3.5-4.5c0-1.1,0.3-2,0.9-2.8s1.3-1.2,2.3-1.2
					c0.7,0,1.6,0.3,2.8,0.8c1.2,0.5,2.2,0.8,2.9,0.8c1.7,0,2.6-0.9,2.6-2.6c0-0.8-1-1.6-3-2.3c-2.7-0.9-4.5-1.8-5.4-2.6
					c-2-1.6-3-3.8-3-6.8c0-3.2,0.9-5.8,2.8-7.8c1.8-1.9,3.9-2.8,6.5-2.8c1.5,0,3.1,0.4,4.6,1.2c2,1,2.9,2.4,2.9,4.1
					c0,1.1-0.3,2.1-0.9,2.9s-1.3,1.3-2.3,1.3c-0.5,0-1.3-0.2-2.2-0.6c-1-0.4-1.7-0.6-2.3-0.6c-1.3,0-1.9,0.6-1.9,1.7
					c0,0.6,1,1.2,3,1.9c2.5,0.9,4.3,1.8,5.4,2.8c2,1.8,3,4.3,3,7.6c0,3.2-1,5.9-2.9,7.9C360.1,506.3,357.9,507.2,355.2,507.2z"/>
				<path fill="#054954" d="M386.1,505.7c-1,0.1-1.8-0.1-2.5-0.8c-0.7-0.7-1.1-1.7-1.2-3l-0.8-8l-8.9,1.3l0.8,8c0,0.2,0,0.4,0,0.7
					c0,1.1-0.3,2.1-0.8,2.8c-0.6,0.7-1.3,1.2-2.2,1.3c-1,0.2-1.8-0.1-2.5-0.8c-0.7-0.7-1.1-1.7-1.3-3l-2.3-23.6c0-0.3,0-0.5,0-0.7
					c0-1.1,0.3-2,0.8-2.8c0.5-0.7,1.3-1.2,2.2-1.3c1-0.1,1.8,0.1,2.5,0.8c0.7,0.7,1.1,1.7,1.2,3l0.8,7.8l8.9-1.3l-0.8-7.8
					c0-0.2,0-0.4,0-0.7c0-1.1,0.3-2.1,0.8-2.8c0.6-0.7,1.3-1.2,2.2-1.3c1-0.2,1.8,0.1,2.5,0.8c0.7,0.7,1.1,1.7,1.3,3l2.3,23.6
					c0,0.3,0,0.5,0,0.7c0,1.1-0.3,2-0.8,2.8C387.8,505.1,387,505.5,386.1,505.7z"/>
				<path fill="#054954" d="M399.7,507c-3.2-0.6-5.8-2.4-7.7-5.4c-1.9-2.9-2.8-6.3-2.8-10.3c0-1,0.1-2,0.2-3
					c0.5-4.1,1.9-7.5,4.2-10.1c2.3-2.6,5-3.9,8.2-3.9c0.7,0,1.4,0.1,2.1,0.2c3.2,0.6,5.8,2.4,7.7,5.4c1.9,3,2.9,6.4,2.9,10.4
					c0,1-0.1,2-0.2,2.9c-0.5,4.1-1.9,7.5-4.2,10.1c-2.3,2.6-5,3.9-8.2,3.9C401.1,507.2,400.4,507.1,399.7,507z M402.9,482.3
					c-0.3-0.1-0.6-0.1-0.9-0.1c-1.5,0-2.7,0.7-3.7,2.1s-1.6,3.2-1.9,5.4c-0.1,0.7-0.1,1.4-0.1,2.1c0,2,0.4,3.6,1.2,5
					c0.8,1.3,1.9,2.2,3.4,2.4c0.3,0.1,0.6,0.1,0.9,0.1c1.5,0,2.8-0.7,3.8-2.1c1-1.3,1.6-3.1,1.9-5.4c0.1-0.7,0.1-1.3,0.1-2
					c0-2-0.4-3.6-1.1-5C405.5,483.4,404.3,482.6,402.9,482.3z"/>
				<path fill="#054954" d="M425.9,507.5l-8.6-2.1c-0.8-0.2-1.5-0.7-2.1-1.4c-0.5-0.7-0.8-1.6-0.8-2.7c0-0.3,0-0.6,0.1-0.9l3.6-22.6
					c0.4-2.6,1.5-3.9,3.3-3.9c0.3,0,0.5,0,0.8,0.1l8.3,2c0.9,0.2,1.6,0.7,2,1.4c0.5,0.7,0.7,1.5,0.7,2.5c0,1.1-0.3,2-0.9,2.8
					s-1.4,1.2-2.2,1.2c-0.2,0-0.5,0-0.7-0.1l-5.1-1.2l-0.6,3.9l4.6,1.1c0.9,0.2,1.6,0.7,2,1.4c0.5,0.7,0.7,1.5,0.7,2.5
					c0,1.1-0.3,2.1-0.9,2.8c-0.6,0.8-1.4,1.2-2.3,1.2c-0.2,0-0.5,0-0.7-0.1l-4.7-1.1l-0.6,4.2l5.3,1.3c0.9,0.2,1.5,0.6,2,1.4
					c0.5,0.7,0.7,1.5,0.7,2.5c0,1.1-0.3,2-0.9,2.8s-1.4,1.2-2.3,1.2C426.4,507.5,426.2,507.5,425.9,507.5z"/>
				<path fill="#054954" d="M466.2,494.5c0.8-2.8,2.2-7.4,4.3-13.7c0.6-2,1.7-3.1,3.2-3.1c0.3,0,0.6,0,0.9,0.1
					c0.8,0.2,1.5,0.7,1.9,1.4c0.5,0.7,0.7,1.5,0.7,2.4c0,0.2,0,0.4,0,0.7c-0.1,0.6-0.2,1.1-0.4,1.6l-7.8,21.4
					c-0.8,2.1-2,3.1-3.8,3.1c-0.3,0-0.6,0-1-0.1c-1-0.2-1.8-0.8-2.4-1.7c-0.6-0.9-1-1.9-1.1-3l-1.2-14c-0.9,2.4-2.6,6.6-5.1,12.5
					c-0.8,1.9-2,2.8-3.8,2.8c-0.3,0-0.6,0-0.9-0.1c-1.1-0.3-2-0.9-2.6-1.9c-0.6-0.9-0.9-1.9-0.9-3.1l-0.7-23.5c0-0.6,0-1.1,0.1-1.6
					c0.1-0.9,0.5-1.6,1.1-2.2s1.3-0.9,2.1-0.9c0.2,0,0.5,0,0.7,0.1c1.9,0.4,2.9,2,2.9,4.6l0.1,14.7c1-2.8,2.9-7.5,5.6-14
					c0.7-1.6,1.7-2.4,3.2-2.4c1,0,1.8,0.4,2.5,1.2c0.7,0.8,1.1,1.7,1.2,2.9L466.2,494.5z"/>
				<path fill="#054954" d="M491.1,507.8c-1.3-0.1-2.3-0.9-2.8-2.3c-0.1-0.4-0.4-1.8-0.9-4.2l-8.2-0.9c-0.8,2.3-1.3,3.6-1.5,3.9
					c-0.7,1.3-1.7,1.9-3,1.7c-0.9-0.1-1.7-0.6-2.3-1.4c-0.6-0.8-0.9-1.8-0.8-3c0-0.5,0.2-1.1,0.4-1.7l8.4-22
					c0.5-1.1,1.1-2.1,1.9-2.8c0.8-0.7,1.8-1,2.8-0.9c2.1,0.2,3.5,1.8,4.1,4.6l5,23.4c0.2,0.8,0.2,1.4,0.2,1.9
					c-0.1,1.1-0.5,2-1.2,2.6C492.7,507.6,492,507.9,491.1,507.8z M484.4,484.8c-0.5,1.8-1.3,4.4-2.6,8l4.1,0.4L484.4,484.8z"/>
				<path fill="#054954" d="M503.7,507.2c-2,0-3.9-0.4-5.6-1.2c-2.3-1.1-3.5-2.6-3.5-4.5c0-1.1,0.3-2,0.9-2.8s1.3-1.2,2.3-1.2
					c0.7,0,1.6,0.3,2.8,0.8c1.2,0.5,2.2,0.8,2.9,0.8c1.7,0,2.6-0.9,2.6-2.6c0-0.8-1-1.6-3-2.3c-2.7-0.9-4.5-1.8-5.4-2.6
					c-2-1.6-3-3.8-3-6.8c0-3.2,0.9-5.8,2.8-7.8c1.8-1.9,3.9-2.8,6.5-2.8c1.5,0,3.1,0.4,4.6,1.2c2,1,2.9,2.4,2.9,4.1
					c0,1.1-0.3,2.1-0.9,2.9s-1.3,1.3-2.3,1.3c-0.5,0-1.3-0.2-2.2-0.6c-1-0.4-1.7-0.6-2.3-0.6c-1.3,0-1.9,0.6-1.9,1.7
					c0,0.6,1,1.2,3,1.9c2.5,0.9,4.3,1.8,5.4,2.8c2,1.8,3,4.3,3,7.6c0,3.2-1,5.9-2.9,7.9C508.5,506.3,506.3,507.2,503.7,507.2z"/>
				<path fill="#054954" d="M534.6,505.7c-1,0.1-1.8-0.1-2.5-0.8c-0.7-0.7-1.1-1.7-1.2-3l-0.8-8l-8.9,1.3l0.8,8c0,0.2,0,0.4,0,0.7
					c0,1.1-0.3,2.1-0.8,2.8c-0.6,0.7-1.3,1.2-2.2,1.3c-1,0.2-1.8-0.1-2.5-0.8c-0.7-0.7-1.1-1.7-1.3-3l-2.3-23.6c0-0.3,0-0.5,0-0.7
					c0-1.1,0.3-2,0.8-2.8c0.5-0.7,1.3-1.2,2.2-1.3c1-0.1,1.8,0.1,2.5,0.8c0.7,0.7,1.1,1.7,1.2,3l0.8,7.8l8.9-1.3l-0.8-7.8
					c0-0.2,0-0.4,0-0.7c0-1.1,0.3-2.1,0.8-2.8c0.6-0.7,1.3-1.2,2.2-1.3c1-0.2,1.8,0.1,2.5,0.8c0.7,0.7,1.1,1.7,1.3,3l2.3,23.6
					c0,0.3,0,0.5,0,0.7c0,1.1-0.3,2-0.8,2.8C536.2,505.1,535.5,505.5,534.6,505.7z"/>
			</g>
			<g>
				<path fill="#054954" d="M560.6,485.9h-5.1v-6.3c0-0.5-0.3-0.8-0.8-0.8s-0.8,0.3-0.8,0.8v21.9c0,0.5,0.3,0.8,0.8,0.8
					s0.8-0.3,0.8-0.8v-7.8h5.1v8c0,1.5-0.6,2.7-1.8,3.6s-2.5,1.4-4,1.4c-4.3,0-6.5-1.9-6.5-5.7v-20.3c0-4.1,2.2-6.1,6.5-6.1
					c3.9,0,5.8,1.9,5.8,5.6V485.9z"/>
				<path fill="#054954" d="M563.8,501.1v-20.3c0-4.1,2.2-6.1,6.5-6.1s6.4,2,6.4,6.1V501c0,1.8-0.6,3.2-1.8,4.2s-2.7,1.5-4.6,1.5
					C565.9,506.8,563.8,504.9,563.8,501.1z M571.1,501.4v-21.5c0-0.6-0.3-0.9-0.9-0.9c-0.6,0-0.9,0.3-0.9,0.9v21.5
					c0,0.6,0.3,0.9,0.9,0.9C570.8,502.4,571.1,502.1,571.1,501.4z"/>
				<path fill="#054954" d="M599.4,506.5h-5v-17.7l-2.9,17.7h-3.9l-3.4-17.7v17.7h-4.4v-31.6h7.2l2.6,16.4l2.2-16.4h7.6L599.4,506.5
					L599.4,506.5z"/>
				<path fill="#054954" d="M608.1,494.9v11.6h-5.5v-31.6h5.9c2.4,0,4.1,0.4,5.2,1.1c1.1,0.7,1.7,2.2,1.7,4.5v8.8
					c0,2.1-0.5,3.5-1.4,4.4C613.1,494.5,611.1,494.9,608.1,494.9z M609.9,488.7v-7.6c0-1.1-0.6-1.7-1.9-1.7v10.9
					C609.3,490.3,609.9,489.8,609.9,488.7z"/>
				<path fill="#054954" d="M633.6,506.5H628l-1-8.5h-2.5l-1,8.5H618l4.2-31.6h7.1L633.6,506.5z M626.6,493.6l-0.8-9.4l-0.8,9.4
					H626.6z"/>
				<path fill="#054954" d="M650.8,506.5H645l-3.8-16.8v16.8h-4.7v-31.6h6.4l3.2,14.4v-14.4h4.7L650.8,506.5L650.8,506.5z"/>
				<path fill="#054954" d="M669.4,474.9l-3.7,12.7l-1.8,6.4v12.5h-5.6v-12.2c-0.1-1.1-0.6-3.3-1.4-6.5c-0.7-2.7-1.8-7-3.3-12.8h5.4
					l2.5,11.2l2.9-11.2h5V474.9z"/>
			</g>
		</g>
	</g>
</g>
</svg>
