<?xml version="1.0" encoding="utf-8"?>
<!-- Generator: Adobe Illustrator 18.0.0, SVG Export Plug-In . SVG Version: 6.00 Build 0)  -->
<!DOCTYPE svg PUBLIC "-//W3C//DTD SVG 1.1//EN" "http://www.w3.org/Graphics/SVG/1.1/DTD/svg11.dtd">
<svg version="1.1" id="Layer_1" xmlns="http://www.w3.org/2000/svg" xmlns:xlink="http://www.w3.org/1999/xlink" x="0px" y="0px"
	 viewBox="0 0 409.7 372" enable-background="new 0 0 409.7 372" xml:space="preserve">
<g>
	<g>
		<g>
			<defs>
				<rect id="SVGID_1_" x="79.6" y="55.5" width="299.7" height="216.6"/>
			</defs>
			<clipPath id="SVGID_2_">
				<use xlink:href="#SVGID_1_"  overflow="visible"/>
			</clipPath>
			<g clip-path="url(#SVGID_2_)">
				<path fill="#1EB4D7" d="M352.7,224.5c0-14.3-7.9-26.7-19.5-33.2c8.7-2.9,15.1-11.1,15.1-20.7c0-12.1-9.8-21.8-21.8-21.8
					c-2.4,0-4.8,0.4-6.9,1.1c1.4-2.9,2.2-6.1,2.2-9.6c0-12.1-9.8-21.8-21.8-21.8c-7.1,0-13.4,3.4-17.3,8.6
					c-1.5-18.1-16.6-32.4-35.1-32.4c-16.1,0-29.7,10.8-33.9,25.6c-3.6-7.2-11-12.2-19.6-12.2c-12.1,0-21.8,9.8-21.8,21.8
					c0,3.9,1,7.5,2.8,10.7c-10.3,1.8-18.1,10.7-18.1,21.5c0,2,0.3,4,0.8,5.8c-3.1-1.8-6.8-2.8-10.6-2.8c-12.1,0-21.8,9.8-21.8,21.8
					c0,9.7,6.4,18,15.1,20.8c-5.1,6.1-8.1,13.9-8.1,22.5c0,18.4,14.1,33.5,32,35.1c-0.6,2-0.9,4.1-0.9,6.3
					c0,12.1,9.8,21.8,21.8,21.8c8.1,0,15.2-4.4,19-11c6.5,7.9,16.3,13,27.3,13c10.5,0,19.9-4.6,26.3-11.8c6.5,7.1,15.7,11.5,26,11.5
					c18.6,0,33.8-14.4,35.1-32.7C337.9,260.2,352.7,244.1,352.7,224.5z"/>
				<polygon fill="#39C5F3" points="353.6,133.3 355.3,141.5 356.9,133.3 365.2,131.3 356.9,129.3 355.3,121.1 353.6,129.3 
					345.3,131.3 				"/>
				<polygon fill="#39C5F3" points="337.9,140.2 339.2,146.7 340.4,140.2 347.1,138.6 340.4,137 339.2,130.5 337.9,137 331.2,138.6 
									"/>
				<circle fill="#60BEC8" cx="109.7" cy="250.6" r="10.1"/>
				<circle fill="#39C5F3" cx="281.9" cy="94.6" r="10.1"/>
				<circle fill="#39C5F3" cx="304.6" cy="100.1" r="5.5"/>
				<circle fill="#60BEC8" cx="115.3" cy="230.2" r="5.5"/>
				<path fill="#FFF9EF" d="M239.8,100.5c0,0,24.8-8.7,36.9,16.5C276.8,117,260.6,99.1,239.8,100.5z"/>
				<path fill="#FFF9EF" d="M343.3,207.8c0,0,14.6,21.8-6.8,39.9C336.5,247.7,349.9,227.6,343.3,207.8z"/>
				<path fill="#FFF9EF" d="M296.7,121.5c0,0,14.4-6.4,22.7,16.1C319.4,137.6,310.7,123.1,296.7,121.5z"/>
				<path fill="#FFF9EF" d="M331.4,152.9c0,0,15.8,1.2,12.3,24.9C343.7,177.8,343,161,331.4,152.9z"/>
				<path fill="#FFF9EF" d="M177.8,122.3c0,0,7.2-16,29.6-6.4C207.3,115.9,190.2,112.4,177.8,122.3z"/>
				<path fill="#FFF9EF" d="M128.7,182.9c0,0,4.7-16.9,28.3-10.8C156.9,172,139.5,171.1,128.7,182.9z"/>
				<path fill="#FFF9EF" d="M277.7,87.2c0,0,5.5-2.8,8.7,0c3.2,2.8,3.2,6.6,3.2,6.6S286.5,87.5,277.7,87.2z"/>
				<path fill="#FFF9EF" d="M367.3,249.7c0,0,5.5-2.8,8.7,0c3.2,2.8,3.2,6.6,3.2,6.6S376.2,250,367.3,249.7z"/>
				<path fill="#FFF9EF" d="M106.1,245.3c0,0,5.5-2.8,8.7,0c3.2,2.8,3.2,6.6,3.2,6.6S114.9,245.6,106.1,245.3z"/>
				<path fill="#FFF9EF" d="M302.7,96.4c0,0,2.8-1.4,4.4,0c1.6,1.4,1.6,3.3,1.6,3.3S307.1,96.5,302.7,96.4z"/>
				<circle fill="#39C5F3" cx="361.8" cy="195.7" r="7.6"/>
				<path fill="#FFF9EF" d="M358.6,190.1c0,0,4.2-2.1,6.6,0c2.4,2.1,2.4,5,2.4,5S365.3,190.4,358.6,190.1z"/>
				<path fill="#FFF9EF" d="M385,195.1c0,0,2.8-1.4,4.4,0c1.6,1.4,1.6,3.3,1.6,3.3S389.5,195.2,385,195.1z"/>
				<path fill="#FFF9EF" d="M113.4,226.6c0,0,2.8-1.4,4.4,0c1.6,1.4,1.6,3.3,1.6,3.3S117.8,226.7,113.4,226.6z"/>
				<path fill="#FFF9EF" d="M165.9,256.4c0,0-26.1,4.3-25.5-23.9C140.5,232.4,141.7,253.6,165.9,256.4z"/>
				<path fill="#FFF9EF" d="M311.3,264.5c0,0,1,30.7-33,23.5C278.3,288.1,304.1,291.5,311.3,264.5z"/>
			</g>
		</g>
		<g>
			<path fill="#1EB4D7" d="M202.6,228.6c0-9.3-5.1-17.4-12.7-21.7c5.7-1.9,9.8-7.2,9.8-13.5c0-7.9-6.4-14.2-14.2-14.2
				c-1.6,0-3.1,0.3-4.5,0.7c0.9-1.9,1.5-4,1.5-6.3c0-7.9-6.4-14.2-14.2-14.2c-4.6,0-8.7,2.2-11.3,5.6C156,153.3,146.1,144,134,144
				c-10.5,0-19.4,7.1-22.1,16.7c-2.3-4.7-7.1-7.9-12.7-7.9c-7.9,0-14.2,6.4-14.2,14.2c0,2.5,0.7,4.9,1.8,7c-6.7,1.1-11.8,7-11.8,14
				c0,1.3,0.2,2.6,0.5,3.8c-2-1.1-4.4-1.8-6.9-1.8c-7.9,0-14.2,6.4-14.2,14.2c0,6.3,4.1,11.7,9.9,13.5c-3.3,4-5.3,9.1-5.3,14.6
				c0,12,9.2,21.8,20.9,22.9c-0.4,1.3-0.6,2.7-0.6,4.1c0,7.9,6.4,14.2,14.2,14.2c5.3,0,9.9-2.9,12.4-7.2c4.2,5.2,10.6,8.4,17.8,8.4
				c6.8,0,12.9-3,17.1-7.7c4.2,4.6,10.2,7.5,17,7.5c12.1,0,22-9.4,22.9-21.3C193,251.9,202.6,241.4,202.6,228.6z"/>
			<polygon fill="#39C5F3" points="44.4,186.6 43.3,181.3 42.3,186.6 36.9,187.9 42.3,189.3 43.3,194.6 44.4,189.3 49.8,187.9 			
				"/>
			<polygon fill="#39C5F3" points="54.7,182.1 53.8,177.9 53,182.1 48.7,183.2 53,184.2 53.8,188.5 54.7,184.2 59,183.2 			"/>
			<polygon fill="#39C5F3" points="199.2,263.6 200.3,268.9 201.3,263.6 206.8,262.3 201.3,261 200.3,255.7 199.2,261 193.8,262.3 
							"/>
			<circle fill="#39C5F3" cx="72.6" cy="167.4" r="6.6"/>
			<circle fill="#39C5F3" cx="44.3" cy="245.6" r="6.6"/>
			<circle fill="#39C5F3" cx="156.5" cy="144" r="6.6"/>
			<circle fill="#39C5F3" cx="214.6" cy="249.1" r="6.6"/>
			<circle fill="#39C5F3" cx="221.2" cy="262.3" r="3.6"/>
			<circle fill="#39C5F3" cx="171.3" cy="147.6" r="3.6"/>
			<circle fill="#39C5F3" cx="47.9" cy="232.4" r="3.6"/>
			<circle fill="#39C5F3" cx="69" cy="147.6" r="3.6"/>
			<path fill="#FFF9EF" d="M129.1,147.8c0,0,16.1-5.7,24.1,10.8C153.1,158.6,142.6,146.9,129.1,147.8z"/>
			<path fill="#FFF9EF" d="M196.5,217.7c0,0,9.5,14.2-4.5,26C192.1,243.7,200.8,230.6,196.5,217.7z"/>
			<path fill="#FFF9EF" d="M166.1,161.5c0,0,9.4-4.2,14.8,10.5C180.9,172,175.3,162.6,166.1,161.5z"/>
			<path fill="#FFF9EF" d="M188.8,182c0,0,10.3,0.8,8,16.2C196.8,198.2,196.3,187.2,188.8,182z"/>
			<path fill="#FFF9EF" d="M88.6,162.1c0,0,4.7-10.4,19.3-4.2C107.9,157.9,96.8,155.6,88.6,162.1z"/>
			<path fill="#FFF9EF" d="M56.7,201.5c0,0,3.1-11,18.4-7.1C75.1,194.4,63.7,193.9,56.7,201.5z"/>
			<path fill="#FFF9EF" d="M153.7,139.2c0,0,3.6-1.8,5.7,0c2.1,1.8,2.1,4.3,2.1,4.3S159.5,139.4,153.7,139.2z"/>
			<path fill="#FFF9EF" d="M212.2,245c0,0,3.6-1.8,5.7,0c2.1,1.8,2.1,4.3,2.1,4.3S217.9,245.2,212.2,245z"/>
			<path fill="#FFF9EF" d="M70.3,162.9c0,0,3.6-1.8,5.7,0c2.1,1.8,2.1,4.3,2.1,4.3S76.1,163.1,70.3,162.9z"/>
			<path fill="#FFF9EF" d="M42,242.2c0,0,3.6-1.8,5.7,0c2.1,1.8,2.1,4.3,2.1,4.3S47.7,242.4,42,242.2z"/>
			<path fill="#FFF9EF" d="M170,145.2c0,0,1.8-0.9,2.8,0c1,0.9,1,2.1,1,2.1S172.9,145.3,170,145.2z"/>
			<path fill="#FFF9EF" d="M67.6,145.5c0,0,1.8-0.9,2.8,0c1,0.9,1,2.1,1,2.1S70.5,145.5,67.6,145.5z"/>
			<path fill="#FFF9EF" d="M46.7,230c0,0,1.8-0.9,2.8,0s1,2.1,1,2.1S49.6,230.1,46.7,230z"/>
			<path fill="#FFF9EF" d="M80.9,249.4c0,0-17,2.8-16.6-15.6C64.3,233.8,65.1,247.6,80.9,249.4z"/>
			<path fill="#FFF9EF" d="M175.6,254.7c0,0,0.7,20-21.5,15.3C154.2,270.1,170.9,272.3,175.6,254.7z"/>
		</g>
		<g>
			<g>
				<path fill="#0D5D78" d="M46.3,111.5c0,0-6.9,6.5-6.3,8.2c0.6,1.7,8.8,15.2,11.9,16.5c3.1,1.3,9.4-5.9,9.4-5.9L46.3,111.5z"/>
				<path fill="#0D5D78" d="M62.6,137.2c0,0-5.7,7.6-4.8,9.1c0.9,1.5,11.2,13.5,14.5,14.2c3.3,0.8,8.3-7.4,8.3-7.4L62.6,137.2z"/>
				<path fill="#0D5D78" d="M85.2,158.5c0,0-5.7,7.6-4.8,9.1c0.9,1.5,11.2,13.5,14.5,14.2c3.3,0.8,8.3-7.4,8.3-7.4L85.2,158.5z"/>
				<path fill="#0D5D78" d="M108.8,180.5c0,0-6.6,6.8-5.9,8.4c0.7,1.6,9.4,14.8,12.6,16c3.1,1.2,9.2-6.3,9.2-6.3L108.8,180.5z"/>
				<path fill="#0D5D78" d="M129.4,203.4c0,0-6.1,7.2-5.4,8.8c0.8,1.6,10.3,14.2,13.5,15.1c3.2,1,8.8-6.8,8.8-6.8L129.4,203.4z"/>
				<path fill="#0D5D78" d="M151.1,228.3c0,0-5.3,7.8-4.4,9.3c0.9,1.5,11.8,13,15.1,13.6c3.3,0.6,8-7.7,8-7.7L151.1,228.3z"/>
				<g>
					<path fill="#EE4723" d="M297.2,266.5c-0.4,1.2-0.9,2.3-1.4,3.3l-12.2,4.4c-15.7,1.3-43.3-2.3-67.7-6.4
						c-11.9-2-22.8-6.4-32.6-12.1c-0.6-0.3-1.1-0.6-1.7-1c-4.7-2.8-9.1-5.8-13.2-9c-2-1.6-4-3.2-5.9-4.8c-4.5-3.8-8.5-7.7-12.2-11.4
						c-2.2-2.2-4.2-4.4-6.1-6.5c-4.6-5.1-8.3-9.7-11.1-13.1c-1.6-1.9-3.1-3.8-4.6-5.6c-1.5-1.8-3-3.6-4.4-5.3
						c-6-7-11.3-12.8-16.2-17.8c-21.3-21.8-32.6-26.4-40-34.7c-3.3-3.7-24.8-24.8-24.6-30.5c0-0.8,0.6-1.8,1.5-2.9
						c3.6-4.6,13.1-11.6,19.5-16.2c3.8-2.7,6.5-4.5,6.5-4.5c0-0.1,0.1-0.2,0.1-0.4c0.9-2.2,6.1-6.9,13.3-12.5c3-2.3,6.3-4.8,9.8-7.3
						c5.6-4.1,11.7-8.4,17.5-12.3c18.4-12.4,13.4-17.6,18.9-24.2c5.4-6.5,10.9-1.9,11.8-0.9c0,0,6.4,4.3,3.8,16.8
						c-3.7,17.9,0.7,26.8,9,36.5c3.1,3.6,8.5,5.1,14,5.6c0,0,0.2,0,0.6,0c2.5,0.2,5,0.1,7.2,0c0,0,0,0,0.1,0c0.3,0,0.6,0,0.9-0.1
						c0.1,0,0.3,0,0.5,0c5.2-0.4,9.1-1.3,9.1-1.3s22.4-3.7,26.1,1.9c1,1.6,0.8,11.4,1.4,24.9c0.1,2.7,0.3,5.6,0.4,8.6
						c0.3,4.1,0.6,8.4,1.1,12.8c0.3,2.8,0.7,5.6,1,8.4c0.6,4,1.3,8,2.1,12.1c0.6,2.7,1.2,5.5,1.9,8.2c1,3.7,2.1,7.4,3.3,11
						c0.9,2.7,2,5.3,3.1,7.9c2.4,5.5,5.2,10.8,8.6,15.6l0.1,0.1c0.6,0.9,1.3,1.8,2,2.7l0.1,0.1c1.9,2.5,4,4.8,6.2,6.9c0,0,0,0,0,0
						c5.6,7.4,48.6,14.1,52.8,27.2c0.7,2.3,1.5,7.5,1.4,13.2C299.1,258.4,298.6,262.8,297.2,266.5z"/>
					<path fill="#0D5D78" stroke="#FFFFFF" stroke-width="2.2834" stroke-miterlimit="10" d="M218.6,190.7c-1.6,0.4-3.3-1.2-3.8-3.4
						l0,0c-0.5-2.3,0.3-4.4,1.9-4.8l11.5-2.7c1.6-0.4,3.3,1.2,3.8,3.4l0,0c0.5,2.3-0.3,4.4-1.9,4.8L218.6,190.7z"/>
					<path fill="#0D5D78" stroke="#FFFFFF" stroke-width="2.2834" stroke-miterlimit="10" d="M213,171.5c-1.6,0.4-3.3-1.2-3.8-3.4
						l0,0c-0.5-2.3,0.3-4.4,1.9-4.8l11.5-2.7c1.6-0.4,3.3,1.2,3.8,3.4l0,0c0.5,2.3-0.3,4.4-1.9,4.8L213,171.5z"/>
					<path fill="#0D5D78" stroke="#FFFFFF" stroke-width="2.2834" stroke-miterlimit="10" d="M209.6,151c-1.6,0.4-3.3-1.2-3.8-3.4
						l0,0c-0.5-2.3,0.3-4.4,1.9-4.8l11.5-2.7c1.6-0.4,3.3,1.2,3.8,3.4l0,0c0.5,2.3-0.3,4.4-1.9,4.8L209.6,151z"/>
					<path fill="#0D5D78" stroke="#FFFFFF" stroke-width="2.2834" stroke-miterlimit="10" d="M206.5,130c-1.6,0.4-3.3-1.2-3.8-3.4
						l0,0c-0.5-2.3,0.3-4.4,1.9-4.8l11.5-2.7c1.6-0.4,3.3,1.2,3.9,3.4l0,0c0.5,2.3-0.3,4.4-1.9,4.8L206.5,130z"/>
					<path fill="#FFFFFF" d="M297.2,266.5c-0.4,1.2-0.9,2.3-1.4,3.3c-33.3-6.7-68.6-19-94.1-32.8c-9.8-5.3-18.2-10.9-24.5-16.4
						c-2.8-2.5-5.2-5-7.1-7.5c-10-13.2-21.6-24.7-34.2-36.4c-5-4.7-10.2-9.4-15.5-14.2c-6.6-6-13.4-12.3-20.3-19.1
						c-18.1-17.7-29.3-35-34.5-44.1c-0.5-0.8-1.3-1.5-1.3-2.3c0-1.1,3-4.6,6.6-4.9c0.4,0,0.4,0.7,0.6,1c6.9,12.6,18.6,32.3,31,46.2
						c8.5,9.5,11.5,12,17.3,17.3c3.7,3.4,27.3-0.3,35.4,8.1c8.2,8.6,0.2,30.2,18.3,48.8c1.3,1.4,2.7,2.7,4.2,4
						c7.1,6.5,15.3,12.2,24.4,17.3C231,251.2,267.5,260.9,297.2,266.5z"/>
					<path fill="#FFFFFF" d="M176.9,93.9c0,0,13.7-1.8,14.7,11.1c1,13,5.3,84.9,16.2,93.3c10.9,8.4,28.8,5.8,28.8,5.8l2.2,2.9
						c0,0-29.6,7-39.8-7.8c-10.2-14.8-8.7-89.2-15.4-97.3c-6.7-8-14.5-8.1-14.5-8.1L176.9,93.9z"/>
				</g>
			</g>
		</g>
		<g>
			<defs>
				<rect id="SVGID_3_" x="78.4" y="173.7" width="339.2" height="101.5"/>
			</defs>
			<clipPath id="SVGID_4_">
				<use xlink:href="#SVGID_3_"  overflow="visible"/>
			</clipPath>
			<g clip-path="url(#SVGID_4_)">
				<path fill="#39C5F3" d="M368.6,322.2c-2.1-14.8-12.1-26.5-25.1-31.5c8.6-4.2,13.9-13.6,12.5-23.7c-1.8-12.5-13.3-21.1-25.8-19.4
					c-2.5,0.4-4.8,1.1-7,2.2c1-3.2,1.4-6.7,0.9-10.2c-1.8-12.5-13.3-21.1-25.8-19.4c-7.3,1-13.3,5.5-16.7,11.4
					c-4.2-18.5-22-31.1-41.1-28.3c-16.7,2.4-29.1,15.6-31.3,31.5c-4.7-6.9-13.1-11-22-9.7c-12.5,1.8-21.1,13.3-19.4,25.8
					c0.6,4,2.2,7.7,4.5,10.7c-10.4,3.3-17.2,13.7-15.6,24.9c0.3,2.1,0.9,4.1,1.7,5.9c-3.5-1.3-7.4-1.9-11.4-1.3
					c-12.5,1.8-21.1,13.3-19.4,25.8c1.4,10.1,9.2,17.6,18.7,19.3c-4.3,7.1-6.3,15.6-5.1,24.4c2.7,19,19.5,32.5,38.3,31.6
					c-0.3,2.1-0.4,4.4,0,6.6c1.8,12.5,13.3,21.1,25.8,19.4c8.4-1.2,15.1-6.8,18-14.2c7.9,7.2,18.8,11,30.1,9.4
					c10.8-1.5,19.8-7.7,25.5-16.1c7.7,6.4,17.9,9.6,28.6,8.1c19.3-2.7,32.9-19.9,31.5-39C358.6,361.3,371.5,342.5,368.6,322.2z"/>
				<polygon fill="#1EB4D7" points="108.1,291.4 105.2,283.2 104.7,291.8 96.4,295.2 105.3,296 108.2,304.2 108.7,295.5 117,292.2 
									"/>
				<polygon fill="#1EB4D7" points="123.4,281.9 121.1,275.4 120.7,282.3 114.1,284.9 121.2,285.6 123.5,292.1 123.8,285.2 
					130.5,282.6 				"/>
				<polygon fill="#60BEC8" points="371.2,378.5 374,386.7 374.5,378 382.8,374.7 373.9,373.8 371,365.7 370.6,374.3 362.2,377.6 
									"/>
				<circle fill="#39C5F3" cx="173.2" cy="211.7" r="10.5"/>
				<circle fill="#60BEC8" cx="121.3" cy="385" r="10.5"/>
				<circle fill="#39C5F3" cx="276.3" cy="198.4" r="10.5"/>
				<circle fill="#60BEC8" cx="392.3" cy="352" r="10.5"/>
				<circle fill="#60BEC8" cx="405.8" cy="371.4" r="5.8"/>
				<circle fill="#39C5F3" cx="300.5" cy="200.7" r="5.8"/>
				<circle fill="#60BEC8" cx="124" cy="363.1" r="5.8"/>
				<circle fill="#39C5F3" cx="178.5" cy="179.9" r="5.8"/>
				<path fill="#FFF9EF" d="M233.7,210.6c0,0,24.3-12.6,40.6,11.7C274.3,222.3,255,206.1,233.7,210.6z"/>
				<path fill="#FFF9EF" d="M356.5,306.3c0,0,18.3,20.4-1.2,42.2C355.3,348.6,366.2,325.8,356.5,306.3z"/>
				<path fill="#FFF9EF" d="M295.5,224c0,0,14-8.7,25.8,13.3C321.3,237.3,310.3,223.6,295.5,224z"/>
				<path fill="#FFF9EF" d="M336.1,251.3c0,0,16.5-1.1,16.4,23.9C352.5,275.3,349.3,258,336.1,251.3z"/>
				<path fill="#FFF9EF" d="M172.7,242.4c0,0,5.1-17.6,29.6-11C202.3,231.4,184.2,230.3,172.7,242.4z"/>
				<path fill="#FFF9EF" d="M130.9,312.2c0,0,2.4-18.2,27.6-15.4C158.5,296.8,140.3,298.5,130.9,312.2z"/>
				<path fill="#FFF9EF" d="M270.8,191.4c0,0,5.3-3.7,9-1.3c3.7,2.4,4.3,6.3,4.3,6.3S280,190.3,270.8,191.4z"/>
				<path fill="#FFF9EF" d="M387.5,346.1c0,0,5.3-3.7,9-1.3c3.7,2.4,4.3,6.3,4.3,6.3S396.7,345.1,387.5,346.1z"/>
				<path fill="#FFF9EF" d="M172.2,203.7c0,0,6.4-0.8,8.6,3.1c2.2,3.9,0.8,7.6,0.8,7.6S180.8,207.2,172.2,203.7z"/>
				<path fill="#FFF9EF" d="M116.8,380.1c0,0,5.3-3.7,9-1.3c3.7,2.4,4.3,6.3,4.3,6.3S125.9,379,116.8,380.1z"/>
				<path fill="#FFF9EF" d="M298.1,197.2c0,0,2.6-1.9,4.5-0.6c1.9,1.2,2.1,3.2,2.1,3.2S302.7,196.7,298.1,197.2z"/>
				<path fill="#FFF9EF" d="M177.7,176c0,0,3.2-0.4,4.3,1.6c1.1,2,0.4,3.8,0.4,3.8S182,177.7,177.7,176z"/>
				<path fill="#FFF9EF" d="M121.6,359.7c0,0,2.6-1.9,4.5-0.6c1.9,1.2,2.1,3.2,2.1,3.2S126.2,359.1,121.6,359.7z"/>
				<path fill="#FFF9EF" d="M180.2,382.7c0,0-26.4,8.3-29.9-21C150.4,361.7,154.7,383.4,180.2,382.7z"/>
				<path fill="#FFF9EF" d="M331.7,369.7c0,0,5.6,31.6-30.6,29.2C301.1,398.9,328.2,398.7,331.7,369.7z"/>
				<polygon fill="#1EB4D7" points="357.4,250 359.3,255.6 359.6,249.7 365.3,247.5 359.2,246.9 357.3,241.3 357,247.2 351.3,249.4 
									"/>
				<circle fill="#1EB4D7" cx="371.7" cy="238.6" r="7.1"/>
				<circle fill="#1EB4D7" cx="380.8" cy="251.8" r="3.9"/>
				<path fill="#FFF9EF" d="M368.4,234.7c0,0,3.6-2.5,6.1-0.9c2.5,1.6,2.9,4.3,2.9,4.3S374.6,234,368.4,234.7z"/>
			</g>
		</g>
		<g>
			<path fill="#0D5D78" stroke="#FFFFFF" stroke-miterlimit="10" d="M56,291h-2.7v19.5h-4.9V291h-2.7v-2.9H56V291z"/>
			<path fill="#0D5D78" stroke="#FFFFFF" stroke-miterlimit="10" d="M69.8,310.5h-4.9v-10.7h-1.4v10.7h-4.9v-22.4h4.9v8.9h1.4v-8.9
				h4.9V310.5z"/>
			<path fill="#0D5D78" stroke="#FFFFFF" stroke-miterlimit="10" d="M82.1,310.5h-9.6v-22.4H82v2.9h-4.6v6.1h4.2v2.7h-4.2v7.9h4.7
				V310.5z"/>
		</g>
		<g>
			<path fill="#0D5D78" stroke="#FFFFFF" stroke-miterlimit="10" d="M101.1,311c-1.8,0-3.4-0.3-4.9-0.9c-2-0.8-3-1.8-3-3.2
				c0-0.8,0.3-1.4,0.8-2c0.5-0.6,1.2-0.8,2-0.8c0.6,0,1.4,0.2,2.5,0.6c1.1,0.4,1.9,0.6,2.5,0.6c1.5,0,2.3-0.6,2.3-1.8
				c0-0.6-0.9-1.1-2.6-1.6c-2.3-0.7-3.9-1.3-4.7-1.8c-1.7-1.1-2.6-2.7-2.6-4.8c0-2.3,0.8-4.1,2.5-5.5c1.5-1.3,3.4-2,5.6-2
				c1.3,0,2.7,0.3,4,0.8c1.7,0.7,2.6,1.7,2.6,2.9c0,0.8-0.2,1.5-0.7,2c-0.5,0.6-1.2,0.9-2,0.9c-0.5,0-1.1-0.1-2-0.4
				c-0.9-0.3-1.5-0.4-2-0.4c-1.1,0-1.7,0.4-1.7,1.2c0,0.4,0.9,0.9,2.6,1.4c2.2,0.6,3.8,1.3,4.7,2c1.7,1.3,2.6,3.1,2.6,5.4
				c0,2.3-0.8,4.2-2.5,5.6C105.3,310.3,103.4,311,101.1,311z"/>
			<path fill="#0D5D78" stroke="#FFFFFF" stroke-miterlimit="10" d="M128,309.9c-0.9,0.1-1.6-0.1-2.2-0.6c-0.6-0.5-1-1.2-1.1-2.1
				l-0.7-5.7l-7.8,1l0.7,5.7c0,0.2,0,0.3,0,0.5c0,0.8-0.2,1.5-0.7,2c-0.5,0.5-1.1,0.8-1.9,0.9c-0.9,0.1-1.6-0.1-2.2-0.5
				c-0.6-0.5-1-1.2-1.1-2.1l-2-16.7c0-0.2,0-0.3,0-0.5c0-0.8,0.2-1.4,0.7-2c0.5-0.5,1.1-0.8,1.9-0.9c0.9-0.1,1.6,0.1,2.2,0.6
				c0.6,0.5,1,1.2,1.1,2.1l0.7,5.5l7.8-1l-0.7-5.5c0-0.2,0-0.3,0-0.5c0-0.8,0.2-1.5,0.7-2c0.5-0.5,1.1-0.8,1.9-0.9
				c0.9-0.1,1.6,0.1,2.2,0.5c0.6,0.5,1,1.2,1.1,2.1l2,16.7c0,0.2,0,0.3,0,0.5c0,0.8-0.2,1.5-0.7,2
				C129.4,309.5,128.8,309.8,128,309.9z"/>
			<path fill="#0D5D78" stroke="#FFFFFF" stroke-miterlimit="10" d="M139.9,310.8c-2.8-0.4-5.1-1.7-6.7-3.8c-1.6-2-2.4-4.5-2.4-7.3
				c0-0.7,0.1-1.4,0.2-2.1c0.5-2.9,1.7-5.3,3.7-7.2c2-1.9,4.4-2.8,7.1-2.8c0.6,0,1.2,0,1.8,0.1c2.8,0.4,5,1.7,6.7,3.8
				c1.7,2.1,2.5,4.6,2.5,7.3c0,0.7-0.1,1.4-0.2,2.1c-0.5,2.9-1.7,5.3-3.7,7.2c-2,1.9-4.4,2.8-7.1,2.8
				C141.1,311,140.5,310.9,139.9,310.8z M142.6,293.3c-0.3-0.1-0.5-0.1-0.8-0.1c-1.3,0-2.4,0.5-3.3,1.5c-0.9,1-1.4,2.3-1.7,3.9
				c-0.1,0.5-0.1,1-0.1,1.5c0,1.4,0.3,2.6,1,3.5c0.7,1,1.7,1.5,2.9,1.7c0.3,0.1,0.5,0.1,0.8,0.1c1.3,0,2.4-0.5,3.3-1.5
				c0.8-1,1.4-2.2,1.6-3.8c0.1-0.5,0.1-1,0.1-1.4c0-1.4-0.3-2.6-1-3.5C144.9,294.1,143.9,293.5,142.6,293.3z"/>
			<path fill="#0D5D78" stroke="#FFFFFF" stroke-miterlimit="10" d="M162.7,311.1l-7.5-1.5c-0.7-0.1-1.3-0.5-1.8-1
				c-0.5-0.5-0.7-1.2-0.7-1.9c0-0.2,0-0.4,0.1-0.6l3.1-16c0.4-1.8,1.3-2.7,2.9-2.7c0.2,0,0.5,0,0.7,0.1l7.2,1.4
				c0.8,0.2,1.4,0.5,1.8,1c0.4,0.5,0.6,1.1,0.6,1.7c0,0.8-0.3,1.4-0.8,2c-0.5,0.6-1.2,0.8-2,0.8c-0.2,0-0.4,0-0.6-0.1l-4.4-0.9
				l-0.5,2.8l4,0.8c0.8,0.2,1.4,0.5,1.8,1c0.4,0.5,0.6,1.1,0.6,1.7c0,0.8-0.3,1.5-0.8,2c-0.5,0.5-1.2,0.8-2,0.8
				c-0.2,0-0.4,0-0.6-0.1l-4.1-0.8l-0.6,3l4.7,0.9c0.8,0.1,1.3,0.5,1.7,1c0.4,0.5,0.6,1.1,0.6,1.7c0,0.8-0.3,1.4-0.8,2
				c-0.5,0.6-1.2,0.8-2,0.8C163.2,311.2,163,311.2,162.7,311.1z"/>
			<path fill="#0D5D78" stroke="#FFFFFF" stroke-miterlimit="10" d="M197.8,301.9c0.7-2,1.9-5.2,3.8-9.7c0.6-1.4,1.5-2.2,2.8-2.2
				c0.2,0,0.5,0,0.7,0.1c0.7,0.1,1.3,0.5,1.7,1c0.4,0.5,0.6,1.1,0.6,1.7c0,0.2,0,0.3,0,0.5c-0.1,0.4-0.2,0.8-0.4,1.1l-6.8,15.2
				c-0.7,1.5-1.8,2.2-3.3,2.2c-0.3,0-0.6,0-0.8-0.1c-0.9-0.2-1.6-0.6-2.1-1.2c-0.6-0.6-0.9-1.3-1-2.1l-1-9.9
				c-0.8,1.7-2.2,4.7-4.4,8.9c-0.7,1.3-1.8,2-3.3,2c-0.3,0-0.5,0-0.8-0.1c-0.9-0.2-1.7-0.6-2.3-1.3c-0.5-0.6-0.8-1.4-0.8-2.2
				l-0.6-16.7c0-0.4,0-0.8,0.1-1.2c0.1-0.6,0.4-1.1,0.9-1.5c0.5-0.4,1.1-0.6,1.8-0.6c0.2,0,0.4,0,0.6,0.1c1.7,0.3,2.5,1.4,2.5,3.3
				l0.1,10.4c0.9-2,2.6-5.3,4.9-9.9c0.6-1.1,1.5-1.7,2.8-1.7c0.9,0,1.6,0.3,2.2,0.8c0.6,0.5,0.9,1.2,1,2.1L197.8,301.9z"/>
			<path fill="#0D5D78" stroke="#FFFFFF" stroke-miterlimit="10" d="M219.6,311.4c-1.2-0.1-2-0.6-2.4-1.6c-0.1-0.3-0.4-1.3-0.8-3
				l-7.2-0.6c-0.7,1.6-1.1,2.6-1.3,2.8c-0.6,0.9-1.5,1.3-2.6,1.2c-0.8-0.1-1.5-0.4-2-1c-0.5-0.6-0.8-1.3-0.7-2.1
				c0-0.4,0.1-0.8,0.4-1.2l7.3-15.6c0.4-0.8,1-1.5,1.7-2c0.7-0.5,1.5-0.7,2.4-0.6c1.9,0.2,3.1,1.2,3.6,3.3l4.4,16.6
				c0.1,0.5,0.2,1,0.2,1.4c-0.1,0.8-0.4,1.4-1,1.9C221,311.2,220.3,311.4,219.6,311.4z M213.7,295.1c-0.4,1.2-1.2,3.1-2.2,5.6
				l3.6,0.3L213.7,295.1z"/>
			<path fill="#0D5D78" stroke="#FFFFFF" stroke-miterlimit="10" d="M230.5,311c-1.8,0-3.4-0.3-4.9-0.9c-2-0.8-3-1.8-3-3.2
				c0-0.8,0.3-1.4,0.8-2c0.5-0.6,1.2-0.8,2-0.8c0.6,0,1.4,0.2,2.5,0.6c1.1,0.4,1.9,0.6,2.5,0.6c1.5,0,2.3-0.6,2.3-1.8
				c0-0.6-0.9-1.1-2.6-1.6c-2.3-0.7-3.9-1.3-4.7-1.8c-1.7-1.1-2.6-2.7-2.6-4.8c0-2.3,0.8-4.1,2.5-5.5c1.5-1.3,3.4-2,5.6-2
				c1.3,0,2.7,0.3,4,0.8c1.7,0.7,2.6,1.7,2.6,2.9c0,0.8-0.2,1.5-0.7,2c-0.5,0.6-1.2,0.9-2,0.9c-0.5,0-1.1-0.1-2-0.4
				c-0.9-0.3-1.5-0.4-2-0.4c-1.1,0-1.7,0.4-1.7,1.2c0,0.4,0.9,0.9,2.6,1.4c2.2,0.6,3.8,1.3,4.7,2c1.7,1.3,2.6,3.1,2.6,5.4
				c0,2.3-0.8,4.2-2.5,5.6C234.8,310.3,232.8,311,230.5,311z"/>
			<path fill="#0D5D78" stroke="#FFFFFF" stroke-miterlimit="10" d="M257.5,309.9c-0.9,0.1-1.6-0.1-2.2-0.6c-0.6-0.5-1-1.2-1.1-2.1
				l-0.7-5.7l-7.8,1l0.7,5.7c0,0.2,0,0.3,0,0.5c0,0.8-0.2,1.5-0.7,2c-0.5,0.5-1.1,0.8-1.9,0.9c-0.9,0.1-1.6-0.1-2.2-0.5
				c-0.6-0.5-1-1.2-1.1-2.1l-2-16.7c0-0.2,0-0.3,0-0.5c0-0.8,0.2-1.4,0.7-2c0.5-0.5,1.1-0.8,1.9-0.9c0.9-0.1,1.6,0.1,2.2,0.6
				c0.6,0.5,1,1.2,1.1,2.1l0.7,5.5l7.8-1l-0.7-5.5c0-0.2,0-0.3,0-0.5c0-0.8,0.2-1.5,0.7-2c0.5-0.5,1.1-0.8,1.9-0.9
				c0.9-0.1,1.6,0.1,2.2,0.5c0.6,0.5,1,1.2,1.1,2.1l2,16.7c0,0.2,0,0.3,0,0.5c0,0.8-0.2,1.5-0.7,2
				C258.9,309.5,258.3,309.8,257.5,309.9z"/>
		</g>
		<g>
			<path fill="#0D5D78" stroke="#FFFFFF" stroke-miterlimit="10" d="M280.2,295.9h-4.5v-4.4c0-0.4-0.2-0.5-0.7-0.5
				c-0.5,0-0.7,0.2-0.7,0.5V307c0,0.4,0.2,0.5,0.7,0.5c0.5,0,0.7-0.2,0.7-0.5v-5.5h4.5v5.7c0,1.1-0.5,1.9-1.6,2.6
				c-1,0.6-2.2,1-3.5,1c-3.8,0-5.7-1.3-5.7-4v-14.4c0-2.9,1.9-4.4,5.7-4.4c3.4,0,5.1,1.3,5.1,4V295.9z"/>
			<path fill="#0D5D78" stroke="#FFFFFF" stroke-miterlimit="10" d="M283,306.6v-14.4c0-2.9,1.9-4.4,5.6-4.4c3.7,0,5.6,1.4,5.6,4.3
				v14.4c0,1.3-0.5,2.3-1.6,3c-1,0.7-2.4,1.1-4,1.1C284.8,310.7,283,309.3,283,306.6z M289.4,306.9v-15.3c0-0.4-0.3-0.7-0.8-0.7
				c-0.6,0-0.8,0.2-0.8,0.7v15.3c0,0.4,0.3,0.7,0.8,0.7C289.1,307.5,289.4,307.3,289.4,306.9z"/>
			<path fill="#0D5D78" stroke="#FFFFFF" stroke-miterlimit="10" d="M314,310.5h-4.4v-12.6l-2.6,12.6h-3.4l-2.9-12.6v12.6h-3.8
				v-22.4h6.3l2.2,11.6l2-11.6h6.6V310.5z"/>
			<path fill="#0D5D78" stroke="#FFFFFF" stroke-miterlimit="10" d="M321.6,302.2v8.2h-4.8v-22.4h5.2c2.1,0,3.6,0.3,4.6,0.8
				c1,0.5,1.5,1.6,1.5,3.2v6.2c0,1.5-0.4,2.5-1.2,3.1C326,302,324.3,302.3,321.6,302.2z M323.2,297.8v-5.4c0-0.8-0.5-1.2-1.6-1.2
				v7.7C322.7,299,323.2,298.6,323.2,297.8z"/>
			<path fill="#0D5D78" stroke="#FFFFFF" stroke-miterlimit="10" d="M343.9,310.5H339l-0.8-6H336l-0.8,6h-4.9l3.7-22.4h6.2
				L343.9,310.5z M337.8,301.3l-0.7-6.7l-0.7,6.7H337.8z"/>
			<path fill="#0D5D78" stroke="#FFFFFF" stroke-miterlimit="10" d="M358.9,310.5h-5.1l-3.3-11.9v11.9h-4.1v-22.4h5.6l2.8,10.2
				v-10.2h4.1V310.5z"/>
			<path fill="#0D5D78" stroke="#FFFFFF" stroke-miterlimit="10" d="M375.1,288.1l-3.2,9l-1.6,4.5v8.9h-4.9v-8.7
				c-0.1-0.8-0.5-2.3-1.3-4.6c-0.6-1.9-1.6-5-2.8-9.1h4.7l2.2,7.9l2.5-7.9H375.1z"/>
		</g>
	</g>
</g>
</svg>
