<?xml version="1.0" encoding="utf-8"?>
<!-- Generator: Adobe Illustrator 18.0.0, SVG Export Plug-In . SVG Version: 6.00 Build 0)  -->
<!DOCTYPE svg PUBLIC "-//W3C//DTD SVG 1.1//EN" "http://www.w3.org/Graphics/SVG/1.1/DTD/svg11.dtd">
<svg version="1.1" id="Layer_1" xmlns="http://www.w3.org/2000/svg" xmlns:xlink="http://www.w3.org/1999/xlink" x="0px" y="0px"
	 viewBox="0 0 960 560" enable-background="new 0 0 960 560" xml:space="preserve">
<g>
	<g>
		<g>
			<g>
				<defs>
					<rect id="SVGID_1_" x="291.5" y="83.5" width="451.2" height="326.1"/>
				</defs>
				<clipPath id="SVGID_2_">
					<use xlink:href="#SVGID_1_"  overflow="visible"/>
				</clipPath>
				<g clip-path="url(#SVGID_2_)">
					<path fill="#1EB4D7" d="M702.6,338c0-21.5-11.9-40.2-29.4-50c13.1-4.4,22.7-16.7,22.7-31.2c0-18.2-14.8-32.8-32.8-32.8
						c-3.6,0-7.2,0.6-10.4,1.7c2.1-4.4,3.3-9.2,3.3-14.5c0-18.2-14.8-32.8-32.8-32.8c-10.7,0-20.2,5.1-26,12.9
						c-2.3-27.2-25-48.8-52.8-48.8c-24.2,0-44.7,16.3-51,38.5c-5.4-10.8-16.6-18.4-29.5-18.4c-18.2,0-32.8,14.8-32.8,32.8
						c0,5.9,1.5,11.3,4.2,16.1c-15.5,2.7-27.2,16.1-27.2,32.4c0,3,0.5,6,1.2,8.7c-4.7-2.7-10.2-4.2-16-4.2
						c-18.2,0-32.8,14.8-32.8,32.8c0,14.6,9.6,27.1,22.7,31.3c-7.7,9.2-12.2,20.9-12.2,33.9c0,27.7,21.2,50.4,48.2,52.8
						c-0.9,3-1.4,6.2-1.4,9.5c0,18.2,14.8,32.8,32.8,32.8c12.2,0,22.9-6.6,28.6-16.6c9.8,11.9,24.5,19.6,41.1,19.6
						c15.8,0,30-6.9,39.6-17.8c9.8,10.7,23.6,17.3,39.1,17.3c28,0,50.9-21.7,52.8-49.2C680.3,391.7,702.6,367.5,702.6,338z"/>
					<polygon fill="#39C5F3" points="703.9,200.7 706.5,213 708.9,200.7 721.4,197.7 708.9,194.6 706.5,182.3 703.9,194.6 
						691.4,197.7 					"/>
					<polygon fill="#39C5F3" points="680.3,211.1 682.2,220.8 684.1,211.1 694.1,208.6 684.1,206.2 682.2,196.5 680.3,206.2 
						670.2,208.6 					"/>
					<circle fill="#60BEC8" cx="336.8" cy="377.2" r="15.2"/>
					<circle fill="#39C5F3" cx="596" cy="142.4" r="15.2"/>
					<circle fill="#39C5F3" cx="630.2" cy="150.7" r="8.3"/>
					<circle fill="#60BEC8" cx="345.2" cy="346.5" r="8.3"/>
					<path fill="#FFF9EF" d="M532.6,151.3c0,0,37.3-13.1,55.5,24.8C588.3,176.1,563.9,149.2,532.6,151.3z"/>
					<path fill="#FFF9EF" d="M688.4,312.8c0,0,22,32.8-10.2,60.1C678.2,372.9,698.4,342.6,688.4,312.8z"/>
					<path fill="#FFF9EF" d="M618.3,182.9c0,0,21.7-9.6,34.2,24.2C652.4,207.1,639.3,185.3,618.3,182.9z"/>
					<path fill="#FFF9EF" d="M670.5,230.2c0,0,23.8,1.8,18.5,37.5C689,267.7,688,242.4,670.5,230.2z"/>
					<path fill="#FFF9EF" d="M439.3,184.1c0,0,10.8-24.1,44.6-9.6C483.7,174.5,457.9,169.2,439.3,184.1z"/>
					<path fill="#FFF9EF" d="M365.4,275.3c0,0,7.1-25.4,42.6-16.3C407.8,258.9,381.6,257.6,365.4,275.3z"/>
					<path fill="#FFF9EF" d="M589.7,131.3c0,0,8.3-4.2,13.1,0c4.8,4.2,4.8,9.9,4.8,9.9S602.9,131.7,589.7,131.3z"/>
					<path fill="#FFF9EF" d="M724.5,375.9c0,0,8.3-4.2,13.1,0c4.8,4.2,4.8,9.9,4.8,9.9S737.9,376.3,724.5,375.9z"/>
					<path fill="#FFF9EF" d="M331.3,369.3c0,0,8.3-4.2,13.1,0s4.8,9.9,4.8,9.9S344.6,369.7,331.3,369.3z"/>
					<path fill="#FFF9EF" d="M627.3,145.1c0,0,4.2-2.1,6.6,0s2.4,5,2.4,5S633.9,145.3,627.3,145.1z"/>
					<circle fill="#39C5F3" cx="716.3" cy="294.6" r="11.4"/>
					<path fill="#FFF9EF" d="M711.5,286.2c0,0,6.3-3.2,9.9,0c3.6,3.2,3.6,7.5,3.6,7.5S721.5,286.6,711.5,286.2z"/>
					<path fill="#FFF9EF" d="M751.2,293.7c0,0,4.2-2.1,6.6,0c2.4,2.1,2.4,5,2.4,5S758,293.8,751.2,293.7z"/>
					<path fill="#FFF9EF" d="M342.3,341.1c0,0,4.2-2.1,6.6,0s2.4,5,2.4,5S349,341.3,342.3,341.1z"/>
					<path fill="#FFF9EF" d="M421.4,386c0,0-39.3,6.5-38.4-36C383.1,349.8,384.9,381.8,421.4,386z"/>
					<path fill="#FFF9EF" d="M640.2,398.2c0,0,1.5,46.2-49.7,35.4C590.6,433.7,629.4,438.8,640.2,398.2z"/>
				</g>
			</g>
		</g>
		<g>
			<path fill="#1EB4D7" d="M476.6,344.1c0-14-7.7-26.2-19.1-32.7c8.6-2.9,14.8-10.8,14.8-20.3c0-11.9-9.6-21.4-21.4-21.4
				c-2.4,0-4.7,0.5-6.8,1.1c1.4-2.9,2.3-6,2.3-9.5c0-11.9-9.6-21.4-21.4-21.4c-6.9,0-13.1,3.3-17,8.4c-1.5-17.6-16.4-31.6-34.6-31.6
				c-15.8,0-29.2,10.7-33.3,25.1c-3.5-7.1-10.7-11.9-19.1-11.9c-11.9,0-21.4,9.6-21.4,21.4c0,3.8,1.1,7.4,2.7,10.5
				c-10.1,1.7-17.8,10.5-17.8,21.1c0,2,0.3,3.9,0.8,5.7c-3-1.7-6.6-2.7-10.4-2.7c-11.9,0-21.4,9.6-21.4,21.4
				c0,9.5,6.2,17.6,14.9,20.3c-5,6-8,13.7-8,22c0,18.1,13.8,32.8,31.5,34.5c-0.6,2-0.9,4.1-0.9,6.2c0,11.9,9.6,21.4,21.4,21.4
				c8,0,14.9-4.4,18.7-10.8c6.3,7.8,16,12.6,26.8,12.6c10.2,0,19.4-4.5,25.7-11.6c6.3,6.9,15.4,11.3,25.6,11.3
				c18.2,0,33.1-14.2,34.5-32.1C462.2,379.2,476.6,363.4,476.6,344.1z"/>
			<polygon fill="#39C5F3" points="238.5,280.9 236.8,272.9 235.3,280.9 227.2,282.9 235.3,285 236.8,292.9 238.5,285 246.6,282.9 
							"/>
			<polygon fill="#39C5F3" points="254,274.1 252.6,267.8 251.4,274.1 244.9,275.8 251.4,277.3 252.6,283.8 254,277.3 260.4,275.8 
							"/>
			<polygon fill="#39C5F3" points="471.5,396.8 473.2,404.8 474.7,396.8 482.9,394.9 474.7,392.9 473.2,384.9 471.5,392.9 
				463.4,394.9 			"/>
			<circle fill="#39C5F3" cx="280.9" cy="252" r="9.9"/>
			<circle fill="#39C5F3" cx="238.3" cy="369.7" r="9.9"/>
			<circle fill="#39C5F3" cx="407.2" cy="216.8" r="9.9"/>
			<circle fill="#39C5F3" cx="494.7" cy="375" r="9.9"/>
			<circle fill="#39C5F3" cx="504.6" cy="394.9" r="5.4"/>
			<circle fill="#39C5F3" cx="429.5" cy="222.2" r="5.4"/>
			<circle fill="#39C5F3" cx="243.7" cy="349.8" r="5.4"/>
			<circle fill="#39C5F3" cx="275.5" cy="222.2" r="5.4"/>
			<path fill="#FFF9EF" d="M366,222.5c0,0,24.2-8.6,36.3,16.3C402.1,238.8,386.3,221.1,366,222.5z"/>
			<path fill="#FFF9EF" d="M467.4,327.7c0,0,14.3,21.4-6.8,39.1C460.8,366.9,473.9,347.1,467.4,327.7z"/>
			<path fill="#FFF9EF" d="M421.7,243.1c0,0,14.2-6.3,22.3,15.8C443.9,258.9,435.5,244.8,421.7,243.1z"/>
			<path fill="#FFF9EF" d="M455.8,274c0,0,15.5,1.2,12,24.4C467.9,298.4,467.1,281.8,455.8,274z"/>
			<path fill="#FFF9EF" d="M305,244c0,0,7.1-15.7,29.1-6.3C334.1,237.7,317.3,234.2,305,244z"/>
			<path fill="#FFF9EF" d="M257,303.3c0,0,4.7-16.6,27.7-10.7C284.7,292.6,267.5,291.9,257,303.3z"/>
			<path fill="#FFF9EF" d="M403,209.5c0,0,5.4-2.7,8.6,0c3.2,2.7,3.2,6.5,3.2,6.5S411.7,209.8,403,209.5z"/>
			<path fill="#FFF9EF" d="M491.1,368.8c0,0,5.4-2.7,8.6,0c3.2,2.7,3.2,6.5,3.2,6.5S499.6,369.1,491.1,368.8z"/>
			<path fill="#FFF9EF" d="M277.5,245.2c0,0,5.4-2.7,8.6,0s3.2,6.5,3.2,6.5S286.2,245.5,277.5,245.2z"/>
			<path fill="#FFF9EF" d="M234.8,364.6c0,0,5.4-2.7,8.6,0c3.2,2.7,3.2,6.5,3.2,6.5S243.4,364.9,234.8,364.6z"/>
			<path fill="#FFF9EF" d="M427.5,218.6c0,0,2.7-1.4,4.2,0s1.5,3.2,1.5,3.2S431.9,218.7,427.5,218.6z"/>
			<path fill="#FFF9EF" d="M273.4,219c0,0,2.7-1.4,4.2,0c1.5,1.4,1.5,3.2,1.5,3.2S277.8,219,273.4,219z"/>
			<path fill="#FFF9EF" d="M241.9,346.2c0,0,2.7-1.4,4.2,0c1.5,1.4,1.5,3.2,1.5,3.2S246.3,346.4,241.9,346.2z"/>
			<path fill="#FFF9EF" d="M293.4,375.4c0,0-25.6,4.2-25-23.5C268.4,352,269.6,372.7,293.4,375.4z"/>
			<path fill="#FFF9EF" d="M436,383.4c0,0,1.1,30.1-32.4,23C403.8,406.6,428.9,409.9,436,383.4z"/>
		</g>
		<g>
			<g>
				<path fill="#0D5D78" d="M241.3,167.8c0,0-10.4,9.8-9.5,12.3c0.9,2.6,13.2,22.9,17.9,24.8c4.7,2,14.2-8.9,14.2-8.9L241.3,167.8z"
					/>
				<path fill="#0D5D78" d="M265.9,206.5c0,0-8.6,11.4-7.2,13.7c1.4,2.3,16.9,20.3,21.8,21.4c5,1.2,12.5-11.1,12.5-11.1L265.9,206.5
					z"/>
				<path fill="#0D5D78" d="M299.9,238.6c0,0-8.6,11.4-7.2,13.7c1.4,2.3,16.9,20.3,21.8,21.4c5,1.2,12.5-11.1,12.5-11.1L299.9,238.6
					z"/>
				<path fill="#0D5D78" d="M335.4,271.7c0,0-9.9,10.2-8.9,12.6c1.1,2.4,14.2,22.3,19,24.1c4.7,1.8,13.8-9.5,13.8-9.5L335.4,271.7z"
					/>
				<path fill="#0D5D78" d="M366.4,306.2c0,0-9.2,10.8-8.1,13.2c1.2,2.4,15.5,21.4,20.3,22.7c4.8,1.5,13.2-10.2,13.2-10.2
					L366.4,306.2z"/>
				<path fill="#0D5D78" d="M399.1,343.7c0,0-8,11.7-6.6,14s17.8,19.6,22.7,20.5c5,0.9,12-11.6,12-11.6L399.1,343.7z"/>
				<g>
					<path fill="#EE4723" d="M619,401.2c-0.6,1.8-1.4,3.5-2.1,5l-18.4,6.6c-23.6,2-65.2-3.5-101.9-9.6c-17.9-3-34.3-9.6-49.1-18.2
						c-0.9-0.5-1.7-0.9-2.6-1.5c-7.1-4.2-13.7-8.7-19.9-13.5c-3-2.4-6-4.8-8.9-7.2c-6.8-5.7-12.8-11.6-18.4-17.2
						c-3.3-3.3-6.3-6.6-9.2-9.8c-6.9-7.7-12.5-14.6-16.7-19.7c-2.4-2.9-4.7-5.7-6.9-8.4s-4.5-5.4-6.6-8c-9-10.5-17-19.3-24.4-26.8
						C302,240,285,233,273.8,220.5c-5-5.6-37.3-37.3-37-45.9c0-1.2,0.9-2.7,2.3-4.4c5.4-6.9,19.7-17.5,29.4-24.4
						c5.7-4.1,9.8-6.8,9.8-6.8c0-0.2,0.2-0.3,0.2-0.6c1.4-3.3,9.2-10.4,20-18.8c4.5-3.5,9.5-7.2,14.8-11
						c8.4-6.2,17.6-12.6,26.3-18.5c27.7-18.7,20.2-26.5,28.5-36.4c8.1-9.8,16.4-2.9,17.8-1.4c0,0,9.6,6.5,5.7,25.3
						c-5.6,26.9,1.1,40.3,13.5,54.9c4.7,5.4,12.8,7.7,21.1,8.4c0,0,0.3,0,0.9,0c3.8,0.3,7.5,0.2,10.8,0c0,0,0,0,0.2,0
						c0.5,0,0.9,0,1.4-0.2c0.2,0,0.5,0,0.8,0c7.8-0.6,13.7-2,13.7-2s33.7-5.6,39.3,2.9c1.5,2.4,1.2,17.2,2.1,37.5
						c0.2,4.1,0.5,8.4,0.6,12.9c0.5,6.2,0.9,12.6,1.7,19.3c0.5,4.2,1.1,8.4,1.5,12.6c0.9,6,2,12,3.2,18.2c0.9,4.1,1.8,8.3,2.9,12.3
						c1.5,5.6,3.2,11.1,5,16.6c1.4,4.1,3,8,4.7,11.9c3.6,8.3,7.8,16.3,12.9,23.5l0.2,0.2c0.9,1.4,2,2.7,3,4.1l0.2,0.2
						c2.9,3.8,6,7.2,9.3,10.4l0,0c8.4,11.1,73.2,21.2,79.5,40.9c1.1,3.5,2.3,11.3,2.1,19.9C621.9,389,621.1,395.6,619,401.2z"/>
					<path fill="#0D5D78" stroke="#FFFFFF" stroke-width="2.2834" stroke-miterlimit="10" d="M500.7,287.1c-2.4,0.6-5-1.8-5.7-5.1
						l0,0c-0.8-3.5,0.5-6.6,2.9-7.2l17.3-4.1c2.4-0.6,5,1.8,5.7,5.1l0,0c0.8,3.5-0.5,6.6-2.9,7.2L500.7,287.1z"/>
					<path fill="#0D5D78" stroke="#FFFFFF" stroke-width="2.2834" stroke-miterlimit="10" d="M492.3,258.2c-2.4,0.6-5-1.8-5.7-5.1
						l0,0c-0.8-3.5,0.5-6.6,2.9-7.2l17.3-4.1c2.4-0.6,5,1.8,5.7,5.1l0,0c0.8,3.5-0.5,6.6-2.9,7.2L492.3,258.2z"/>
					<path fill="#0D5D78" stroke="#FFFFFF" stroke-width="2.2834" stroke-miterlimit="10" d="M487.2,227.3c-2.4,0.6-5-1.8-5.7-5.1
						l0,0c-0.8-3.5,0.5-6.6,2.9-7.2l17.3-4.1c2.4-0.6,5,1.8,5.7,5.1l0,0c0.8,3.5-0.5,6.6-2.9,7.2L487.2,227.3z"/>
					<path fill="#0D5D78" stroke="#FFFFFF" stroke-width="2.2834" stroke-miterlimit="10" d="M482.5,195.7c-2.4,0.6-5-1.8-5.7-5.1
						l0,0c-0.8-3.5,0.5-6.6,2.9-7.2l17.3-4.1c2.4-0.6,5,1.8,5.9,5.1l0,0c0.8,3.5-0.5,6.6-2.9,7.2L482.5,195.7z"/>
					<path fill="#FFFFFF" d="M619,401.2c-0.6,1.8-1.4,3.5-2.1,5c-50.1-10.1-103.3-28.6-141.7-49.4c-14.8-8-27.4-16.4-36.9-24.7
						c-4.2-3.8-7.8-7.5-10.7-11.3c-15.1-19.9-32.5-37.2-51.5-54.8c-7.5-7.1-15.4-14.2-23.3-21.4c-9.9-9-20.2-18.5-30.6-28.8
						c-27.2-26.6-44.1-52.7-51.9-66.4c-0.8-1.2-2-2.3-2-3.5c0-1.7,4.5-6.9,9.9-7.4c0.6,0,0.6,1.1,0.9,1.5c10.4,19,28,48.6,46.7,69.5
						c12.8,14.3,17.3,18.1,26,26c5.6,5.1,41.1-0.5,53.3,12.2c12.3,12.9,0.3,45.5,27.5,73.5c2,2.1,4.1,4.1,6.3,6
						c10.7,9.8,23,18.4,36.7,26C519.4,378.2,574.3,392.8,619,401.2z"/>
					<path fill="#FFFFFF" d="M437.9,141.4c0,0,20.6-2.7,22.1,16.7c1.5,19.6,8,127.8,24.4,140.5c16.4,12.6,43.4,8.7,43.4,8.7l3.3,4.4
						c0,0-44.6,10.5-59.9-11.7c-15.4-22.3-13.1-134.3-23.2-146.5c-10.1-12-21.8-12.2-21.8-12.2L437.9,141.4z"/>
				</g>
			</g>
		</g>
		<g>
			<g>
				<defs>
					<rect id="SVGID_3_" x="289.6" y="261.5" width="510.6" height="152.8"/>
				</defs>
				<clipPath id="SVGID_4_">
					<use xlink:href="#SVGID_3_"  overflow="visible"/>
				</clipPath>
				<g clip-path="url(#SVGID_4_)">
					<path fill="#39C5F3" d="M726.5,485c-3.2-22.3-18.2-39.9-37.8-47.4c12.9-6.3,20.9-20.5,18.8-35.7c-2.7-18.8-20-31.8-38.8-29.2
						c-3.8,0.6-7.2,1.7-10.5,3.3c1.5-4.8,2.1-10.1,1.4-15.4c-2.7-18.8-20-31.8-38.8-29.2c-11,1.5-20,8.3-25.1,17.2
						c-6.3-27.8-33.1-46.8-61.9-42.6c-25.1,3.6-43.8,23.5-47.1,47.4c-7.1-10.4-19.7-16.6-33.1-14.6c-18.8,2.7-31.8,20-29.2,38.8
						c0.9,6,3.3,11.6,6.8,16.1c-15.7,5-25.9,20.6-23.5,37.5c0.5,3.2,1.4,6.2,2.6,8.9c-5.3-2-11.1-2.9-17.2-2
						c-18.8,2.7-31.8,20-29.2,38.8c2.1,15.2,13.8,26.5,28.2,29.1c-6.5,10.7-9.5,23.5-7.7,36.7c4.1,28.6,29.4,48.9,57.7,47.6
						c-0.5,3.2-0.6,6.6,0,9.9c2.7,18.8,20,31.8,38.8,29.2c12.6-1.8,22.7-10.2,27.1-21.4c11.9,10.8,28.3,16.6,45.3,14.2
						c16.3-2.3,29.8-11.6,38.4-24.2c11.6,9.6,26.9,14.5,43.1,12.2c29.1-4.1,49.5-30,47.4-58.7C711.5,543.9,730.9,515.6,726.5,485z"
						/>
					<polygon fill="#1EB4D7" points="334.4,438.7 330,426.3 329.2,439.3 316.7,444.4 330.1,445.6 334.5,457.9 335.3,444.8 
						347.8,439.9 					"/>
					<polygon fill="#1EB4D7" points="357.4,424.4 353.9,414.6 353.3,425 343.4,428.9 354.1,429.9 357.5,439.7 358,429.3 
						368.1,425.4 					"/>
					<polygon fill="#60BEC8" points="730.4,569.8 734.6,582.1 735.4,569 747.9,564.1 734.5,562.7 730.1,550.5 729.5,563.5 
						716.9,568.4 					"/>
					<circle fill="#39C5F3" cx="432.4" cy="318.7" r="15.8"/>
					<circle fill="#60BEC8" cx="354.2" cy="579.6" r="15.8"/>
					<circle fill="#39C5F3" cx="587.6" cy="298.7" r="15.8"/>
					<circle fill="#60BEC8" cx="762.2" cy="529.9" r="15.8"/>
					<circle fill="#60BEC8" cx="782.5" cy="559.1" r="8.7"/>
					<circle fill="#39C5F3" cx="624" cy="302.1" r="8.7"/>
					<circle fill="#60BEC8" cx="358.3" cy="546.6" r="8.7"/>
					<circle fill="#39C5F3" cx="440.3" cy="270.8" r="8.7"/>
					<path fill="#FFF9EF" d="M523.4,317c0,0,36.6-19,61.1,17.6C584.5,334.6,555.5,310.3,523.4,317z"/>
					<path fill="#FFF9EF" d="M708.3,461.1c0,0,27.5,30.7-1.8,63.5C706.5,524.8,722.9,490.5,708.3,461.1z"/>
					<path fill="#FFF9EF" d="M616.5,337.2c0,0,21.1-13.1,38.8,20C655.3,357.2,638.7,336.6,616.5,337.2z"/>
					<path fill="#FFF9EF" d="M677.6,378.3c0,0,24.8-1.7,24.7,36C702.3,414.4,697.5,388.4,677.6,378.3z"/>
					<path fill="#FFF9EF" d="M431.6,364.9c0,0,7.7-26.5,44.6-16.6C476.2,348.3,448.9,346.7,431.6,364.9z"/>
					<path fill="#FFF9EF" d="M368.7,470c0,0,3.6-27.4,41.5-23.2C410.2,446.8,382.8,449.4,368.7,470z"/>
					<path fill="#FFF9EF" d="M579.3,288.1c0,0,8-5.6,13.5-2s6.5,9.5,6.5,9.5S593.1,286.5,579.3,288.1z"/>
					<path fill="#FFF9EF" d="M755,521c0,0,8-5.6,13.5-2s6.5,9.5,6.5,9.5S768.8,519.5,755,521z"/>
					<path fill="#FFF9EF" d="M430.8,306.6c0,0,9.6-1.2,12.9,4.7c3.3,5.9,1.2,11.4,1.2,11.4S443.8,311.9,430.8,306.6z"/>
					<path fill="#FFF9EF" d="M347.5,572.2c0,0,8-5.6,13.5-2s6.5,9.5,6.5,9.5S361.2,570.5,347.5,572.2z"/>
					<path fill="#FFF9EF" d="M620.4,296.9c0,0,3.9-2.9,6.8-0.9c2.9,1.8,3.2,4.8,3.2,4.8S627.3,296.1,620.4,296.9z"/>
					<path fill="#FFF9EF" d="M439.1,264.9c0,0,4.8-0.6,6.5,2.4c1.7,3,0.6,5.7,0.6,5.7S445.6,267.5,439.1,264.9z"/>
					<path fill="#FFF9EF" d="M354.7,541.5c0,0,3.9-2.9,6.8-0.9c2.9,1.8,3.2,4.8,3.2,4.8S361.6,540.6,354.7,541.5z"/>
					<path fill="#FFF9EF" d="M442.9,576.1c0,0-39.7,12.5-45-31.6C398,544.5,404.5,577.2,442.9,576.1z"/>
					<path fill="#FFF9EF" d="M671,556.5c0,0,8.4,47.6-46.1,44C624.9,600.5,665.7,600.2,671,556.5z"/>
					<polygon fill="#1EB4D7" points="709.6,376.3 712.5,384.8 713,375.9 721.5,372.6 712.4,371.7 709.5,363.2 709,372.1 
						700.5,375.4 					"/>
					<circle fill="#1EB4D7" cx="731.2" cy="359.2" r="10.7"/>
					<circle fill="#1EB4D7" cx="744.9" cy="379.1" r="5.9"/>
					<path fill="#FFF9EF" d="M726.2,353.3c0,0,5.4-3.8,9.2-1.4c3.8,2.4,4.4,6.5,4.4,6.5S735.5,352.3,726.2,353.3z"/>
				</g>
			</g>
		</g>
	</g>
</g>
<text transform="matrix(1 0 0 1 268.4088 467)" fill="#F4F2F2" font-family="'Haettenschweiler'" font-size="53">THE   SHOE WASH  COMPANY</text>
</svg>
