<?xml version="1.0" encoding="utf-8"?>
<!-- Generator: Adobe Illustrator 18.0.0, SVG Export Plug-In . SVG Version: 6.00 Build 0)  -->
<!DOCTYPE svg PUBLIC "-//W3C//DTD SVG 1.1//EN" "http://www.w3.org/Graphics/SVG/1.1/DTD/svg11.dtd">
<svg version="1.1" id="Layer_1" xmlns="http://www.w3.org/2000/svg" xmlns:xlink="http://www.w3.org/1999/xlink" x="0px" y="0px"
	 viewBox="0 0 1024 1024" enable-background="new 0 0 1024 1024" xml:space="preserve">
<g>
	<defs>
		<rect id="SVGID_1_" x="0" y="0.5" width="1024" height="1023.6"/>
	</defs>
	<clipPath id="SVGID_2_">
		<use xlink:href="#SVGID_1_"  overflow="visible"/>
	</clipPath>
	<g clip-path="url(#SVGID_2_)">
		
			<radialGradient id="SVGID_3_" cx="484.2388" cy="533.2786" r="596.4875" fx="506.8042" fy="91.8907" gradientUnits="userSpaceOnUse">
			<stop  offset="4.643592e-004" style="stop-color:#CCFFBD"/>
			<stop  offset="0.1196" style="stop-color:#C7FEBF"/>
			<stop  offset="0.2653" style="stop-color:#B8FBC4"/>
			<stop  offset="0.425" style="stop-color:#9FF6CC"/>
			<stop  offset="0.5947" style="stop-color:#7CF0D8"/>
			<stop  offset="0.7722" style="stop-color:#50E7E7"/>
			<stop  offset="0.9538" style="stop-color:#1ADDF9"/>
			<stop  offset="0.9946" style="stop-color:#0DDAFD"/>
		</radialGradient>
		<rect x="-1.5" fill="url(#SVGID_3_)" width="1025.5" height="1024.6"/>
		<path fill="#FFFFFF" d="M223.9,873.1c0,0,16.2,6,17.1-6.8c0.9-12.8-16.2-8.5-16.2-8.5s-9.4-20.5-28.1-9.4c0,0-5.1-21.3-23-5.1
			c0,0-16.2-6-22.2,8.5c0,0-17.1-4.3-18.8,8.5c-1.7,12.8,15.3,9.4,15.3,9.4s4.3,11.9,18.8,7.7c0,0,13.6,7.7,25.6-1.7
			C192.3,875.6,208.5,890.1,223.9,873.1z"/>
		<path fill="#FFFFFF" d="M120.7,856c1.7-8.6-17.1-3.4-17.1-3.4s-6.8-11.1-15.3-2.6c0,0-11.9-1.7-14.5,6c-2.6,7.7,20.5,7.7,20.5,7.7
			S116.4,878.2,120.7,856z"/>
		<path fill="#FFFFFF" d="M53.3,853.4c-1.6-5.5-20.5-4.3-20.5,4.3S55.9,862,53.3,853.4z"/>
		<path fill="#FFFFFF" d="M763.3,948.6c-5.1-14.4,27.4-12.4,27.4-12.4s9.7-17.7,23.9-8.8c0,0,8-23,30-6.2c0,0,21.2-7.1,30.9,14.1
			c0,0,20.3-4.4,19.4,13.3c-0.9,17.7-23.9,7.1-23.9,7.1s-21.2,7.1-42.4-1.8c0,0-16.8,13.3-38,0C790.7,953.9,767.7,961,763.3,948.6z"
			/>
		<path fill="#FFFFFF" d="M694.2,974.1c-4.6-7.7,17.9-17.9,24.3-7.7C724.9,976.7,701.9,986.9,694.2,974.1z"/>
		<path fill="#FFFFFF" d="M926.2,909.6c0,0-18.1-4.3-18.1,6.9s17.3,5.2,17.3,5.2s7.8,8.6,22.4,2.6c0,0,21.6,10.4,28.5-1.7
			c0,0,10.4,0.9,7.8-9.5c-2.6-10.4-17.3-1.7-17.3-1.7s-6-16.4-20.7-6C946.1,905.2,927.1,897.5,926.2,909.6z"/>
		<path fill="#FFFFFF" d="M889.9,869.7c-0.8-8.3-20.6-8.4-17.8,4.7C874.9,887.5,890.9,880,889.9,869.7z"/>
		<path fill="#FFFFFF" d="M298.9,940.9c-0.6-13-26.9-1.3-26.9-1.3s-10.2-15.4-30.7-1.3c0,0-12.8-34.5-40.9-14.1
			c0,0-30.7-2.6-25.6,12.8s21.7,9,21.7,9s16.6,21.7,38.4,9c0,0,19.2,11.5,30.7,1.3C265.7,956.2,300.2,967.7,298.9,940.9z"/>
		<path fill="#FFFFFF" d="M323.2,953.6c-0.7,7.7,26.9,14.1,33.3,2.6C362.9,944.7,324.5,939.6,323.2,953.6z"/>
		<path fill="#FFFFFF" d="M172.3,966.4c0-18.1-32-2.6-32-2.6s-7.7-19.2-26.9,1.3c0,0-28.1,0-24.3,12.8c3.8,12.8,25.6,3.8,25.6,3.8
			S172.3,999.7,172.3,966.4z"/>
		<path fill="#FFFFFF" d="M45.2,922.4c0,8.2,18.5,2.4,18.5,2.4s12,8,24.9,0.8c0,0,18.5,3.2,18.5-4c0-7.2-9.6-13.6-17.7-8
			c0,0-8.8-18.5-21.7-4.8C67.7,908.7,45.2,911.1,45.2,922.4z"/>
		<ellipse opacity="0.17" fill="#2B388F" cx="514.7" cy="941.3" rx="221.2" ry="42.8"/>
		<g>
			<path fill="#FFFFFF" d="M388.4,556.6c0,0-14.8-7.7-23,14.4c0,0-16.5-2.8-13.7,19.1c0,0-12.3-4.1-13.9,11.2
				c0,0-19.1-10.1-26.1,12.6c0,0-17.8-4.6-18.1,13.7c0,0-21.7-22.9-34.7,4.2c0,0-11-1.1-12,14.8c0,0-16.4,8.2-8.2,24.5
				s212.5,4.6,212.5,4.6L388.4,556.6z"/>
			<path fill="#DBE9F0" d="M407.8,625.9c0,0-22.2-14.3-34.7,4.8c0,0-11.2-10.8-20.1,5.8c0,0-29-19.7-39,3c0,0-19-4.6-17.5,13.1
				c0,0-12.2,1.4-12,16.1l152-2.4L407.8,625.9z"/>
			<path fill="#FFFFFF" d="M587.7,561.9c0,0,9.5-14.8,22.9,7c0,0,9.7-7.5,13.9,5.5c0,0,17-8.4,19.8,15.2c0,0,18.9,8.7,11,25.9
				c-7.9,17.2-83.3-16.6-83.3-16.6L587.7,561.9z"/>
			<path fill="#DBE9F0" d="M580.6,579.1c0,0,16.9-13.3,27.8,9.3c0,0,25.1-8.5,31.1,13.4c0,0,19.5-1.9,23.1,17.5
				c3.6,19.5-35.4,25-35.4,25L580,634.2l-27.2-10.8L580.6,579.1z"/>
			<path fill="#FFFFFF" d="M579.5,608.4c0,0,26.5-20.8,43.1-3.1c0,0,7-21.3,26.8-6.9c0,0,25.5-32.1,52.1-2.4c0,0,34.2,3.5,30.7,36.1
				c0,0,27.7,0.4,26.5,27.3c0,0,22.5,13.3,6.3,39.8c-16.2,26.5-232-1.3-232-1.3L579.5,608.4z"/>
			<path fill="#DBE9F0" d="M573.9,618.2c0,0,20.9-15.8,36.7,5.9c0,0,27.5-10.2,40.9,11.6c0,0,13.6-14,26-1.2c0,0,28.3-11,42.6,16.4
				c0,0,45.5-8,46.8,23.7l-252.2,3.9L573.9,618.2z"/>
			<g>
				<g>
					
						<rect x="104.8" y="431.9" transform="matrix(0.9928 0.1201 -0.1201 0.9928 75.365 -60.5459)" fill="none" width="870.1" height="325.9"/>
					<g>
						<g>
							<path fill="#0D5D78" d="M303.1,435.9c0,0-13.5,10-12.8,13c0.7,3,12.2,28.6,17.4,31.5s17.9-8.3,17.9-8.3L303.1,435.9z"/>
							<path fill="#0D5D78" d="M326.5,484.4c0,0-11.6,12.1-10.4,15c1.2,2.9,16.9,26.1,22.5,28.1c5.6,2,16.2-11.2,16.2-11.2
								L326.5,484.4z"/>
							<path fill="#0D5D78" d="M361.6,526.8c0,0-11.6,12.1-10.4,15c1.2,2.9,16.9,26.1,22.5,28.1c5.6,2,16.2-11.2,16.2-11.2
								L361.6,526.8z"/>
							<path fill="#0D5D78" d="M398.4,570.5c0,0-13,10.5-12.2,13.6c0.8,3,13.4,28.1,18.7,30.8c5.3,2.7,17.5-9.1,17.5-9.1
								L398.4,570.5z"/>
							<path fill="#0D5D78" d="M429.9,615.1c0,0-12.3,11.3-11.3,14.3c1,3,15.2,27.2,20.6,29.5c5.4,2.4,16.9-10.2,16.9-10.2
								L429.9,615.1z"/>
							<path fill="#0D5D78" d="M462.8,663.7c0,0-11.1,12.6-9.7,15.4c1.3,2.8,18,25.4,23.6,27.2c5.6,1.8,15.7-11.9,15.7-11.9
								L462.8,663.7z"/>
							<g>
								<path fill="#EE4723" d="M711.7,762c-1,2-2,3.8-3.2,5.5l-22.4,5.2c-27.9-1-75.7-13.3-117.8-25.7
									c-20.5-6.1-38.8-16.1-54.8-28.2c-0.9-0.7-1.9-1.4-2.8-2.1c-7.6-5.9-14.8-12.2-21.3-18.7c-3.2-3.2-6.4-6.4-9.3-9.6
									c-7-7.6-13.4-15.3-19.1-22.6c-3.3-4.4-6.4-8.6-9.3-12.7c-7-10-12.6-18.9-16.7-25.5c-2.3-3.7-4.6-7.3-6.8-10.8
									c-2.2-3.5-4.4-6.9-6.6-10.2c-9-13.5-17.2-25-24.7-34.7c-32.9-43-51.8-53.4-63-69.6c-5-7.2-38.4-48.9-36.8-58.9
									c0.2-1.3,1.4-3,3.2-4.9c7.3-7.3,25.4-17.7,37.8-24.3c7.2-3.9,12.5-6.5,12.5-6.5c0.1-0.2,0.1-0.4,0.3-0.6
									c2.1-3.7,12.3-10.9,26.1-19.2c5.7-3.4,12.1-7.1,18.7-10.8c10.8-6,22.4-12.2,33.4-17.9c35-17.9,27.4-28.1,38.4-38.5
									c10.9-10.3,19.5-1,20.9,1c0,0,10.4,8.9,3.2,30.3c-10.3,30.7-4.5,47.4,8.1,66.1c4.8,7.1,13.9,10.8,23.5,12.8
									c0,0,0.3,0.1,1,0.2c4.3,0.8,8.7,1.3,12.7,1.5c0,0,0.1,0,0.1,0c0.5,0,1.1,0.1,1.6,0.1c0.2,0,0.5,0,0.8,0
									c9.3,0.4,16.3-0.3,16.3-0.3s40.3-1.8,45.6,9c1.5,3.1-1,20.2-2.8,44.2c-0.4,4.8-0.7,9.9-1,15.1c-0.4,7.2-0.7,14.9-0.8,22.8
									c0,4.9,0,9.9,0,15c0.2,7.1,0.5,14.4,1.1,21.8c0.4,4.9,0.9,9.9,1.6,14.8c0.9,6.8,2.1,13.5,3.5,20.2c1.1,4.9,2.3,9.8,3.7,14.6
									c3,10.2,6.9,20.1,11.9,29.3l0.1,0.2c0.9,1.7,1.9,3.4,2.9,5.1l0.1,0.2c2.9,4.7,6,9.3,9.5,13.5c0,0,0,0,0,0
									c8.3,14.3,82.6,35.1,87,59.2c0.8,4.2,1,13.5-0.4,23.6C716.7,748.1,714.8,755.7,711.7,762z"/>
								<path fill="#0D5D78" stroke="#FFFFFF" stroke-width="4.0472" stroke-miterlimit="10" d="M589.5,611.8
									c-2.9,0.3-5.6-2.7-6-6.8l0,0c-0.5-4.1,1.5-7.7,4.4-8l20.9-2.3c2.9-0.3,5.6,2.7,6,6.8l0,0c0.5,4.1-1.5,7.7-4.4,8L589.5,611.8
									z"/>
								<path fill="#0D5D78" stroke="#FFFFFF" stroke-width="4.0472" stroke-miterlimit="10" d="M583.8,576.8
									c-2.9,0.3-5.6-2.7-6-6.8l0,0c-0.5-4.1,1.5-7.7,4.4-8l20.9-2.3c2.9-0.3,5.6,2.7,6,6.8l0,0c0.5,4.1-1.5,7.7-4.4,8L583.8,576.8
									z"/>
								<path fill="#0D5D78" stroke="#FFFFFF" stroke-width="4.0472" stroke-miterlimit="10" d="M582.1,540.1
									c-2.9,0.3-5.6-2.7-6-6.8l0,0c-0.5-4.1,1.5-7.7,4.4-8l20.9-2.3c2.9-0.3,5.6,2.7,6,6.8l0,0c0.5,4.1-1.5,7.7-4.4,8L582.1,540.1
									z"/>
								<path fill="#0D5D78" stroke="#FFFFFF" stroke-width="4.0472" stroke-miterlimit="10" d="M581,502.5c-2.9,0.3-5.6-2.7-6-6.8
									l0,0c-0.5-4.1,1.5-7.7,4.4-8l20.9-2.3c2.9-0.3,5.6,2.7,6,6.8l0,0c0.5,4.1-1.5,7.7-4.4,8L581,502.5z"/>
								<path fill="#FFFFFF" d="M711.7,762c-1,2-2,3.8-3.2,5.5c-57.2-18.8-116.7-48-158.6-77.7c-16.2-11.5-29.8-23-39.5-34
									c-4.4-5-8.1-9.9-10.9-14.6c-14.8-25.4-32.8-48.1-52.5-71.4c-7.8-9.3-15.9-18.7-24.2-28.4c-10.3-12-20.9-24.6-31.7-37.9
									c-28.1-35-44.1-67.8-51.4-84.9c-0.7-1.6-1.3-3.1-1.8-4.4c3.5-3.1,3.9-5.1,12.7-7.2c0.7,0,0.5,1.3,0.8,1.9
									c9.5,23.7,25.9,60.8,44.7,87.8c13,18.6,17.8,23.5,26.7,34.1c5.8,6.8,48.1,5.2,60.5,21.8c12.6,16.8-6.1,53.2,21.9,89.7
									c2.1,2.7,4.2,5.4,6.5,8c11.1,12.9,24.4,24.7,39.2,35.6C598.4,720.9,660.5,745.7,711.7,762z"/>
								<path fill="#FFFFFF" d="M536.7,432.6c0,0,24.5-0.3,23.6,22.7c-1,23-8.7,150.5,8.6,167.5c17.4,17,49.5,16.3,49.5,16.3
									l3.2,5.6c0,0-53.7,6-68.4-22.2s3.7-158.9-6.3-174.4c-10.1-15.6-23.8-17.3-23.8-17.3L536.7,432.6z"/>
							</g>
						</g>
					</g>
				</g>
			</g>
			<g>
				<path fill="#BCD8E7" d="M504.1,135.8c0,0,7.4-38.8-19.4-53.6C457.8,67.4,350.6,67.4,320,171c-30.5,103.6-39.8,164.6-39.8,523.4
					h-37.9c0,0,4.6-217.3,14.8-390.3C267.3,131.2,327.4,57.2,420.9,48c93.4-9.2,126.7,22.2,113.8,92.5L504.1,135.8z"/>
				<path fill="#A0C1D1" d="M366.9,62.6c-62.3,29.9-101.7,104.7-109.7,241.6c-10.2,172.9-14.8,390.3-14.8,390.3h18.5
					c-0.1-56.1,0.6-264.6,12.5-408.8C283.6,162,317.9,97.8,366.9,62.6z"/>
				<path fill="#A0C1D1" d="M523.1,138.7c0.1-49.2-17.6-74.9-80.5-72.2c-57.1,2.4-78,32.5-82.3,40c44.1-37.9,105.1-34.9,124.4-24.2
					c26.8,14.8,19.4,53.6,19.4,53.6L523.1,138.7z"/>
			</g>
			<path fill="#FFFFFF" d="M362.5,904c0,0-17,43.9-3.5,54c13.5,10,43.9-47.1,43.9-47.1L362.5,904z"/>
			<path fill="#DBE9F0" d="M358.9,957.9c13.5,10,43.9-47.1,43.9-47.1l-35.8-6l-0.7,4.8C366.4,909.6,389.1,941.7,358.9,957.9z"/>
			<path fill="#FFFFFF" d="M664.4,904c0,0,17,43.9,3.5,54c-13.5,10-43.9-47.1-43.9-47.1L664.4,904z"/>
			<path fill="#DBE9F0" d="M667.9,957.9c-13.5,10-43.9-47.1-43.9-47.1l35.8-6l0.7,4.8C660.5,909.6,637.7,941.7,667.9,957.9z"/>
			<path fill="#FFFFFF" d="M282.8,699.9c0,0-2.4,158.1,62.1,206.5c64.5,48.4,275.3,46.2,322.6,8.6c47.3-37.6,77.4-208.6,77.4-208.6
				L282.8,699.9z"/>
			<path fill="#FFFFFF" d="M249.5,669.8c-21.9,0.2-18.6,30.1,8.6,44.4c27.2,14.3,487.5,22.9,513.2,8.6c25.8-14.3,17.2-33,0-41.6
				C754.2,672.7,391.5,668.4,249.5,669.8z"/>
			<path fill="#DBE9F0" d="M236.8,692c3,8,10.2,16.4,21.3,22.3c27.2,14.3,487.5,22.9,513.2,8.6c12.2-6.8,16.7-14.6,16.2-21.8
				c-43.5,3.7-125,7.5-276.2,7.5C336.1,708.5,265.6,699.9,236.8,692z"/>
			<path fill="#DBE9F0" d="M726,788.8C726,788.8,726,788.8,726,788.8c-42.5,100.7-152.1,142.3-296.2,107.9
				C347,876.9,310.4,839,294.4,809.7c8.7,38.3,23.9,76.7,50.4,96.6c64.5,48.4,275.3,46.2,322.6,8.6
				C692.4,895.1,712.5,838.2,726,788.8z"/>
			<g>
				<path fill="#BCD8E7" d="M499,144.6c0,0-50.9,34.7-63.8,67.5h175.7c0,0-28.2-46.7-68.4-67.5H499z"/>
				<g>
					<path fill="#A0C1D1" d="M435.2,212.1h34.7c6-43,41.3-65,41.3-65l-1.4-1.8H498C490.9,150.3,447.1,182,435.2,212.1z"/>
					<path fill="#A0C1D1" d="M523.3,150.9h-8.3c-19.6,12.3-31.9,49.2-35.4,61.3h21.8C496.8,175.5,523.3,150.9,523.3,150.9z"/>
				</g>
				<path fill="#DBF1FC" d="M589.3,212.1h9.2c-13.3-35.1-55.1-64.3-55.1-64.3l-12,2.3c23.9,26.3,35.1,48,40.3,62h6.6
					c-11.6-36.2-42.3-61.5-42.3-61.5l2.8-1.8C570.6,173.3,584,198.7,589.3,212.1z"/>
				<path fill="#779FB2" d="M496.3,122.9c-8,6.1-5.9,20.8,0,25.9c5.9,5.1,43.4,4.6,49.4,0c6-4.6,6-18,0-22.7
					C539.7,121.5,504.2,116.9,496.3,122.9z"/>
				<path fill="#779FB2" d="M444.7,206.1c-25.4,2.7-18.8,9.3,0,11.5c18.8,2.3,137.5,2.1,156.6,0c19.1-2.1,19.1-8,0-10.1
					S469.8,203.4,444.7,206.1z"/>
				<path fill="#6C90A2" d="M521.1,120.5c-10.4-0.9-20.9-0.5-24.8,2.4c-8,6.1-5.9,20.8,0,25.9c2.7,2.3,12.1,3.5,22.1,3.6
					c-5.3-3.6-9.5-9.3-9.7-17.3C508.5,126.3,515.9,122.2,521.1,120.5z"/>
				<path fill="#6C90A2" d="M495.1,204.8c-22.3,0-41.6,0.3-50.4,1.3c-25.4,2.7-18.8,9.3,0,11.5c6.9,0.8,27,1.3,50.7,1.5
					C491.6,212.3,492.8,207.7,495.1,204.8z"/>
				<g>
					<path fill="#A0C1D1" d="M592.1,206.9c1.4,2.1,2.7,5.7,2,11.2c3-0.1,5.4-0.3,7.1-0.5c0.7-0.1,1.4-0.2,2.1-0.3
						c0.1-2.6-0.5-5.9-2.3-9.8C599,207.3,596,207.1,592.1,206.9z"/>
					<path fill="#A0C1D1" d="M581,218.6c1.5,0,3-0.1,4.3-0.1c0.4-2.8,0.2-6.8-1.6-12c-1.8-0.1-3.8-0.2-5.8-0.2
						C579.3,208.4,581.1,212.5,581,218.6z"/>
				</g>
				<g>
					<path fill="#A0C1D1" d="M530.7,152c1.4-0.1,2.7-0.2,4-0.4c2.2-6.5,7.8-21.4-1.2-29.5c-1.3-0.2-2.6-0.5-3.9-0.7
						C534,126,537.6,132.1,530.7,152z"/>
					<path fill="#A0C1D1" d="M545.6,148.8c1.3-5.9,4.5-13.2-0.5-23.1c-1.4-0.8-3.6-1.6-6.4-2.4c1.9,4.5,8.7,7.6-1.5,28
						C541.1,150.7,544.2,149.9,545.6,148.8z"/>
				</g>
			</g>
			<g>
				<path fill="#F58B1F" d="M410.1,300c0,0,12.8,4.8,12.8,8s-14.2,1.9-15.8,1.3S410.1,300,410.1,300z"/>
				<path fill="#F17622" d="M422.9,308c0-0.2-0.1-0.4-0.2-0.6c-2.3,1.1-6.7,2.1-14.3-2c-0.2-0.1-0.5-0.2-0.7-0.3
					c-0.8,2.1-1.4,4.1-0.7,4.4C408.8,309.9,422.9,311.2,422.9,308z"/>
				<path fill="#FBED1F" d="M402.6,289.3c-15.4-3.8-23.5,6.7-20.3,16.9c3.2,10.2-0.5,13.9-12.8,13.9s-28.4-9.1-31-8.6
					c-2.7,0.5-6.2,44.7,31,47.6c37.2,2.9,48.4-12.8,43.3-24.1s-8.8-18.7-4.5-24.9C412.5,304,414.4,292.2,402.6,289.3z"/>
				<path fill="#FFC214" d="M383.7,335.5c4.3-7.1-26.7-11.9-29.6-8.4S367.2,362.5,383.7,335.5z"/>
				<path fill="#F58B1F" d="M384.3,333.7c4.3-7.1-26.7-11.9-29.6-8.4S367.7,360.7,384.3,333.7z"/>
				<circle fill="#965824" cx="397.3" cy="299.2" r="2.7"/>
				<path fill="#FFC214" d="M411.8,332.9c-0.2,5.2-4,11.4-17.5,16.3c-28.6,10.4-42-2.1-50-15.5c-5-8.4-6.4-16.1-6.7-20.7
					c-2.2,7.7-1.5,43.5,31.8,46.1c37.2,2.9,48.4-12.8,43.3-24.1C412.4,334.3,412.1,333.6,411.8,332.9z"/>
				<path fill="#F17622" d="M372.4,338c-10.8,2.2-17-10.6-14.8-13.8c-1.5,0.2-2.5,0.5-3,1c-2.9,3.5,13.1,35.4,29.6,8.4
					c0.7-1.2,0.4-2.3-0.5-3.4C382.8,332.7,380.2,336.4,372.4,338z"/>
			</g>
			<g>
				<path fill="#FFFFFF" d="M412.2,374c0,0,8.1-0.7,8-14c-0.1-13.3-16.8-7.4-16.8-7.4s-11.4-13.4-23.1-11.5
					c-11.7,1.8-12.4,10.3-12.4,10.3s-22-2.6-26.2,15c0,0-20.2-1.5-19.5,20.6c0,0-16.3,18-1.3,30.2c0,0-7.3,19.5,4.9,21.1
					c12.2,1.6,15-23.6,15-23.6s15.9,8.5,27.6-12.6c0,0,10.9,9.9,20.5-5.1C388.8,397,419.4,402.3,412.2,374z"/>
				<path fill="#DBE9F0" d="M412.2,374c0,0,8.1-0.7,8-14c0-2.3-0.6-4.1-1.4-5.3c-0.8,2-6.2,13.7-17.3,14.1c0,0,3.3,16.7-17.2,16.5
					c0,0-4.6,10.9-19.4,3.3c0,0-9.5,23-29.8,13.4c0,0-1.7,30.8-10,36.1c0.2,0,0.4,0.1,0.7,0.1c12.2,1.6,15-23.6,15-23.6
					s15.9,8.5,27.6-12.6c0,0,10.9,9.9,20.5-5.1C388.8,397,419.4,402.3,412.2,374z"/>
			</g>
			<g>
				<path fill="#FFFFFF" d="M696.9,511.5c0-9.1-8.9-8.1-8.9-8.1s-8.9-16.2-21.4-6.6c0,0-17.7-5.2-22.1,7.4c0,0-13.3-2.2-15.5,8.9
					c-2.2,11.1,16.2,8.1,16.2,8.1s4.4,14,20.7,5.9c0,0,11.8,8.9,19.9-3.7C685.8,523.3,696.9,523.3,696.9,511.5z"/>
				<path fill="#DBE9F0" d="M683.6,514.5c-7.4,11.8-17,2.2-17,2.2c-12.5,13.3-18.4-4.4-18.4-4.4c-11,4.1-16.3,1.7-18.8-0.7
					c-0.2,0.5-0.3,1-0.4,1.5c-2.2,11.1,16.2,8.1,16.2,8.1s4.4,14,20.7,5.9c0,0,11.8,8.9,19.9-3.7c0,0,11.1,0,11.1-11.8
					C691.7,521.1,683.6,514.5,683.6,514.5z"/>
			</g>
			<g opacity="0.83">
				<g>
					<path fill="#FFFFFF" d="M447.9,228.8c0,0-17.7,16-8.6,19.9C448.4,252.7,447.9,228.8,447.9,228.8z"/>
					<path fill="#FFFFFF" d="M487.7,301.1c0,0-15.2,18.4-5.6,21C491.7,324.7,487.7,301.1,487.7,301.1z"/>
					<path fill="#FFFFFF" d="M504.4,235.3c0,0-12.3,20.5-2.5,21.6C511.7,258,504.4,235.3,504.4,235.3z"/>
					<path fill="#FFFFFF" d="M469.8,259.2c0,0-17.8,15.9-8.7,19.9C470.2,283,469.8,259.2,469.8,259.2z"/>
					<path fill="#FFFFFF" d="M445,326.9c0,0-12.6,20.3-2.7,21.5C452.1,349.7,445,326.9,445,326.9z"/>
					<path fill="#FFFFFF" d="M475.1,373c0,0-11,21.2-1.1,21.7C483.9,395.2,475.1,373,475.1,373z"/>
					<path fill="#FFFFFF" d="M431.6,286.5c0,0-17.9,15.8-8.8,19.9S431.6,286.5,431.6,286.5z"/>
					<path fill="#FFFFFF" d="M369.3,403c0,0-20.9,11.6-12.9,17.5C364.4,426.4,369.3,403,369.3,403z"/>
					<path fill="#FFFFFF" d="M405.3,361.6c0,0-13.3,19.9-3.5,21.4C411.6,384.6,405.3,361.6,405.3,361.6z"/>
					<path fill="#FFFFFF" d="M392.7,318.5c0,0-16.4,17.4-7,20.6C395.1,342.3,392.7,318.5,392.7,318.5z"/>
				</g>
				<g>
					<path fill="#FFFFFF" d="M579.9,228.8c0,0,17.7,16,8.6,19.9C579.4,252.7,579.9,228.8,579.9,228.8z"/>
					<path fill="#FFFFFF" d="M540.1,301.1c0,0,15.2,18.4,5.6,21C536.2,324.7,540.1,301.1,540.1,301.1z"/>
					<path fill="#FFFFFF" d="M523.5,235.3c0,0,12.3,20.5,2.5,21.6C516.1,258,523.5,235.3,523.5,235.3z"/>
					<path fill="#FFFFFF" d="M558,259.2c0,0,17.8,15.9,8.7,19.9C557.6,283,558,259.2,558,259.2z"/>
					<path fill="#FFFFFF" d="M582.8,326.9c0,0,12.6,20.3,2.7,21.5C575.7,349.7,582.8,326.9,582.8,326.9z"/>
					<path fill="#FFFFFF" d="M552.7,373c0,0,11,21.2,1.1,21.7C543.9,395.2,552.7,373,552.7,373z"/>
					<path fill="#FFFFFF" d="M513,337.7c0,0,11,21.2,1.1,21.7C504.2,359.9,513,337.7,513,337.7z"/>
					<path fill="#FFFFFF" d="M603.2,400.3c0,0,15.3,18.3,5.8,20.9C599.4,423.8,603.2,400.3,603.2,400.3z"/>
					<path fill="#FFFFFF" d="M519.3,399.8c0,0,10.7,21.3,0.8,21.7C510.2,421.8,519.3,399.8,519.3,399.8z"/>
					<path fill="#FFFFFF" d="M596.2,286.5c0,0,17.9,15.8,8.8,19.9C595.9,310.4,596.2,286.5,596.2,286.5z"/>
					<path fill="#FFFFFF" d="M658.5,403c0,0,20.9,11.6,12.9,17.5C663.4,426.4,658.5,403,658.5,403z"/>
					<path fill="#FFFFFF" d="M622.5,361.6c0,0,13.3,19.9,3.5,21.4C616.2,384.6,622.5,361.6,622.5,361.6z"/>
					<path fill="#FFFFFF" d="M635.1,318.5c0,0,16.4,17.4,7,20.6C632.7,342.3,635.1,318.5,635.1,318.5z"/>
				</g>
			</g>
			<circle fill="#FFFFFF" cx="324.7" cy="404.7" r="7.9"/>
			<circle fill="#FFFFFF" cx="314.9" cy="412.6" r="9.8"/>
			<circle fill="#FFFFFF" cx="366.9" cy="512.3" r="6.9"/>
			<circle fill="#FFFFFF" cx="201.8" cy="607.3" r="13.8"/>
			<circle fill="#FFFFFF" cx="192" cy="598.4" r="10.8"/>
			<circle fill="#FFFFFF" cx="180.2" cy="547.3" r="6.9"/>
			<circle fill="#FFFFFF" cx="166.4" cy="652.5" r="9.8"/>
			<circle fill="#FFFFFF" cx="745.6" cy="538.4" r="12.8"/>
			<circle fill="#FFFFFF" cx="755.5" cy="535.5" r="7.9"/>
			<circle fill="#FFFFFF" cx="790.4" cy="601.3" r="12.8"/>
			<circle fill="#FFFFFF" cx="803.1" cy="601.3" r="8.9"/>
			<circle fill="#FFFFFF" cx="777.6" cy="601.3" r="6.9"/>
			<circle fill="#FFFFFF" cx="811.3" cy="588.6" r="6.9"/>
			<circle fill="#FFFFFF" cx="939.4" cy="518.8" r="6.9"/>
			<circle fill="#FFFFFF" cx="656.2" cy="302.4" r="7.9"/>
			<circle fill="#FFFFFF" cx="342.4" cy="274.2" r="10.8"/>
			<circle fill="#FFFFFF" cx="353.3" cy="280.1" r="9.8"/>
			<circle fill="#FFFFFF" cx="329.7" cy="270" r="8.9"/>
			<circle fill="#FFFFFF" cx="219.3" cy="400" r="8.9"/>
			<circle fill="#FFFFFF" cx="228.9" cy="411.8" r="16.2"/>
			<circle fill="#FFFFFF" cx="214.1" cy="306.4" r="6.6"/>
			<circle fill="#FFFFFF" cx="139.6" cy="460.5" r="7.4"/>
			<circle fill="#FFFFFF" cx="788.7" cy="274.6" r="6.6"/>
			<circle fill="#FFFFFF" cx="885.9" cy="699.9" r="6.6"/>
		</g>
		<g>
			<g>
				
					<text transform="matrix(1 0 0 1 710.3693 999.1396)" fill="#0D5D78" font-family="'Haettenschweiler'" font-size="29.0078" letter-spacing="1">THE</text>
				
					<text transform="matrix(1.1521 0 0 1 750.9523 999.6045)" fill="#0D5D78" font-family="'Haettenschweiler'" font-size="33" letter-spacing="0.9">SHOE WASH</text>
				
					<text transform="matrix(1 0 0 1 901.3683 998.1396)" fill="#0D5D78" font-family="'Haettenschweiler'" font-size="29.0078" letter-spacing="1">COMPANY</text>
			</g>
		</g>
	</g>
</g>
</svg>
